<?xml version="1.0" standalone="no"?>
<!DOCTYPE svg PUBLIC "-//W3C//DTD SVG 1.1//EN" "http://www.w3.org/Graphics/SVG/1.1/DTD/svg11.dtd" >
<svg xmlns="http://www.w3.org/2000/svg" xmlns:xlink="http://www.w3.org/1999/xlink" version="1.1">
<metadata>
Created by FontForge 20201107 at Sat Sep 30 13:26:15 2023
 By 
Copyright 2022 The Noto Project Authors (https://github.com/notofonts/latin-greek-cyrillic)
</metadata>
<defs>
<font id="NotoSerif-Italic" horiz-adv-x="0" >
  <font-face 
    font-family="Noto Serif"
    font-weight="400"
    font-style="italic"
    font-stretch="normal"
    units-per-em="1000"
    panose-1="2 2 5 2 6 5 5 9 2 4"
    ascent="800"
    descent="-200"
    x-height="536"
    cap-height="714"
    bbox="-731 -389 2797 1048"
    underline-thickness="50"
    underline-position="-125"
    slope="-12"
    unicode-range="U+000D-1DF1E"
  />
<missing-glyph horiz-adv-x="600" 
d="M94 0v714h411v-714h-411zM145 51h309v612h-309v-612z" />
    <glyph glyph-name="f_f" unicode="ff" horiz-adv-x="616" 
d="M-82 -240q-15 0 -31.5 2.5t-26.5 5.5l9 46q8 -2 21.5 -4.5t24.5 -2.5q33 0 55.5 18.5t39.5 59t31 106.5l105 488h-91l6 36l96 21l5 23q22 101 70.5 151t127.5 50q43 0 67.5 -8.5t35.5 -21.5t11 -29q0 -26 -17.5 -41.5t-52.5 -15.5q0 14 -4 30.5t-15.5 28t-32.5 11.5
q-37 0 -56.5 -33.5t-37.5 -111.5l-7 -33h203l-11 -57h-204l-104 -487q-14 -67 -34.5 -111.5t-47.5 -71t-60.5 -38t-74.5 -11.5zM216 -240q-15 0 -31.5 2.5t-26.5 5.5l9 46q8 -2 21.5 -4.5t24.5 -2.5q33 0 55.5 18.5t39.5 59t31 106.5l105 488h-91l6 36l96 21l7 35
q12 57 36.5 102t63.5 71t94 26q64 0 96.5 -20.5t32.5 -53.5t-21.5 -49t-61.5 -16q0 38 -9.5 65.5t-41.5 27.5q-37 0 -58.5 -40.5t-34.5 -103.5l-9 -44h111l-11 -57h-112l-104 -487q-14 -67 -34.5 -111.5t-47.5 -71t-60.5 -38t-74.5 -11.5z" />
    <glyph glyph-name="fi" unicode="fi" horiz-adv-x="594" 
d="M-82 -240q-15 0 -31.5 2.5t-26.5 5.5l9 46q8 -2 21.5 -4.5t24.5 -2.5q33 0 55.5 18.5t39.5 59t31 106.5l105 488h-91l6 36l96 21l13 55q20 86 74.5 132.5t153.5 46.5q77 0 116 -20.5t39 -53.5t-28 -49t-80 -16q0 26 -5 47t-19 33.5t-42 12.5q-47 0 -74.5 -30t-40.5 -94
l-13 -64h289l-68 -321q-2 -11 -6 -32t-6.5 -43t-2.5 -36q0 -25 8.5 -38t24.5 -13q17 0 35 7.5t37 18.5l18 -29q-22 -19 -59.5 -39.5t-75.5 -20.5q-40 0 -61.5 28t-21.5 67q0 21 4 50t9 58.5t9 48.5l50 237h-195l-104 -487q-14 -67 -34.5 -111.5t-47.5 -71t-60.5 -38
t-74.5 -11.5z" />
    <glyph glyph-name="fl" unicode="fl" horiz-adv-x="593" 
d="M-82 -240q-15 0 -31.5 2.5t-26.5 5.5l9 46q8 -2 21.5 -4.5t24.5 -2.5q33 0 55.5 18.5t39.5 59t31 106.5l105 488h-91l6 36l96 21l13 55q20 86 74.5 132.5t153.5 46.5q25 0 52.5 -7t45.5 -18l70 15h22l-116 -545q-2 -11 -6 -32t-6.5 -43t-2.5 -36q0 -25 8.5 -38t24.5 -13
q17 0 35 7.5t37 18.5l18 -29q-22 -19 -59.5 -39.5t-75.5 -20.5q-40 0 -61.5 28t-21.5 67q0 21 4 50t9 58.5t9 48.5l85 401q-2 23 -14 41t-31.5 29t-44.5 11q-47 0 -74.5 -30.5t-40.5 -93.5l-13 -64h111l-11 -57h-112l-104 -487q-14 -67 -34.5 -111.5t-47.5 -71t-60.5 -38
t-74.5 -11.5z" />
    <glyph glyph-name="f_f_i" unicode="ffi" horiz-adv-x="891" 
d="M-82 -240q-15 0 -31.5 2.5t-26.5 5.5l9 46q8 -2 21.5 -4.5t24.5 -2.5q33 0 55.5 18.5t39.5 59t31 106.5l105 488h-91l6 36l96 21l5 23q22 101 70.5 151t127.5 50q43 0 67.5 -8.5t35.5 -21.5t11 -29q0 -26 -17.5 -41.5t-52.5 -15.5q0 14 -4 30.5t-15.5 28t-32.5 11.5
q-37 0 -56.5 -33.5t-37.5 -111.5l-7 -33h203l13 55q14 57 42 97t74 61t112 21q77 0 116 -20.5t39 -53.5t-28 -49t-80 -16q0 26 -5 47t-19 33.5t-42 12.5q-47 0 -74.5 -30t-40.5 -94l-13 -64h289l-68 -321q-2 -11 -6 -32t-6.5 -43t-2.5 -36q0 -25 8.5 -38t24.5 -13
q17 0 35 7.5t37 18.5l18 -29q-22 -19 -59.5 -39.5t-75.5 -20.5q-40 0 -61.5 28t-21.5 67q0 21 4 50t9 58.5t9 48.5l50 237h-195l-104 -487q-14 -67 -34.5 -111.5t-47.5 -71t-60.5 -38t-74.5 -11.5q-15 0 -31.5 2.5t-26.5 5.5l9 46q8 -2 21.5 -4.5t24.5 -2.5q33 0 55.5 18.5
t39.5 59t31 106.5l105 488h-204l-104 -487q-14 -67 -34.5 -111.5t-47.5 -71t-60.5 -38t-74.5 -11.5z" />
    <glyph glyph-name="f_f_l" unicode="ffl" horiz-adv-x="890" 
d="M-82 -240q-15 0 -31.5 2.5t-26.5 5.5l9 46q8 -2 21.5 -4.5t24.5 -2.5q33 0 55.5 18.5t39.5 59t31 106.5l105 488h-91l6 36l96 21l5 23q22 101 70.5 151t127.5 50q43 0 67.5 -8.5t35.5 -21.5t11 -29q0 -26 -17.5 -41.5t-52.5 -15.5q0 14 -4 30.5t-15.5 28t-32.5 11.5
q-37 0 -55.5 -33.5t-37.5 -111.5l-8 -33h203l13 55q10 43 28.5 76t46 56t66 35t87.5 12q25 0 52.5 -7t45.5 -18l70 15h22l-116 -545q-2 -11 -6 -32t-6.5 -43t-2.5 -36q0 -25 8.5 -38t24.5 -13q17 0 35 7.5t37 18.5l18 -29q-22 -19 -59.5 -39.5t-75.5 -20.5q-40 0 -61.5 28
t-21.5 67q0 21 4 50t9 58.5t9 48.5l85 401q-2 23 -14 41t-31.5 29t-44.5 11q-47 0 -73.5 -30t-40.5 -94l-14 -64h111l-11 -57h-112l-104 -487q-14 -67 -34.5 -111.5t-47.5 -71t-60.5 -38t-74.5 -11.5q-15 0 -31.5 2.5t-26.5 5.5l9 46q8 -2 21.5 -4.5t24.5 -2.5
q33 0 55.5 18.5t39.5 59t31 106.5l105 488h-204l-104 -487q-14 -67 -34.5 -111.5t-47.5 -71t-60.5 -38t-74.5 -11.5z" />
    <glyph glyph-name=".notdef" horiz-adv-x="600" 
d="M94 0v714h411v-714h-411zM145 51h309v612h-309v-612z" />
    <glyph glyph-name=".null" 
 />
    <glyph glyph-name="nonmarkingreturn" horiz-adv-x="333" 
 />
    <glyph glyph-name="NULL" 
 />
    <glyph glyph-name="CR" unicode="&#xd;" horiz-adv-x="260" 
 />
    <glyph glyph-name="space" unicode=" " horiz-adv-x="260" 
 />
    <glyph glyph-name="exclam" unicode="!" horiz-adv-x="333" 
d="M122 201l78 513h116l-140 -513h-54zM116 -8q-25 0 -40.5 14.5t-15.5 40.5q0 43 23.5 62.5t48.5 19.5t40.5 -13.5t15.5 -39.5q0 -29 -10.5 -48t-26.5 -27.5t-35 -8.5z" />
    <glyph glyph-name="quotedbl" unicode="&#x22;" horiz-adv-x="408" 
d="M131 479l20 235h106l-80 -235h-46zM319 479l20 235h106l-80 -235h-46z" />
    <glyph glyph-name="numbersign" unicode="#" horiz-adv-x="559" 
d="M56 0l59 203h-92l7 59h103l58 196h-109l6 59h120l57 197h61l-58 -197h139l58 197h60l-58 -197h92l-6 -59h-103l-57 -196h109l-7 -59h-121l-59 -203h-60l59 203h-139l-59 -203h-60zM194 262h139l57 196h-139z" />
    <glyph glyph-name="dollar" unicode="$" horiz-adv-x="559" 
d="M201 37q-56 4 -96 22.5t-60.5 48t-20.5 64.5q0 30 13.5 48t32 26t31.5 8q0 -66 29.5 -111t80.5 -56l52 245q-39 20 -69 44t-46.5 55t-16.5 72q0 61 28 100t75 59t105 22l16 76h50l-16 -76q45 -3 77 -16t49.5 -34t17.5 -50q0 -31 -19.5 -50t-61.5 -19q0 25 -5.5 51
t-21.5 46.5t-46 26.5l-51 -240l11 -6q45 -24 76 -47.5t47 -51t16 -65.5q0 -60 -30.5 -102t-82 -65t-115.5 -26l-24 -115h-50zM261 85q59 5 90.5 39.5t31.5 82.5q0 24 -8 42t-24.5 33t-41.5 28zM329 640q-31 -4 -54.5 -20t-37 -42t-13.5 -61q0 -31 14 -53t45 -42z" />
    <glyph glyph-name="percent" unicode="%" horiz-adv-x="896" 
d="M167 0l502 714h70l-498 -714h-74zM195 281q-59 0 -94 39t-35 120q0 42 12.5 90.5t38 92.5t65 72t94.5 28q70 0 101.5 -44t31.5 -115q0 -31 -8 -69t-24.5 -75.5t-42 -69t-60 -50.5t-79.5 -19zM199 322q25 0 45.5 18t35.5 47.5t25.5 64t15.5 68.5t5 60q0 49 -12 76t-42 27
q-25 0 -45.5 -18t-35.5 -47.5t-25.5 -64t-15.5 -68.5t-5 -60q0 -49 12 -76t42 -27zM637 -8q-59 0 -94 39t-35 120q0 42 12.5 90.5t38 92.5t65 72t94.5 28q70 0 101.5 -44t31.5 -115q0 -31 -8 -69t-24.5 -75.5t-42 -69t-60 -50.5t-79.5 -19zM641 33q25 0 45.5 18t35.5 47.5
t25.5 64t15.5 68.5t5 60q0 49 -12 76t-42 27q-25 0 -45.5 -18t-35.5 -47.5t-25.5 -64t-15.5 -68.5t-5 -60q0 -49 12 -76t42 -27z" />
    <glyph glyph-name="ampersand" unicode="&#x26;" horiz-adv-x="742" 
d="M254 -10q-74 0 -123 25.5t-72.5 67.5t-23.5 94q0 66 29 108.5t76.5 70.5t104.5 49q-23 39 -35.5 75.5t-12.5 71.5q0 86 56 129t157 43q88 0 128.5 -37.5t40.5 -92.5q0 -56 -24.5 -89.5t-73 -57t-120.5 -50.5l140 -192q23 42 38.5 88t24.5 89l8 39h180l-9 -42h-9
q-22 0 -44 -4.5t-41 -18.5t-34 -45q-16 -34 -35.5 -73.5t-44.5 -78.5l55 -75q11 -14 23.5 -23.5t30.5 -14t44 -4.5h9l-9 -42h-153l-60 83q-40 -40 -93.5 -66.5t-127.5 -26.5zM264 46q57 0 101.5 22t78.5 58l-170 236q-51 -23 -81.5 -48.5t-44.5 -57.5t-14 -77q0 -38 15 -68
t44.5 -47.5t70.5 -17.5zM333 437q56 22 90 42t49.5 45.5t15.5 62.5q0 38 -22 63t-63 25q-52 0 -81 -28.5t-29 -87.5q0 -28 9.5 -57.5t30.5 -64.5z" />
    <glyph glyph-name="quotesingle" unicode="'" horiz-adv-x="220" 
d="M127 479l20 235h106l-80 -235h-46z" />
    <glyph glyph-name="parenleft" unicode="(" horiz-adv-x="346" 
d="M219 -128q-62 27 -101.5 74.5t-57.5 108.5t-18 131q0 91 22.5 182.5t68 171.5t114 138t161.5 82l-10 -45q-63 -34 -108.5 -89.5t-75 -122.5t-47 -135t-24.5 -128t-7 -101q0 -42 8.5 -84t29 -77.5t55.5 -59.5z" />
    <glyph glyph-name="parenright" unicode=")" horiz-adv-x="346" 
d="M-39 -91q63 34 108.5 89.5t75 122.5t47 135t24.5 128t7 101q0 43 -8.5 84.5t-29 77t-55.5 59.5l10 46q63 -27 102 -74.5t57 -108.5t18 -131q0 -91 -22.5 -182.5t-68 -171.5t-114 -138t-161.5 -82z" />
    <glyph glyph-name="asterisk" unicode="*" horiz-adv-x="500" 
d="M331 373l-85 18l58 149l-170 -61l-18 84l175 14l-154 84l51 70l130 -127l8 161l85 -18l-60 -149l171 60l18 -84l-176 -13l155 -83l-50 -68l-132 123z" />
    <glyph glyph-name="plus" unicode="+" horiz-adv-x="559" 
d="M249 143v185h-184v59h184v185h60v-185h185v-59h-185v-185h-60z" />
    <glyph glyph-name="comma" unicode="," horiz-adv-x="250" 
d="M-24 -104q50 11 76 32.5t26 51.5q0 14 -10 22t-22.5 16t-22.5 19.5t-10 31.5q0 29 18.5 44t43.5 15q32 0 55 -21.5t23 -60.5q0 -45 -19.5 -84t-59.5 -67t-102 -41z" />
    <glyph glyph-name="hyphen" unicode="-" horiz-adv-x="310" 
d="M14 235l16 75h260l-16 -75h-260z" />
    <glyph glyph-name="period" unicode="." horiz-adv-x="250" 
d="M82 -8q-25 0 -40.5 14t-15.5 37q0 46 23.5 66t48.5 20t40.5 -13t15.5 -36q0 -31 -10.5 -50.5t-26.5 -28.5t-35 -9z" />
    <glyph glyph-name="slash" unicode="/" horiz-adv-x="288" 
d="M-93 -121l411 881h63l-411 -881h-63z" />
    <glyph glyph-name="zero" unicode="0" horiz-adv-x="559" 
d="M233 -11q-86 0 -139.5 62t-53.5 180q0 62 11.5 130.5t35 133t59 116.5t84 83t110.5 31q53 0 96 -24t68.5 -74.5t25.5 -130.5q0 -61 -11 -130t-34 -135.5t-58 -121.5t-83.5 -87.5t-110.5 -32.5zM241 44q42 0 74 31.5t54.5 83.5t36.5 114.5t20.5 125.5t6.5 116q0 55 -12 89
t-35 50.5t-56 16.5q-42 0 -73.5 -31.5t-54.5 -83t-37 -114t-21 -125t-7 -115.5q0 -83 28 -120.5t76 -37.5z" />
    <glyph glyph-name="one" unicode="1" horiz-adv-x="559" 
d="M38 0l8 42h53q23 0 42.5 5t34.5 20.5t21 46.5l78 368q8 39 17.5 78.5t19.5 78.5h-4q-50 -49 -84.5 -76.5t-66.5 -27.5q-21 0 -30.5 15.5t-9.5 38.5q23 6 46.5 14.5t51.5 23.5t66 39l81 52h64l-129 -608q-1 -6 -2.5 -14.5t-1.5 -13.5q0 -25 20.5 -32.5t51.5 -7.5h54
l-9 -42h-372z" />
    <glyph glyph-name="two" unicode="2" horiz-adv-x="559" 
d="M-17 0l21 81l235 212q68 61 104 108t50 88t14 84q0 45 -24 73t-68 28q-43 0 -72 -21t-46 -55.5t-24 -74.5q-31 0 -51 15t-20 49q0 35 25.5 66t74.5 51t118 20q94 0 141.5 -39t47.5 -107q0 -35 -13.5 -68.5t-40 -68.5t-65 -74t-89.5 -85l-225 -202h232q31 0 49.5 11t30 28
t19.5 36l7 16h42l-40 -171h-433z" />
    <glyph glyph-name="three" unicode="3" horiz-adv-x="559" 
d="M191 -10q-71 0 -114 15t-61.5 39t-18.5 51q0 35 22.5 54.5t53.5 19.5q0 -30 12.5 -58.5t40 -47t72.5 -18.5t82 19t59 56.5t22 93.5q0 41 -16.5 70t-48 44.5t-76.5 15.5h-43l10 51h32q56 0 100 23.5t69.5 66t25.5 98.5q0 40 -20.5 65.5t-64.5 25.5q-45 0 -73.5 -21
t-44 -54.5t-24.5 -73.5q-31 0 -52.5 13.5t-21.5 50.5q0 41 29.5 71.5t79.5 47t111 16.5q83 0 133.5 -37.5t50.5 -105.5q0 -46 -22.5 -88.5t-67 -73.5t-111.5 -43q46 -5 79.5 -24.5t52 -51.5t18.5 -75q0 -66 -25 -111.5t-66 -72.5t-89 -39t-95 -12z" />
    <glyph glyph-name="four" unicode="4" horiz-adv-x="559" 
d="M128 0l8 42h44q23 0 42.5 5t34.5 20.5t21 46.5l67 325q9 44 22 96t27 98q-11 -17 -27.5 -39.5t-33 -43t-27.5 -32.5l-257 -301l-15 35h492l-12 -56h-528l9 41l410 477h96l-128 -604q-1 -6 -2.5 -14.5t-1.5 -13.5q0 -25 20.5 -32.5t51.5 -7.5h23l-9 -42h-327z" />
    <glyph glyph-name="five" unicode="5" horiz-adv-x="559" 
d="M183 -10q-64 0 -102.5 13.5t-55.5 36.5t-17 50q0 28 18 45t57 17q1 -25 10 -50t32.5 -41t66.5 -16q51 0 89.5 21.5t60 64t21.5 105.5q0 68 -36.5 102t-91.5 34q-38 0 -63 -7t-46 -15l-34 7l107 357h334l-27 -151h-42q1 13 2 27t1 20q0 11 -9.5 17.5t-36.5 6.5h-194
l-66 -223q17 5 39.5 10.5t56.5 5.5q96 0 153 -47.5t57 -136.5q0 -72 -34 -129t-97.5 -90.5t-152.5 -33.5z" />
    <glyph glyph-name="six" unicode="6" horiz-adv-x="559" 
d="M248 -10q-52 0 -94.5 27t-68 80.5t-25.5 134.5q0 75 15 146.5t44 134t71 110t95 74.5t117 27q51 0 85 -12.5t51 -33t17 -44.5q0 -35 -23 -55t-64 -20q0 30 -4.5 56.5t-18.5 43.5t-45 17q-50 0 -92 -33.5t-75 -98.5t-57 -162q23 16 61 34t86 18q58 0 95.5 -24t55.5 -63.5
t18 -87.5q0 -52 -15 -100.5t-45 -86.5t-76 -60t-108 -22zM254 45q42 0 73 27.5t48.5 74.5t17.5 106q0 63 -23 96.5t-67 33.5q-39 0 -76 -18.5t-62 -39.5q-7 -38 -10.5 -69.5t-3.5 -60.5q0 -78 28 -114t75 -36z" />
    <glyph glyph-name="seven" unicode="7" horiz-adv-x="559" 
d="M89 0l370 634h-244q-18 0 -32 -6t-23 -17t-14 -28l-14 -50h-42l43 181h447l-6 -29l-391 -685h-94z" />
    <glyph glyph-name="eight" unicode="8" horiz-adv-x="559" 
d="M232 -10q-70 0 -120 22t-76 61t-26 89q0 56 25.5 93t70 63t102.5 47q-46 32 -72 75.5t-26 90.5q0 54 24.5 98t77 69.5t137.5 25.5q89 0 136.5 -41.5t47.5 -104.5q0 -50 -21.5 -86t-60.5 -62.5t-92 -48.5q56 -33 91.5 -75.5t35.5 -103.5q0 -73 -34.5 -120t-92 -69.5
t-127.5 -22.5zM235 39q43 0 78 15.5t56.5 46.5t21.5 77q0 36 -15.5 63.5t-45.5 51t-76 46.5q-45 -17 -78.5 -41.5t-51.5 -58t-18 -79.5q0 -55 34 -88t95 -33zM311 405q75 32 104 73t29 93q0 44 -25 73.5t-78 29.5q-40 0 -70.5 -16t-47.5 -45.5t-17 -70.5q0 -43 26 -75.5
t79 -61.5z" />
    <glyph glyph-name="nine" unicode="9" horiz-adv-x="559" 
d="M175 -10q-54 0 -84.5 13.5t-43 34t-12.5 42.5q0 25 15.5 41.5t43.5 16.5q1 -23 10 -46t28.5 -38t50.5 -15q51 0 88.5 35.5t67.5 103.5t56 165q-17 -17 -39 -33t-50.5 -25.5t-63.5 -9.5q-54 0 -91.5 21.5t-57.5 59t-20 85.5q0 63 21 114.5t57.5 89.5t84 58.5t101.5 20.5
q56 0 97 -23t63.5 -67t22.5 -107q0 -46 -8 -103.5t-24.5 -118t-44 -116.5t-65.5 -101t-88.5 -71.5t-114.5 -26.5zM267 330q33 1 60 13.5t48 32t36 39.5q7 26 11.5 61t4.5 57q0 73 -26 104.5t-67 31.5q-35 0 -64.5 -20t-51 -53t-33.5 -74.5t-12 -83.5q0 -35 11.5 -59.5
t33 -36.5t49.5 -12z" />
    <glyph glyph-name="colon" unicode=":" horiz-adv-x="286" 
d="M178 403q-25 0 -40.5 14.5t-15.5 40.5q0 43 23.5 62.5t48.5 19.5t40.5 -13.5t15.5 -39.5q0 -29 -10.5 -48t-26.5 -27.5t-35 -8.5zM88 -8q-25 0 -40.5 14.5t-15.5 40.5q0 43 23.5 62.5t48.5 19.5t40.5 -13.5t15.5 -39.5q0 -29 -10.5 -48t-26.5 -27.5t-35 -8.5z" />
    <glyph glyph-name="semicolon" unicode=";" horiz-adv-x="286" 
d="M-4 -104q50 11 76 32.5t26 51.5q0 14 -10 22t-22.5 16t-22.5 19.5t-10 31.5q0 29 18.5 44t43.5 15q32 0 55 -21.5t23 -60.5q0 -45 -19.5 -84t-59.5 -67t-102 -41zM178 403q-25 0 -40.5 14.5t-15.5 40.5q0 43 23.5 62.5t48.5 19.5t40.5 -13.5t15.5 -39.5q0 -29 -10.5 -48
t-26.5 -27.5t-35 -8.5z" />
    <glyph glyph-name="less" unicode="&#x3c;" horiz-adv-x="559" 
d="M494 110l-429 230v35l429 231v-67l-336 -182l336 -180v-67z" />
    <glyph glyph-name="equal" unicode="=" horiz-adv-x="559" 
d="M65 426v59h429v-59h-429zM65 229v59h429v-59h-429z" />
    <glyph glyph-name="greater" unicode="&#x3e;" horiz-adv-x="559" 
d="M65 110v67l336 180l-336 182v67l429 -231v-35z" />
    <glyph glyph-name="question" unicode="?" horiz-adv-x="500" 
d="M221 349q61 23 106.5 53t71 70.5t25.5 93.5q0 52 -27.5 80t-69.5 28t-67 -19.5t-38 -52t-19 -70.5q-35 0 -53.5 16t-18.5 44q0 35 24 65t69.5 48.5t108.5 18.5q87 0 138 -40t51 -126q0 -58 -32.5 -103t-88 -78.5t-125.5 -59.5l-28 -116h-55zM192 -8q-25 0 -40.5 14.5
t-15.5 40.5q0 43 23.5 62.5t48.5 19.5t40.5 -13.5t15.5 -39.5q0 -29 -10.5 -48t-26.5 -27.5t-35 -8.5z" />
    <glyph glyph-name="at" unicode="@" horiz-adv-x="921" 
d="M432 -142q-80 0 -147.5 22t-116.5 67t-76 112.5t-27 158.5q0 106 34 196.5t96 157.5t147.5 104.5t187.5 37.5q112 0 187 -43t113 -115.5t38 -163.5q0 -96 -27.5 -167t-72 -109.5t-96.5 -38.5q-44 0 -74 24t-44 67h-5q-21 -39 -52.5 -65t-82.5 -26q-40 0 -75 18.5
t-56 56.5t-21 96q0 40 14 88.5t44.5 92.5t79 72t117.5 28q32 0 55.5 -9t38.5 -21l40 21h24l-51 -255q-1 -7 -4 -27t-3 -40q0 -23 8.5 -38.5t22.5 -22.5t30 -7q30 0 59.5 31t49.5 90.5t20 143.5q0 88 -36 147.5t-100 90t-147 30.5q-73 0 -141 -30.5t-122 -88t-85.5 -139.5
t-31.5 -185q0 -83 23.5 -142t65 -96t95.5 -54.5t114 -17.5q55 0 101.5 12t85 31t67.5 40l23 -36q-33 -25 -76.5 -47.5t-96 -37t-114.5 -14.5zM431 130q34 0 56 18.5t34.5 47.5t17.5 59l38 203q-6 14 -22 22t-34 8q-36 0 -63.5 -18t-47 -47t-31.5 -63t-18 -67t-6 -59
q0 -52 21 -78t55 -26z" />
    <glyph glyph-name="A" unicode="A" horiz-adv-x="705" 
d="M-56 0l8 42h19q20 0 33.5 6t27 23t32.5 49l348 594h78l95 -619q3 -21 9.5 -32.5t18.5 -16t31 -4.5h13l-8 -42h-272l8 42h23q32 0 52 13.5t20 37.5q0 8 -0.5 17.5t-1.5 16.5l-48 337q-6 44 -10.5 83t-5.5 75q-10 -24 -21.5 -46.5t-25 -47t-31.5 -55.5l-197 -339
q-10 -18 -14.5 -31.5t-4.5 -24.5q0 -19 14 -27.5t42 -8.5h23l-8 -42h-247zM178 239v50h326v-50h-326z" />
    <glyph glyph-name="B" unicode="B" horiz-adv-x="654" 
d="M-21 0l8 42h13q23 0 42.5 5t34.5 20.5t21 46.5l104 490q2 6 3 15t1 13q0 26 -21.5 33t-50.5 7h-13l9 42h259q116 0 175 -38t59 -112q0 -55 -21.5 -92.5t-58.5 -60t-83 -33.5l-1 -4q54 -10 88 -46.5t34 -99.5q0 -73 -32.5 -124t-96.5 -77.5t-159 -26.5h-314zM282 50
q103 0 147 47.5t44 137.5q0 57 -34.5 85.5t-105.5 28.5h-84l-64 -299h97zM336 399q63 0 102.5 17.5t57.5 51.5t18 83q0 56 -35 84.5t-103 28.5h-60l-57 -265h77z" />
    <glyph glyph-name="C" unicode="C" horiz-adv-x="627" 
d="M328 -10q-87 0 -148.5 31.5t-94.5 91.5t-33 145q0 89 29 172.5t83.5 149.5t130.5 105t169 39q89 0 137 -30.5t48 -80.5q0 -36 -27 -57t-71 -21q0 21 -3.5 44.5t-14 44.5t-30 34t-52.5 13q-55 0 -100.5 -26.5t-81 -71t-59.5 -100.5t-36.5 -115.5t-12.5 -115.5
q0 -59 20 -101t59.5 -64t98.5 -22q71 0 115.5 28.5t69.5 62.5q6 -4 9.5 -13t3.5 -20q0 -26 -21.5 -55t-67.5 -48.5t-120 -19.5z" />
    <glyph glyph-name="D" unicode="D" horiz-adv-x="725" 
d="M-21 0l8 42h13q23 0 42.5 5t34.5 20.5t21 46.5l104 490q2 7 3 14.5t1 13.5q0 27 -22.5 33.5t-49.5 6.5h-13l9 42h280q135 0 209.5 -69.5t74.5 -202.5q0 -89 -26 -169t-77 -141.5t-125.5 -96.5t-171.5 -35h-315zM272 51q74 0 132 29.5t98.5 83t61.5 127.5t21 162
q0 110 -51.5 160.5t-138.5 50.5h-79l-131 -613h87z" />
    <glyph glyph-name="E" unicode="E" horiz-adv-x="623" 
d="M-21 0l8 42h13q22 0 41.5 4.5t34.5 18.5t21 44l104 491q2 7 2.5 13t0.5 11q0 32 -20.5 40t-49.5 8h-13l9 42h504l-32 -175h-52q1 5 2 18t2 25.5t1 14.5q0 28 -16 47.5t-55 19.5h-168l-57 -266h241l-10 -49h-241l-64 -299h193q32 0 54 11.5t36.5 30t22.5 40.5l16 43h52
l-44 -175h-536z" />
    <glyph glyph-name="F" unicode="F" horiz-adv-x="590" 
d="M-21 0l8 42h13q22 0 41.5 4.5t34 19t21.5 43.5l105 495q2 6 3 15t1 13q0 26 -20 33t-52 7h-13l9 42h504l-32 -175h-52q1 11 2 23.5t2 22.5t1 12q0 29 -16.5 48t-58.5 19h-164l-62 -289h241l-10 -49h-241l-45 -212q-1 -7 -2 -13.5t-1 -11.5q0 -31 20.5 -39t48.5 -8h33
l-8 -42h-311z" />
    <glyph glyph-name="G" unicode="G" horiz-adv-x="714" 
d="M336 -10q-141 0 -212.5 72t-71.5 196q0 97 31 181.5t88 148.5t136 100t175 36q71 0 118 -14.5t70 -39t23 -54.5q0 -26 -14.5 -43.5t-38.5 -26.5t-53 -9q0 59 -30 96.5t-96 37.5q-64 0 -118.5 -35t-95.5 -95t-63.5 -137t-22.5 -162q0 -57 19.5 -101t62 -69t111.5 -25
q29 0 60 4t53 10l33 159q2 6 3 15t1 13q0 26 -21.5 33t-50.5 7h-9l9 42h266l-9 -42h-4q-18 0 -35 -5t-30 -20t-20 -47l-38 -180q-55 -23 -108 -34.5t-118 -11.5z" />
    <glyph glyph-name="H" unicode="H" horiz-adv-x="793" 
d="M-21 0l8 42h13q23 0 42.5 5t34.5 20.5t21 46.5l104 490q2 6 3 15t1 13q0 17 -9 25.5t-25.5 11.5t-37.5 3h-13l9 42h291l-9 -42h-13q-22 0 -42 -5t-34 -20t-21 -47l-43 -202h325l44 206q2 6 3 15t1 13q0 26 -20 33t-52 7h-13l9 42h291l-9 -42h-13q-22 0 -42 -5t-34 -20
t-21 -47l-104 -490q-1 -6 -2.5 -14.5t-1.5 -13.5q0 -17 9.5 -25.5t25.5 -11.5t37 -3h13l-9 -42h-291l8 42h13q23 0 42.5 5t34.5 20.5t21 46.5l49 234h-325l-50 -238q-1 -6 -2.5 -14.5t-1.5 -13.5q0 -25 20.5 -32.5t51.5 -7.5h13l-9 -42h-291z" />
    <glyph glyph-name="I" unicode="I" horiz-adv-x="367" 
d="M-21 0l8 42h13q23 0 42.5 5t34.5 20.5t21 46.5l104 490q2 6 3 15t1 13q0 26 -20 33t-52 7h-13l9 42h291l-9 -42h-13q-22 0 -42 -5t-34 -20t-21 -47l-104 -490q-1 -6 -2.5 -14.5t-1.5 -13.5q0 -25 20.5 -32.5t51.5 -7.5h13l-9 -42h-291z" />
    <glyph glyph-name="J" unicode="J" horiz-adv-x="357" 
d="M-73 -240q-27 0 -45.5 3t-36.5 8l14 45q13 -4 31.5 -6.5t33.5 -2.5q35 0 61.5 16.5t46.5 56.5t35 111l130 613q2 6 3 15t1 13q0 26 -20 33t-52 7h-13l9 42h291l-9 -42h-13q-22 0 -42 -5t-34 -20t-21 -47l-130 -608q-17 -79 -47 -130.5t-77.5 -76.5t-115.5 -25z" />
    <glyph glyph-name="K" unicode="K" horiz-adv-x="700" 
d="M-21 0l8 42h13q23 0 42.5 5t34 20.5t21.5 46.5l104 490q2 6 3 15t1 13q0 26 -20 33t-52 7h-13l9 42h291l-9 -42h-13q-22 0 -42 -5t-34 -20t-21 -47l-61 -276l258 237q27 25 43.5 41.5t24 28t7.5 20.5q0 13 -9.5 17.5t-34.5 4.5l8 41h221l-8 -41q-17 0 -34.5 -6.5t-36 -19
t-39 -29.5t-44.5 -39l-216 -196l17 73l138 -334q11 -27 24.5 -44.5t31 -26.5t39.5 -9h3l-9 -42h-14q-45 0 -75 5t-49.5 15.5t-32.5 28.5t-23 44l-114 289l54 -16l-140 -98l-33 -158q-1 -6 -2.5 -14.5t-1.5 -13.5q0 -25 20.5 -32.5t51.5 -7.5h13l-9 -42h-291z" />
    <glyph glyph-name="L" unicode="L" horiz-adv-x="623" 
d="M-20 0l9 42h13q22 0 41.5 5t33.5 20.5t21 46.5l104 490q2 6 3 15t1 13q0 26 -20 33t-52 7h-13l9 42h291l-9 -42h-13q-22 0 -41.5 -4.5t-33.5 -19t-21 -44.5l-118 -554h197q31 0 52 13.5t34.5 34.5t20.5 42l26 75h52l-52 -215h-535z" />
    <glyph glyph-name="M" unicode="M" horiz-adv-x="938" 
d="M-20 0l9 42h13q22 0 41 4.5t33.5 18.5t20.5 44l105 495q2 6 3 15t1 13q0 26 -20 33t-52 7h-13l9 42h227l85 -570l327 570h223l-9 -42h-13q-22 0 -42 -5t-34 -20t-21 -47l-104 -490q-1 -6 -2.5 -14.5t-1.5 -13.5q0 -25 20.5 -32.5t51.5 -7.5h13l-9 -42h-266l9 42h3
q22 0 38 4.5t28 18t19 40.5l114 534l-365 -639h-54l-97 639l-112 -529q-1 -6 -2.5 -14.5t-1.5 -13.5q0 -25 20.5 -32.5t51.5 -7.5h13l-9 -42h-250z" />
    <glyph glyph-name="N" unicode="N" horiz-adv-x="763" 
d="M-20 0l9 42h13q22 0 41.5 5t33.5 20.5t21 46.5l104 490q2 6 3 15t1 13q0 26 -20 33t-52 7h-13l9 42h182l242 -552l94 442q2 6 3 15t1 13q0 26 -20 33t-52 7h-13l9 42h251l-9 -42h-13q-22 0 -41.5 -5t-34 -20t-21.5 -47l-127 -600h-65l-257 586l-101 -476
q-1 -6 -2.5 -14.5t-1.5 -13.5q0 -25 20.5 -32.5t51.5 -7.5h13l-9 -42h-250z" />
    <glyph glyph-name="O" unicode="O" horiz-adv-x="742" 
d="M314 -11q-74 0 -133.5 31.5t-94 93.5t-34.5 152q0 58 16 121t48.5 123t80.5 108.5t112 77.5t143 29q69 0 128 -29t95 -89.5t36 -156.5q0 -55 -15.5 -118t-47 -123.5t-79 -110.5t-111.5 -79.5t-144 -29.5zM320 44q58 0 103.5 29t79 76.5t55.5 105t32.5 115.5t10.5 107
q0 68 -20.5 110.5t-55.5 63t-81 20.5q-58 0 -104 -29t-79.5 -76.5t-55.5 -105t-33 -115.5t-11 -107q0 -68 21 -111t57.5 -63t80.5 -20z" />
    <glyph glyph-name="P" unicode="P" horiz-adv-x="620" 
d="M-20 0l9 42h13q22 0 41.5 5t34 20.5t20.5 46.5l104 490q2 6 3 15t1 13q0 26 -20 33t-52 7h-13l9 42h256q105 0 166.5 -49t61.5 -144q0 -38 -12 -80t-44.5 -79t-93 -60.5t-156.5 -23.5h-74l-36 -168q-1 -6 -2.5 -14.5t-1.5 -13.5q0 -25 20.5 -32.5t51.5 -7.5h33l-9 -42
h-310zM297 325q78 0 124 25t66.5 69t20.5 101q0 79 -37.5 112.5t-108.5 33.5h-46l-72 -341h53z" />
    <glyph glyph-name="Q" unicode="Q" horiz-adv-x="742" 
d="M451 -226q-54 0 -90 17t-58 46.5t-32 70t-12 86.5q-60 10 -106.5 44.5t-73.5 91.5t-27 136q0 58 16 121t48.5 123t80.5 108.5t112 77.5t143 29q69 0 128 -29t95 -89.5t36 -156.5q0 -52 -13.5 -110t-41 -115t-68.5 -106t-96 -82.5t-125 -43.5q3 -61 16 -98.5t36 -54.5
t56 -17q21 0 37.5 2.5t30.5 6.5l7 -42q-19 -6 -41.5 -11t-57.5 -5zM320 44q58 0 103.5 29t79 76.5t55.5 105t32.5 115.5t10.5 107q0 68 -20.5 110.5t-55.5 63t-81 20.5q-58 0 -104 -29t-79.5 -76.5t-55.5 -105t-33 -115.5t-11 -107q0 -68 21 -111t57.5 -63t80.5 -20z" />
    <glyph glyph-name="R" unicode="R" horiz-adv-x="664" 
d="M-20 0l9 42h13q22 0 41 4.5t33.5 18.5t20.5 44l105 495q2 6 3 15t1 13q0 26 -20 33t-52 7h-13l9 42h262q116 0 172.5 -42t56.5 -128q0 -51 -16.5 -87.5t-44 -61t-60 -39t-64.5 -21.5l72 -214q14 -40 31 -59.5t51 -19.5h8l-8 -42h-13q-57 0 -91.5 10t-53.5 35.5t-33 71.5
l-58 198h-99l-44 -205q-1 -6 -2.5 -14.5t-1.5 -13.5q0 -25 20.5 -32.5t51.5 -7.5h33l-9 -42h-310zM329 362q53 0 95 18t66.5 56.5t24.5 101.5q0 71 -32 99.5t-99 28.5h-68l-64 -304h77z" />
    <glyph glyph-name="S" unicode="S" horiz-adv-x="544" 
d="M229 -10q-73 0 -122.5 19.5t-74.5 52.5t-25 71t24 57t53 19q0 -46 16.5 -84.5t50 -62t85.5 -23.5q71 0 111.5 35t40.5 94q0 30 -9 54t-36 48.5t-81 54.5q-63 36 -102.5 83t-39.5 123q0 57 29 100.5t83.5 68t130.5 24.5q58 0 100.5 -13.5t66 -38t23.5 -56.5q0 -31 -21 -50
t-67 -19q0 28 -9 57t-32.5 49.5t-68.5 20.5q-35 0 -66 -13.5t-50.5 -41.5t-19.5 -71q0 -37 13.5 -62t41.5 -46t69 -45q50 -29 83 -58.5t49 -63t16 -73.5q0 -67 -31.5 -114t-90 -71.5t-140.5 -24.5z" />
    <glyph glyph-name="T" unicode="T" horiz-adv-x="613" 
d="M92 0l9 42h23q22 0 41.5 4.5t34 18.5t20.5 44l118 555h-96q-29 0 -48.5 -11.5t-31.5 -30t-20 -40.5l-14 -43h-52l42 175h563l-32 -175h-52q0 4 1 13t2 19.5t1.5 18.5t0.5 10q0 26 -14 45t-52 19h-97l-118 -554q-1 -6 -2.5 -14.5t-1.5 -13.5q0 -17 9.5 -25.5t25.5 -11.5
t37 -3h23l-9 -42h-311z" />
    <glyph glyph-name="U" unicode="U" horiz-adv-x="730" 
d="M323 -10q-109 0 -168 45.5t-59 127.5q0 16 3.5 44t7.5 45l74 352q2 6 3 15t1 13q0 26 -20 33t-52 7h-13l9 42h291l-8 -42h-13q-22 0 -41.5 -5t-34.5 -20t-22 -47l-75 -353q-5 -25 -8.5 -48.5t-3.5 -44.5q0 -51 38 -77.5t106 -26.5q65 0 104 20.5t60 56t30 79.5l85 398
q2 6 3 15t1 13q0 26 -20 33t-52 7h-13l9 42h251l-8 -42h-13q-22 0 -41.5 -5t-34.5 -20t-22 -47l-84 -396q-14 -66 -47 -114t-88 -74t-135 -26z" />
    <glyph glyph-name="V" unicode="V" horiz-adv-x="675" 
d="M155 619q-3 21 -9.5 32.5t-18.5 16t-32 4.5h-13l9 42h272l-8 -42h-23q-32 0 -52 -13.5t-20 -37.5q0 -8 0.5 -17.5t1.5 -16.5l40 -325q3 -22 4.5 -43.5t3 -42.5t2 -40.5t0.5 -37.5q16 36 35.5 77t45.5 87l178 318q10 18 14.5 32t4.5 24q0 19 -13.5 27.5t-42.5 8.5h-23
l8 42h247l-9 -42h-19q-19 0 -33 -6t-27.5 -22.5t-31.5 -49.5l-333 -594h-73z" />
    <glyph glyph-name="W" unicode="W" horiz-adv-x="1045" 
d="M162 619q-2 21 -8.5 32.5t-19 16t-32.5 4.5h-13l9 42h272l-9 -42h-23q-32 0 -52 -13.5t-20 -37.5q0 -8 0.5 -17.5t1.5 -16.5l24 -320q2 -22 3.5 -44.5t2 -44.5t1 -42t0.5 -38q17 39 37.5 85.5t44.5 94.5l210 429h72l33 -433q4 -49 5 -95t0 -81q11 24 22 49.5t24 54
t29 60.5l159 318q9 19 14 32.5t5 23.5q0 19 -13.5 27.5t-42.5 8.5h-24l8 42h244l-9 -42h-19q-19 0 -34 -5.5t-28 -22.5t-30 -50l-295 -594h-92l-45 554l-269 -554h-91z" />
    <glyph glyph-name="X" unicode="X" horiz-adv-x="660" 
d="M-49 0l9 42h4q20 0 37.5 6.5t36.5 22.5t44 43l252 274l-14 -75l-124 308q-7 19 -18.5 30t-26 16t-33.5 5h-13l9 42h271l-9 -42h-23q-25 0 -36 -7t-11 -21q0 -10 5 -24.5t13 -35.5l74 -188l-47 8l155 178q15 17 26.5 34.5t11.5 30.5t-12.5 19t-35.5 6h-3l9 42h219l-9 -42
h-9q-15 0 -27.5 -4t-25 -13t-27 -23t-33.5 -35l-219 -243l13 76l137 -335q9 -20 20 -32t24 -16.5t25 -4.5h13l-9 -42h-270l9 42h11q30 0 47 10t17 25q0 14 -4 27.5t-15 41.5l-82 201l47 -8l-179 -200q-17 -19 -28.5 -37.5t-11.5 -32.5t13 -20.5t46 -6.5h3l-9 -42h-237z" />
    <glyph glyph-name="Y" unicode="Y" horiz-adv-x="625" 
d="M99 0l9 42h23q22 0 41.5 4.5t34 18.5t20.5 44l39 184l-116 326q-7 19 -13.5 30.5t-16.5 17t-30 5.5h-13l9 42h270l-9 -42h-50q-20 0 -30.5 -7t-10.5 -20q0 -8 1.5 -17.5t4.5 -19t7 -21.5l45 -134q11 -31 18.5 -63t8.5 -57q11 21 31 47t47 62l93 124q13 17 20.5 31
t11.5 26.5t4 22.5q0 14 -10.5 20t-37.5 6h-37l9 42h247l-9 -42h-19q-15 0 -28.5 -8.5t-28.5 -25.5t-34 -42l-233 -305l-39 -181q-1 -6 -2.5 -14.5t-1.5 -13.5q0 -25 20.5 -32.5t51.5 -7.5h23l-9 -42h-311z" />
    <glyph glyph-name="Z" unicode="Z" horiz-adv-x="605" 
d="M-17 0l8 40l503 624h-233q-30 0 -49.5 -11.5t-31 -30t-19.5 -40.5l-14 -43h-52l42 175h494l-8 -41l-504 -623h267q31 0 50.5 11.5t31.5 30t19 40.5l14 43h52l-42 -175h-528z" />
    <glyph glyph-name="bracketleft" unicode="[" horiz-adv-x="360" 
d="M5 -128l189 888h223l-9 -42h-43q-22 0 -42 -5t-34 -20t-21 -47l-142 -664q-1 -6 -2.5 -14.5t-1.5 -13.5q0 -25 20.5 -32.5t51.5 -7.5h43l-9 -42h-223z" />
    <glyph glyph-name="backslash" unicode="\" horiz-adv-x="288" 
d="M155 -121l-42 881h58l43 -881h-59z" />
    <glyph glyph-name="bracketright" unicode="]" horiz-adv-x="360" 
d="M-47 -128l9 42h43q22 0 41.5 5t34 20.5t20.5 46.5l142 664q2 6 3 15t1 13q0 26 -20 33t-52 7h-43l9 42h223l-189 -888h-222z" />
    <glyph glyph-name="asciicircum" unicode="^" horiz-adv-x="559" 
d="M51 266l210 448h35l211 -448h-67l-162 356l-160 -356h-67z" />
    <glyph glyph-name="underscore" unicode="_" horiz-adv-x="459" 
d="M-91 -142l13 59h468l-13 -59h-468z" />
    <glyph glyph-name="grave" unicode="`" horiz-adv-x="279" 
d="M273 606q-16 15 -34 34t-35 39t-32.5 40t-27.5 37l3 10h100q8 -20 19.5 -46.5t24 -53t23.5 -47.5l-3 -13h-38z" />
    <glyph glyph-name="a" unicode="a" horiz-adv-x="579" 
d="M172 -10q-44 0 -73 24t-42.5 65.5t-13.5 93.5q0 47 12.5 98.5t37.5 100t61 88t83 63t104 23.5q24 0 45.5 -4.5t40 -12.5t31.5 -19l44 25h32l-68 -320q-2 -11 -6 -32t-6.5 -43t-2.5 -36q0 -25 8.5 -38t24.5 -13q17 0 35 7.5t37 18.5l18 -29q-14 -13 -38 -27t-51 -23.5
t-52 -9.5q-36 0 -57 22t-21 61q0 20 2.5 36.5t7.5 41.5h-6q-23 -51 -51.5 -87t-62 -55t-73.5 -19zM208 53q26 0 53.5 20t52 54t43.5 76t28 85l37 177q-11 18 -32 27t-44 9q-40 0 -72 -22.5t-56 -59.5t-40.5 -81t-24.5 -88.5t-8 -80.5q0 -62 18 -89t45 -27z" />
    <glyph glyph-name="b" unicode="b" horiz-adv-x="562" 
d="M221 -10q-37 0 -68.5 11t-48.5 25l-45 -29h-32l132 621q5 20 7 34.5t2 18.5q0 30 -20.5 38.5t-49.5 8.5h-8l9 42h189l-48 -225q-3 -14 -7.5 -32t-10 -37t-10.5 -35.5t-8 -27.5h5q24 45 50.5 77t59 49t73.5 17q59 0 93 -46t34 -135q0 -49 -13 -101t-38 -101t-61.5 -88
t-83 -62t-102.5 -23zM217 35q40 0 72 23t56 61t40 82.5t24 87.5t8 77q0 64 -18.5 90.5t-44.5 26.5t-50 -16.5t-44.5 -43t-36.5 -56t-26.5 -55.5t-14.5 -43l-43 -198q13 -16 33 -26t45 -10z" />
    <glyph glyph-name="c" unicode="c" horiz-adv-x="487" 
d="M238 -10q-53 0 -97.5 23t-71 68.5t-26.5 115.5q0 44 12.5 92.5t36.5 94t60 82.5t83.5 58.5t105.5 21.5q50 0 82.5 -14t48 -35.5t15.5 -46.5q0 -19 -10.5 -35t-30 -25.5t-48.5 -9.5q0 48 -18.5 83t-58.5 35q-32 0 -59 -21.5t-48.5 -56t-36 -76t-22.5 -82.5t-8 -73
q0 -64 28 -100t82 -36q53 0 88 23t56 49q5 -3 7.5 -10t2.5 -15q0 -22 -18.5 -47.5t-56.5 -44t-98 -18.5z" />
    <glyph glyph-name="d" unicode="d" horiz-adv-x="579" 
d="M172 -10q-44 0 -73 24t-42.5 65.5t-13.5 93.5q0 47 12.5 98.5t37.5 100t61 88t83 63t104 23.5q29 0 54.5 -7t44.5 -18q2 13 5 30.5t5 26.5l10 48q3 14 5 26.5t2 18.5q0 30 -20.5 38.5t-49.5 8.5h-8l9 42h184l-116 -545q-2 -11 -6 -32t-6.5 -43t-2.5 -36q0 -25 8.5 -38
t24.5 -13q17 0 35 7.5t37 18.5l18 -29q-14 -13 -38 -27t-51 -23.5t-52 -9.5q-36 0 -57 22t-21 61q0 13 2.5 33t7.5 45h-6q-34 -77 -81 -119t-106 -42zM208 53q26 0 53.5 20t52 54t43.5 76t28 85l37 177q-11 18 -32 27t-44 9q-40 0 -72 -22.5t-56 -59.5t-40.5 -81
t-24.5 -88.5t-8 -80.5q0 -62 18 -89t45 -27z" />
    <glyph glyph-name="e" unicode="e" horiz-adv-x="493" 
d="M238 -10q-53 0 -97.5 23t-71 68.5t-26.5 115.5q0 44 12.5 92.5t36.5 94t60 82.5t83.5 58.5t105.5 21.5q63 0 98 -30.5t35 -84.5q0 -52 -37.5 -98t-103 -74t-149.5 -28h-35q-1 -11 -1.5 -21.5t-0.5 -20.5q0 -64 28 -100t82 -36q48 0 85.5 23t58.5 49q10 -7 10 -25
q0 -22 -18.5 -47.5t-56.5 -44t-98 -18.5zM168 277q59 0 104.5 19.5t72 54t26.5 80.5q0 34 -15 50.5t-43 16.5t-53 -19.5t-45 -52t-34.5 -71.5t-22.5 -78h10z" />
    <glyph glyph-name="f" unicode="f" horiz-adv-x="318" 
d="M-82 -240q-15 0 -31.5 2.5t-26.5 5.5l9 46q8 -2 21.5 -4.5t24.5 -2.5q33 0 55.5 18.5t39.5 59t31 106.5l105 488h-91l6 36l96 21l11 55q17 86 62.5 132.5t127.5 46.5q64 0 96.5 -20.5t32.5 -53.5t-21.5 -49t-61.5 -16q0 38 -9.5 65.5t-41.5 27.5q-37 0 -57 -30.5
t-32 -93.5l-13 -64h111l-11 -57h-112l-104 -487q-14 -67 -34.5 -111.5t-47.5 -71t-60.5 -38t-74.5 -11.5z" />
    <glyph glyph-name="g" unicode="g" horiz-adv-x="556" 
d="M183 -240q-73 0 -121.5 15t-72.5 44t-24 71t23.5 71t61 47t78.5 26q-19 9 -33.5 27t-14.5 42q0 32 21 53.5t74 48.5q-33 15 -51.5 45t-18.5 73q0 35 14 74t42.5 73t72.5 55t103 21q30 0 56.5 -7.5t46.5 -24.5q20 29 47 50t61 21q25 0 37.5 -13t12.5 -33q0 -14 -5.5 -28.5
t-18 -24t-35.5 -9.5q0 15 -7 25.5t-21 10.5t-26 -7.5t-23 -15.5q11 -15 16.5 -34.5t5.5 -42.5q0 -34 -13.5 -72.5t-41.5 -73t-71.5 -56.5t-102.5 -22h-10.5t-11 0.5t-10.5 1.5q-22 -10 -46.5 -25t-24.5 -38q0 -16 14.5 -22t36.5 -8l96 -10q74 -7 114.5 -39t40.5 -92
q0 -45 -17 -81.5t-51 -62t-84.5 -39.5t-118.5 -14zM187 -191q66 0 105.5 16.5t57 44t17.5 59.5t-22 51t-71 23l-97 9q-34 -4 -64 -17.5t-48.5 -38t-18.5 -60.5q0 -25 13 -45t44 -31t84 -11zM266 237q34 0 58 18.5t39.5 47t22.5 59.5t7 56q0 43 -18.5 62.5t-50.5 19.5
q-34 0 -58 -18.5t-39.5 -47t-22.5 -59.5t-7 -56q0 -43 19 -62.5t50 -19.5z" />
    <glyph glyph-name="h" unicode="h" horiz-adv-x="599" 
d="M460 -10q-44 0 -67.5 28.5t-23.5 71.5q0 24 4.5 56.5t14.5 78.5l17 78q3 14 8 35t9 44t4 40q0 20 -8.5 39.5t-37.5 19.5q-31 0 -62 -23t-57.5 -59t-45 -74.5t-24.5 -68.5l-54 -256h-93l130 618q5 20 7 34.5t2 18.5q0 20 -9.5 30t-25.5 13.5t-35 3.5h-8l9 42h184l-39 -184
q-11 -53 -23 -100t-17 -66h11q41 66 85 100.5t100 34.5q40 0 63 -15.5t33.5 -40.5t10.5 -55q0 -25 -6.5 -54.5t-11.5 -55.5l-26 -118q-6 -28 -9.5 -55t-3.5 -50t9.5 -35.5t25.5 -12.5t31.5 6t32.5 17l18 -29q-24 -20 -53.5 -38.5t-68.5 -18.5z" />
    <glyph glyph-name="i" unicode="i" horiz-adv-x="304" 
d="M155 -10q-40 0 -61.5 28t-21.5 67q0 21 4 50t9 58.5t9 48.5l39 184q2 8 2.5 14.5t0.5 11.5q0 27 -16.5 34.5t-44.5 7.5h-13l9 42h179l-68 -321q-2 -11 -6 -32t-6.5 -43t-2.5 -36q0 -25 8.5 -38t24.5 -13q17 0 35 7.5t37 18.5l18 -29q-22 -19 -59.5 -39.5t-75.5 -20.5z
M224 636q-25 0 -40.5 13.5t-15.5 41.5q0 21 7.5 36.5t21 24.5t31.5 9q24 0 40 -13.5t16 -41.5q0 -26 -9 -41.5t-22.5 -22t-28.5 -6.5z" />
    <glyph glyph-name="j" unicode="j" horiz-adv-x="291" 
d="M-82 -240q-15 0 -31.5 2.5t-26.5 5.5l9 46q8 -2 21.5 -4.5t24.5 -2.5q33 0 56 18.5t40 59.5t31 107l92 434q2 8 2.5 14.5t0.5 11.5q0 27 -16.5 34.5t-44.5 7.5h-13l9 42h179l-115 -544q-14 -67 -35 -111.5t-48 -71t-60.5 -38t-74.5 -11.5zM225 636q-25 0 -40.5 13.5
t-15.5 41.5q0 21 7.5 36.5t21 24.5t31.5 9q24 0 40 -13.5t16 -41.5q0 -39 -19 -54.5t-41 -15.5z" />
    <glyph glyph-name="k" unicode="k" horiz-adv-x="569" 
d="M515 -7q-54 1 -88.5 10t-55.5 31t-37 62l-82 202l55 -18l-129 -82l-41 -198h-93l130 618q5 20 7 34.5t2 18.5q0 30 -20.5 38.5t-49.5 8.5h-8l9 42h184l-39 -184q-6 -27 -15.5 -71t-21 -94t-22.5 -94t-19 -70l159 138q27 24 43 40t23 28t7 21t-4 13t-13.5 5.5t-26.5 1.5
l9 42h221l-9 -42q-23 0 -48 -11t-52.5 -31.5t-60.5 -50.5l-124 -115l14 72l110 -239q11 -24 24.5 -43t32.5 -30t45 -11l-9 -42h-7z" />
    <glyph glyph-name="l" unicode="l" horiz-adv-x="304" 
d="M156 -10q-40 0 -61.5 28t-21.5 67q0 21 4 50t9 58.5t9 48.5l82 384q3 14 4.5 27.5t1.5 17.5q0 30 -20.5 38.5t-49.5 8.5h-12l9 42h189l-116 -545q-2 -11 -6 -32t-7 -43t-3 -36q0 -25 8.5 -38t24.5 -13q17 0 35 7.5t37 18.5l18 -29q-22 -19 -59 -39.5t-75 -20.5z" />
    <glyph glyph-name="m" unicode="m" horiz-adv-x="896" 
d="M757 -10q-29 0 -49.5 13t-31 35.5t-10.5 51.5q0 24 4.5 56.5t14.5 78.5l17 78q3 14 8 35t9 44t4 40q0 20 -8.5 39.5t-37.5 19.5q-23 0 -46 -13t-44 -34.5t-39.5 -48t-32 -54.5t-21.5 -53l-16 -72q-3 -14 -8 -43t-9.5 -62.5t-8 -61.5t-3.5 -39h-95q0 12 3.5 39.5t8.5 62
t11 67.5t11 56l17 78q3 14 8 35t9 44t4 40q0 20 -8.5 39.5t-37.5 19.5q-31 0 -62 -23t-57.5 -59t-45 -74.5t-24.5 -68.5l-54 -256h-93l84 402q3 14 4.5 27.5t1.5 17.5q0 30 -20.5 38.5t-49.5 8.5h-8l9 42h185l-27 -126h10q41 66 83.5 100.5t98.5 34.5q40 0 63 -15.5
t33.5 -40.5t10.5 -55q0 -6 -0.5 -12t-1.5 -12h10q41 66 83.5 100.5t98.5 34.5q40 0 63 -15.5t33.5 -40.5t10.5 -55q0 -25 -6.5 -54.5t-11.5 -55.5l-26 -118q-6 -28 -9.5 -55t-3.5 -50t9.5 -35.5t25.5 -12.5t31.5 6t32.5 17l18 -29q-24 -20 -53.5 -38.5t-68.5 -18.5z" />
    <glyph glyph-name="n" unicode="n" horiz-adv-x="599" 
d="M460 -10q-44 0 -67.5 28.5t-23.5 71.5q0 24 4.5 56.5t14.5 78.5l17 78q3 14 8 35t9 44t4 40q0 20 -8.5 39.5t-37.5 19.5q-31 0 -62 -23t-57.5 -59t-45 -74.5t-24.5 -68.5l-54 -256h-93l84 402q3 14 4.5 27.5t1.5 17.5q0 30 -20.5 38.5t-49.5 8.5h-8l9 42h185l-27 -126h10
q41 66 83.5 100.5t98.5 34.5q40 0 63 -15.5t33.5 -40.5t10.5 -55q0 -25 -6.5 -54.5t-11.5 -55.5l-26 -118q-6 -28 -9.5 -55t-3.5 -50t9.5 -35.5t25.5 -12.5t31.5 6t32.5 17l18 -29q-24 -20 -53.5 -38.5t-68.5 -18.5z" />
    <glyph glyph-name="o" unicode="o" horiz-adv-x="574" 
d="M235 -10q-85 0 -138.5 51.5t-53.5 155.5q0 44 11.5 92.5t35 94t59 82.5t83.5 58.5t109 21.5q53 0 96 -21t68.5 -66.5t25.5 -119.5q0 -43 -11 -90.5t-34 -93.5t-58 -83t-83 -59.5t-110 -22.5zM246 41q39 0 69 21t51 55.5t34.5 76t20 84t6.5 78.5q0 75 -26 107t-72 32
q-39 0 -69 -21t-51.5 -55.5t-35 -76.5t-20 -84.5t-6.5 -78.5q0 -50 12.5 -80.5t34.5 -44t52 -13.5z" />
    <glyph glyph-name="p" unicode="p" horiz-adv-x="577" 
d="M126 394q5 20 7 34.5t2 18.5q0 30 -20.5 38.5t-49.5 8.5h-8l9 42h177l-24 -133h5q20 39 45.5 71.5t59.5 52t78 19.5q61 0 94 -46.5t33 -134.5q0 -43 -12 -93.5t-35.5 -100.5t-59 -91t-83.5 -65.5t-108 -24.5q-29 0 -54 6.5t-44 16.5q-1 -8 -3 -22t-5 -26l-14 -61
q-1 -6 -5 -25.5t-4 -30.5q0 -30 21 -38t49 -8h13l-9 -42h-188zM233 35q38 0 69.5 22t55.5 59t40.5 80.5t25 88t8.5 81.5q0 29 -5.5 56t-19 44t-38.5 17q-23 0 -46 -14.5t-43.5 -38.5t-37.5 -53.5t-29 -59.5t-18 -56l-41 -190q9 -11 30 -23.5t49 -12.5z" />
    <glyph glyph-name="q" unicode="q" horiz-adv-x="560" 
d="M321 -40q3 17 9.5 45t14 58.5t13 54.5t7.5 33h-6q-19 -41 -45 -78t-60.5 -60t-81.5 -23q-58 0 -93.5 46.5t-35.5 136.5q0 47 12.5 98.5t37.5 100t61 88t83 63t104 23.5q27 0 59 -7.5t52 -19.5l50 27h35l-138 -652q-3 -14 -4.5 -27t-1.5 -18q0 -30 20.5 -38.5t48.5 -8.5h8
l-9 -42h-182zM208 53q27 0 54.5 21t52 55.5t43 76t27.5 82.5l37 177q-7 14 -27.5 25t-48.5 11q-41 0 -73 -23.5t-56.5 -62t-40 -83t-23.5 -88t-8 -76.5q0 -62 18 -88.5t45 -26.5z" />
    <glyph glyph-name="r" unicode="r" horiz-adv-x="468" 
d="M128 402q3 14 4.5 27.5t1.5 17.5q0 30 -25.5 38.5t-54.5 8.5h-8l9 42h177l-21 -144h10q19 41 41 76t53 56.5t76 21.5q42 0 62 -19.5t20 -49.5q0 -35 -19.5 -55.5t-63.5 -20.5q0 36 -8 57.5t-32 21.5q-26 0 -52.5 -27t-50 -71.5t-42.5 -97t-30 -102.5l-38 -182h-93z" />
    <glyph glyph-name="s" unicode="s" horiz-adv-x="464" 
d="M190 -10q-50 0 -87 13.5t-57.5 39t-20.5 60.5q0 27 11 41.5t25.5 19.5t26.5 5q0 -35 11 -65t36.5 -48t66.5 -18q33 0 57.5 10.5t37.5 31t13 51.5q0 35 -23 60t-78 50q-55 26 -88 60.5t-33 94.5q0 43 23.5 76.5t67 53t102.5 19.5q55 0 89 -14t50.5 -36t16.5 -45
q0 -31 -20 -46.5t-55 -15.5q0 27 -8.5 52.5t-28 42t-53.5 16.5q-45 0 -71 -24t-26 -62q0 -34 25 -56.5t77 -46.5q55 -25 87.5 -61t32.5 -94q0 -48 -25 -85.5t-71.5 -58.5t-110.5 -21z" />
    <glyph glyph-name="t" unicode="t" horiz-adv-x="368" 
d="M183 -10q-36 0 -60 13t-36.5 39t-12.5 65q0 18 3 41.5t7 42.5l61 288h-76l9 40q21 0 42 7.5t41 24t37.5 43t32.5 65.5h46l-26 -123h121l-12 -57h-121l-61 -285q-5 -25 -8.5 -47.5t-3.5 -38.5q0 -29 14 -42t39 -13q21 0 43.5 6.5t38.5 15.5l17 -37q-30 -21 -63.5 -34.5
t-71.5 -13.5z" />
    <glyph glyph-name="u" unicode="u" horiz-adv-x="599" 
d="M456 -10q-26 0 -45 13t-29 34.5t-10 47.5q0 11 1.5 27t3.5 32h-8q-28 -45 -55 -79.5t-60 -54t-78 -19.5q-39 0 -62.5 15.5t-34 41t-10.5 54.5q0 25 6 55t12 55l39 175q3 14 6 35t3 25q0 30 -20.5 38.5t-49.5 8.5h-8l9 42h186l-66 -299q-6 -27 -13 -63t-7 -58
q0 -25 10 -43t39 -18q27 0 56 20.5t56 54.5t47 75t29 82l52 249h97l-69 -321q-2 -11 -6 -32t-6.5 -43t-2.5 -36q0 -25 8.5 -38t24.5 -13q17 0 31 5.5t33 16.5l18 -29q-22 -19 -55.5 -37.5t-71.5 -18.5z" />
    <glyph glyph-name="v" unicode="v" horiz-adv-x="538" 
d="M96 441q-3 21 -12 32.5t-23 16t-34 4.5h-10l8 42h150l46 -296q5 -33 9.5 -68t8.5 -63.5t5 -45.5h3q36 35 69.5 78t59 87.5t40.5 85.5t15 71q0 35 -17 55.5t-45 20.5q0 41 22 60.5t46 19.5q32 0 50 -21.5t18 -71.5q0 -47 -17 -98t-44.5 -101t-60.5 -96.5t-66.5 -85.5
t-60.5 -66l-90 -10z" />
    <glyph glyph-name="w" unicode="w" horiz-adv-x="819" 
d="M449 -10q0 37 -1.5 84.5t-3.5 98.5t-4 99t-3.5 87.5t-2.5 63.5q-5 -14 -20.5 -46.5t-36.5 -75.5t-45 -89.5t-46 -89.5t-39 -74.5t-24 -44.5l-103 -12l-7 431q0 31 -8.5 46t-23 20.5t-34.5 5.5h-10l14 42h150q1 -53 2 -111.5t1.5 -118.5t0.5 -117.5v-108.5h4
q24 41 52.5 95t59 114t59 121.5t51.5 116.5l83 4q3 -30 6 -77.5t5.5 -103t4.5 -109.5t3.5 -98.5t1.5 -69.5h7q34 41 67 89t60.5 96.5t44 92t16.5 76.5q0 25 -11.5 39t-31.5 21q3 24 18.5 41.5t40.5 17.5t39 -18.5t14 -56.5q0 -45 -18 -95.5t-51.5 -108.5t-79.5 -124.5
t-102 -141.5z" />
    <glyph glyph-name="x" unicode="x" horiz-adv-x="546" 
d="M-20 0l11 42h13q19 0 33.5 5t31 20t39.5 44l128 155l-65 156q-12 29 -21 44.5t-20 21.5t-31 6h-13l8 42h133l76 -202l133 202h123l-11 -42h-13q-19 0 -34 -6t-30.5 -21.5t-39.5 -44.5l-105 -135l69 -173q11 -29 19.5 -44.5t21 -21.5t31.5 -6h13l-8 -42h-134l-81 220
l-150 -220h-127z" />
    <glyph glyph-name="y" unicode="y" horiz-adv-x="528" 
d="M-68 -240q-25 0 -50 5t-44 13l15 50q12 -4 29.5 -7.5t48.5 -3.5q49 0 90.5 17.5t76.5 45t63.5 59t50.5 60.5l-132 442q-6 20 -14.5 31.5t-21.5 16.5t-33 5h-10l8 42h146l78 -270q8 -26 17 -62t16.5 -69t8.5 -50h3q38 58 68.5 117t48.5 114.5t18 100.5q0 14 -4.5 26.5
t-15 20t-29.5 7.5q0 36 20.5 55t44.5 19q32 0 50 -21t18 -63q0 -52 -21.5 -114.5t-61 -135t-93.5 -154.5q-49 -76 -90.5 -132t-83.5 -92.5t-93.5 -54.5t-121.5 -18z" />
    <glyph glyph-name="z" unicode="z" horiz-adv-x="511" 
d="M-1 0l8 40l340 439h-127q-26 0 -42.5 -9t-27.5 -27t-24 -45l-2 -4h-42l40 142h350l-8 -41l-341 -438h178q23 0 38.5 11.5t26.5 30.5t20 40l10 23h42l-39 -162h-400z" />
    <glyph glyph-name="braceleft" unicode="{" horiz-adv-x="428" 
d="M232 -128q-58 0 -88.5 26t-30.5 75q0 10 1.5 20.5t3.5 21.5l37 175q2 9 3 17t1 15q0 41 -28.5 57t-70.5 17l9 42q33 2 61.5 11t49.5 31t29 63l37 173q10 44 26 76.5t51 50t98 17.5h66l-9 -43h-30q-29 0 -50 -12t-34 -35.5t-21 -57.5l-37 -172q-10 -49 -44 -80.5
t-93 -41.5v-4q44 -7 66.5 -31t22.5 -60q0 -7 -1 -15t-3 -16l-37 -172q-2 -12 -3.5 -22.5t-1.5 -19.5q0 -31 15.5 -47t49.5 -16h30l-9 -43h-66z" />
    <glyph glyph-name="bar" unicode="|" horiz-adv-x="559" 
d="M249 -240v1000h60v-1000h-60z" />
    <glyph glyph-name="braceright" unicode="}" horiz-adv-x="428" 
d="M-50 -128l9 43h30q29 0 50 12t34.5 35.5t20.5 57.5l37 173q11 50 44.5 81.5t92.5 41.5v4q-44 8 -66.5 31t-22.5 59q0 8 1.5 15.5t2.5 15.5l37 171q2 12 3.5 22.5t1.5 19.5q0 31 -15.5 47t-49.5 16h-30l9 43h66q59 0 89 -26t30 -75q0 -10 -1.5 -20.5t-3.5 -21.5l-37 -174
q-2 -9 -3 -16.5t-1 -15.5q0 -41 28.5 -56t70.5 -17l-9 -42q-49 -2 -88 -23t-52 -83l-37 -174q-9 -44 -26 -76.5t-51 -50t-98 -17.5h-66z" />
    <glyph glyph-name="asciitilde" unicode="~" horiz-adv-x="559" 
d="M54 269q3 29 9 59.5t19 57t35.5 42.5t58.5 16q23 0 42.5 -7.5t39.5 -22t43 -36.5q21 -19 41 -34.5t41 -15.5q19 0 30.5 13.5t19 39.5t11.5 63h60q-3 -26 -9.5 -56t-19.5 -57t-35.5 -44.5t-57.5 -17.5q-23 0 -43.5 8t-39 22.5t-37.5 32.5q-15 15 -29 27t-27.5 19t-29.5 7
q-29 0 -43.5 -28.5t-19.5 -87.5h-59z" />
    <glyph glyph-name="uni00A0" unicode="&#xa0;" horiz-adv-x="260" 
 />
    <glyph glyph-name="exclamdown" unicode="&#xa1;" horiz-adv-x="333" 
d="M11 -179l144 513h46l-74 -513h-116zM201 405q-26 0 -44 15t-18 46q0 29 10 45.5t25 24t31 7.5q28 0 45 -15t17 -46q0 -34 -18 -55.5t-48 -21.5z" />
    <glyph glyph-name="cent" unicode="&#xa2;" horiz-adv-x="559" 
d="M242 89q-45 7 -80.5 32t-56.5 68t-21 104q0 43 11.5 89t33.5 90t55 80.5t76.5 60t97.5 28.5l16 73h50l-16 -74q62 -5 91 -33t29 -61q0 -19 -10.5 -35t-30 -25.5t-48.5 -9.5q0 36 -10.5 65.5t-32.5 42.5l-92 -435q34 1 60 12t45.5 27t32.5 33q5 -3 7.5 -10t2.5 -15
q0 -21 -17 -46t-52.5 -43.5t-91.5 -20.5l-18 -86h-50zM348 592q-30 -5 -55 -28t-44.5 -57.5t-33 -74t-20.5 -78t-7 -69.5q0 -51 17 -84t51 -45z" />
    <glyph glyph-name="sterling" unicode="&#xa3;" horiz-adv-x="559" 
d="M336 -10q-33 0 -62.5 11t-60 22.5t-66.5 11.5q-34 0 -60 -7t-56 -22l-14 -7l-18 40l35 20q34 20 67 49.5t55 71t22 95.5q0 16 -2 31.5t-5 30.5h-111l11 50h92q-4 20 -8.5 47.5t-4.5 53.5q0 75 30.5 128t85.5 80.5t128 27.5q54 0 91 -13t56 -35.5t19 -49.5
q0 -38 -21.5 -58.5t-61.5 -20.5q0 63 -26.5 95t-71.5 32t-76.5 -21t-48 -61.5t-16.5 -97.5q0 -33 5 -60t9 -47h170l-11 -50h-152q2 -13 2.5 -26t0.5 -27q0 -44 -15 -78t-43 -61t-68 -51l1 -4q23 10 42 14t35 4q27 0 57.5 -9.5t59 -19t48.5 -9.5q35 0 56 11.5t44 33.5l27 -33
q-15 -16 -42.5 -38t-60.5 -38t-67 -16z" />
    <glyph glyph-name="currency" unicode="&#xa4;" horiz-adv-x="559" 
d="M114 143l-42 42l65 66q-16 23 -24.5 50t-8.5 57t9 57.5t25 49.5l-66 66l42 42l65 -66q23 17 50 26t58 9q29 0 56.5 -9t49.5 -26l67 67l42 -43l-66 -66q17 -22 26 -49.5t9 -57.5t-9 -57t-26 -50l66 -66l-41 -42l-67 66q-22 -16 -49.5 -25t-57.5 -9t-57 9t-50 25zM287 230
q36 0 65 17.5t46 46.5t17 64q0 36 -17 65.5t-46 46.5t-65 17q-35 0 -64 -17t-46 -46.5t-17 -65.5q0 -35 17 -64t46 -46.5t64 -17.5z" />
    <glyph glyph-name="yen" unicode="&#xa5;" horiz-adv-x="559" 
d="M69 0l9 42h23q22 0 41.5 4.5t34 18.5t20.5 44l14 68h-140l10 47h140l15 70h-140l10 47h121l-77 278q-8 29 -19 41t-40 12h-4l9 42h234l-9 -42h-4q-34 0 -50.5 -6.5t-16.5 -27.5q0 -12 4.5 -32.5t7.5 -31.5l26 -107q8 -31 14 -68t7 -54q7 12 23 37t29 45l83 122
q16 23 25.5 41t14.5 31.5t5 21.5q0 15 -12 22t-41 7h-4l9 42h204l-9 -42h-9q-17 0 -29.5 -6.5t-26.5 -23.5t-36 -48l-176 -253h124l-10 -47h-140l-15 -70h140l-10 -47h-140l-14 -67q-1 -6 -2.5 -14.5t-1.5 -13.5q0 -25 20.5 -32.5t51.5 -7.5h23l-9 -42h-307z" />
    <glyph glyph-name="brokenbar" unicode="&#xa6;" horiz-adv-x="559" 
d="M249 360v400h60v-400h-60zM249 -240v400h60v-400h-60z" />
    <glyph glyph-name="section" unicode="&#xa7;" horiz-adv-x="544" 
d="M190 -115q-50 0 -88.5 13.5t-60 39t-21.5 60.5q0 27 11 41t25.5 19.5t26.5 5.5q0 -52 30 -91t92 -39t99.5 33t37.5 85q0 19 -8.5 37.5t-39 43t-95.5 59.5q-42 24 -66.5 48.5t-34.5 52.5t-10 60q0 49 27 82t61 54q-9 14 -16.5 37t-7.5 53q0 58 28.5 98t77 61.5t107.5 21.5
q49 0 84 -14t54.5 -36.5t19.5 -49.5q0 -40 -20 -54.5t-61 -14.5q0 35 -10 62.5t-31 43.5t-54 16q-28 0 -55 -11t-45 -33.5t-18 -57.5q0 -30 12 -51.5t40.5 -41.5t79.5 -48q44 -23 70.5 -47.5t39 -50.5t12.5 -57q0 -46 -25.5 -85t-61.5 -66q7 -13 13.5 -30.5t6.5 -43.5
q0 -56 -26.5 -103t-77 -74.5t-122.5 -27.5zM371 196q15 17 26 35t11 41q0 17 -9 35.5t-31.5 38.5t-62.5 42q-32 17 -58.5 35t-48.5 38q-18 -13 -29 -30t-11 -41q0 -36 25 -63.5t91 -63.5q27 -15 53 -32.5t44 -34.5z" />
    <glyph glyph-name="dieresis" unicode="&#xa8;" horiz-adv-x="577" 
d="M441 632q-22 0 -36 12.5t-14 37.5q0 29 14.5 46t39.5 17q22 0 36 -12t14 -38q0 -35 -17 -49t-37 -14zM251 632q-22 0 -36 12.5t-14 37.5q0 29 14.5 46t39.5 17q22 0 36 -12t14 -38q0 -35 -17 -49t-37 -14z" />
    <glyph glyph-name="copyright" unicode="&#xa9;" horiz-adv-x="845" 
d="M422 -10q-80 0 -147 26t-116.5 74t-76.5 116t-27 152q0 83 27 150.5t76 116t116.5 74.5t147.5 26t147.5 -26t117 -74t76.5 -116t27 -152t-27 -151.5t-76.5 -115.5t-117 -74t-147.5 -26zM428 129q-68 0 -114 28.5t-69 80t-23 120.5q0 67 25 118t74 80t121 29q48 0 79 -9.5
t46.5 -26t15.5 -37.5q0 -22 -20.5 -35t-49.5 -13q0 19 -7 37t-23 29.5t-43 11.5q-73 0 -103.5 -47.5t-30.5 -136.5q0 -59 15.5 -100.5t46 -63t73.5 -21.5q47 0 80 22.5t46 47.5q7 -4 11 -12.5t4 -19.5q0 -19 -17 -38t-51.5 -31.5t-85.5 -12.5zM423 45q70 0 126.5 22t97.5 63
t63 99t22 129q0 72 -22.5 129.5t-63.5 98t-97.5 62.5t-125.5 22q-91 0 -161 -38t-109.5 -108t-39.5 -167q0 -73 23 -131t64.5 -98.5t98.5 -61.5t124 -21z" />
    <glyph glyph-name="ordfeminine" unicode="&#xaa;" horiz-adv-x="393" 
d="M148 381q-46 0 -67 32t-21 78q0 35 13.5 74.5t40 73.5t64.5 55.5t87 21.5q25 0 46 -6t34 -15l31 14h22l-47 -185q-2 -10 -6 -32t-4 -33q0 -15 5 -22.5t15 -7.5t21 4.5t22 11.5l11 -19q-13 -13 -38 -29t-49 -16q-25 0 -40 13.5t-15 36.5q0 12 1.5 25.5t5.5 28.5h-4
q-23 -46 -55 -75t-73 -29zM181 428q20 0 40.5 22t36.5 53t23 57l26 99q-7 10 -18.5 15t-25.5 5q-28 0 -50 -19t-36.5 -48.5t-22 -61t-7.5 -56.5q0 -35 10 -50.5t24 -15.5z" />
    <glyph glyph-name="guillemotleft" unicode="&#xab;" horiz-adv-x="514" 
d="M358 80l-116 174l7 32l190 174h50l-144 -195l63 -185h-50zM177 80l-116 174l7 32l190 174h50l-144 -195l63 -185h-50z" />
    <glyph glyph-name="logicalnot" unicode="&#xac;" horiz-adv-x="559" 
d="M434 123v205h-369v59h429v-264h-60z" />
    <glyph glyph-name="uni00AD" unicode="&#xad;" horiz-adv-x="310" 
d="M14 235l16 75h260l-16 -75h-260z" />
    <glyph glyph-name="registered" unicode="&#xae;" horiz-adv-x="845" 
d="M230 141v34h13q20 0 34.5 6t14.5 29v293q0 23 -14.5 29t-34.5 6h-13v35h183q86 0 129 -30t43 -87q0 -33 -12.5 -55t-33.5 -35.5t-45 -21.5l89 -142q11 -16 21 -21.5t35 -5.5v-34h-109l-110 186h-50v-117q0 -23 15 -29t34 -6h14v-34h-203zM422 -10q-80 0 -147 26
t-116.5 74t-76.5 116t-27 152q0 83 27 150.5t76 116t116.5 74.5t147.5 26t147.5 -26t117 -74t76.5 -116t27 -152t-27 -151.5t-76.5 -115.5t-117 -74t-147.5 -26zM412 368q53 0 73.5 20t20.5 63q0 46 -22 63t-75 17h-39v-163h42zM423 45q70 0 126.5 22t97.5 63t63 99t22 129
q0 72 -22.5 129.5t-63.5 98t-97.5 62.5t-125.5 22q-91 0 -161 -38t-109.5 -108t-39.5 -167q0 -73 23 -131t64.5 -98.5t98.5 -61.5t124 -21z" />
    <glyph glyph-name="overscore" unicode="&#xaf;" horiz-adv-x="459" 
d="M101 760l13 59h468l-13 -59h-468z" />
    <glyph glyph-name="degree" unicode="&#xb0;" horiz-adv-x="400" 
d="M274 423q-67 0 -109 42t-42 109q0 45 19 79t53 53.5t79 19.5t79.5 -19.5t53.5 -53.5t19 -79t-19 -79t-53.5 -53t-79.5 -19zM275 482q41 0 63.5 25t22.5 67q0 43 -23 68t-63 25t-63 -25t-23 -68q0 -42 23 -67t63 -25z" />
    <glyph glyph-name="plusminus" unicode="&#xb1;" horiz-adv-x="559" 
d="M65 0v59h429v-59h-429zM249 143v185h-184v59h184v185h60v-185h185v-59h-185v-185h-60z" />
    <glyph glyph-name="uni00B2" unicode="&#xb2;" horiz-adv-x="400" 
d="M57 386l5 30l155 128q31 26 52 48.5t33 44t17.5 43.5t5.5 46q0 22 -11 40t-39 18q-22 0 -39 -13.5t-27.5 -35t-14.5 -46.5q-30 0 -47 13.5t-17 34.5q0 25 18 44.5t52.5 31t81.5 11.5q60 0 95.5 -26t35.5 -69q0 -29 -12 -56.5t-42 -59.5t-84 -75l-120 -95h138q16 0 26 5.5
t16.5 15t10.5 20.5l8 21h34l-28 -119h-303z" />
    <glyph glyph-name="uni00B3" unicode="&#xb3;" horiz-adv-x="400" 
d="M210 380q-63 0 -97 21t-34 56q0 27 16.5 40.5t40.5 13.5q0 -19 8 -39t26 -33.5t47 -13.5q27 0 48.5 9t34 28.5t12.5 51.5q0 30 -22 52.5t-69 22.5h-33l8 41h33q43 0 77 28t34 79q0 20 -11 33.5t-35 13.5q-38 0 -57.5 -26t-26.5 -61q-30 0 -48 9t-18 33t18.5 43t52.5 30.5
t82 11.5q69 0 102 -26.5t33 -64.5q0 -52 -36.5 -79.5t-91.5 -38.5l-1 -5q46 -5 73.5 -28t27.5 -64q0 -45 -24.5 -75.5t-68.5 -46.5t-101 -16z" />
    <glyph glyph-name="acute" unicode="&#xb4;" horiz-adv-x="263" 
d="M112 606l3 13q18 20 37 45t37 51.5t33 50.5h107l-3 -10q-12 -15 -32 -35t-44.5 -41.5t-49.5 -40.5t-48 -33h-40z" />
    <glyph glyph-name="uni00B5" unicode="&#xb5;" horiz-adv-x="604" 
d="M63 -240q-28 0 -46.5 16t-18.5 56t14 93.5t35 126.5t42 173l66 311h94l-66 -313l-5 -27.5t-4.5 -33.5t-1.5 -31q0 -31 16 -54t57 -23q27 0 50.5 11.5t42.5 33t33 51.5t21 66l68 320h94l-80 -374q-4 -19 -8 -41t-4 -36q0 -15 8 -23.5t21 -8.5t27.5 5t27.5 12l17 -34
q-20 -13 -50.5 -29.5t-65.5 -16.5q-24 0 -40.5 12t-25 34t-9.5 50h-5q-31 -44 -65 -70t-80 -26q-41 0 -70 15.5t-43 43.5q-4 -23 -8 -44.5t-6 -40.5t-2 -36q0 -22 5 -39t17.5 -27.5t32.5 -14.5q-3 -29 -15 -48.5t-30 -29t-40 -9.5z" />
    <glyph glyph-name="paragraph" unicode="&#xb6;" horiz-adv-x="617" 
d="M177 -111v42h13q23 0 41.5 5t29.5 20.5t11 46.5v383h-71q-58 0 -91.5 27.5t-47.5 72t-14 96.5q0 54 15 94t49.5 62t90.5 22h381v-42h-13q-22 0 -41 -5t-30 -20t-11 -47v-643q0 -31 11 -46.5t30 -20.5t41 -5h13v-42h-156v820h-95v-820h-156z" />
    <glyph glyph-name="periodcentered" unicode="&#xb7;" horiz-adv-x="286" 
d="M145 287q-28 0 -45 15t-17 46q0 35 18 56t48 21q26 0 44 -15t18 -46q0 -28 -10 -45t-25 -24.5t-31 -7.5z" />
    <glyph glyph-name="cedilla" unicode="&#xb8;" horiz-adv-x="333" 
d="M110 -240q-16 0 -37 3t-38 8l11 51q17 -4 35.5 -6t31.5 -2q31 0 52.5 14.5t21.5 46.5q0 24 -17.5 39t-46.5 17l38 78h47l-19 -43q36 -5 58 -28t22 -55q0 -43 -21.5 -70t-57.5 -40t-80 -13z" />
    <glyph glyph-name="uni00B9" unicode="&#xb9;" horiz-adv-x="400" 
d="M86 387l7 34h46q17 0 30.5 6.5t18.5 31.5l61 288h-4q-19 -16 -33 -25.5t-25.5 -14t-26.5 -4.5q-16 0 -24.5 11.5t-7.5 29.5q23 2 41.5 6.5t37.5 13t42 22t55 33.5h50l-70 -331q-2 -11 -4.5 -22.5t-2.5 -19.5q0 -16 10.5 -20.5t24.5 -4.5h46l-7 -34h-265z" />
    <glyph glyph-name="ordmasculine" unicode="&#xba;" horiz-adv-x="397" 
d="M205 381q-62 0 -100 32t-38 93q0 34 13 70.5t39 68.5t64 52t89 20q38 0 68.5 -13t49 -40t18.5 -70q0 -31 -12 -68t-37 -70t-63 -54t-91 -21zM205 421q29 0 49.5 19t34 48t19.5 61t6 57q0 35 -12.5 53t-36.5 18q-27 0 -48 -18t-34.5 -46.5t-20.5 -59.5t-7 -58
q0 -37 13.5 -55.5t36.5 -18.5z" />
    <glyph glyph-name="guillemotright" unicode="&#xbb;" horiz-adv-x="514" 
d="M205 80l146 195l-65 185h50l116 -174l-7 -32l-190 -174h-50zM24 80l146 195l-65 185h50l116 -174l-7 -32l-190 -174h-50z" />
    <glyph glyph-name="onequarter" unicode="&#xbc;" horiz-adv-x="872" 
d="M86 287l7 34h46q17 0 30.5 6.5t18.5 31.5l61 288h-4q-19 -16 -33 -25.5t-25.5 -14t-26.5 -4.5q-16 0 -24.5 11.5t-7.5 29.5q23 2 41.5 6.5t37.5 13t42 22t55 33.5h50l-70 -331q-2 -11 -4.5 -22.5t-2.5 -19.5q0 -16 10.5 -20.5t24.5 -4.5h46l-7 -34h-265zM180 0l504 714
h68l-502 -714h-70zM544 0l7 34h28q17 0 30.5 6.5t18.5 31.5l12 55h-177l5 34l245 271h80l-55 -262h96l-9 -43h-96l-8 -36q-2 -9 -3.5 -18t-1.5 -14q0 -16 10.5 -20.5t24.5 -4.5h20l-7 -34h-220zM530 170h119l24 109q5 23 10.5 42.5t10.5 37.5q-5 -8 -17 -23t-23 -28z" />
    <glyph glyph-name="onehalf" unicode="&#xbd;" horiz-adv-x="872" 
d="M86 287l7 34h46q17 0 30.5 6.5t18.5 31.5l61 288h-4q-19 -16 -33 -25.5t-25.5 -14t-26.5 -4.5q-16 0 -24.5 11.5t-7.5 29.5q23 2 41.5 6.5t37.5 13t42 22t55 33.5h50l-70 -331q-2 -11 -4.5 -22.5t-2.5 -19.5q0 -16 10.5 -20.5t24.5 -4.5h46l-7 -34h-265zM165 0l504 714
h68l-502 -714h-70zM467 -1l5 30l155 128q31 26 52 48.5t33 44t17.5 43.5t5.5 46q0 22 -11 40t-39 18q-22 0 -39 -13.5t-27.5 -35t-14.5 -46.5q-30 0 -47 13.5t-17 34.5q0 25 18 44.5t52.5 31t81.5 11.5q60 0 95.5 -26t35.5 -69q0 -29 -12 -56.5t-42 -59.5t-84 -75l-120 -95
h138q16 0 26 5.5t16.5 15t10.5 20.5l8 21h34l-28 -119h-303z" />
    <glyph glyph-name="threequarters" unicode="&#xbe;" horiz-adv-x="872" 
d="M198 280q-63 0 -97 21t-34 56q0 27 16.5 40.5t40.5 13.5q0 -19 8 -39t26 -33.5t47 -13.5q27 0 48.5 9t34 28.5t12.5 51.5q0 30 -22 52.5t-69 22.5h-33l8 41h33q43 0 77 28t34 79q0 20 -11 33.5t-35 13.5q-38 0 -57.5 -26t-26.5 -61q-30 0 -48 9t-18 33t18.5 43t52.5 30.5
t82 11.5q69 0 102 -26.5t33 -64.5q0 -52 -36.5 -79.5t-91.5 -38.5l-1 -5q46 -5 73.5 -28t27.5 -64q0 -45 -24.5 -75.5t-68.5 -46.5t-101 -16zM194 0l504 714h68l-502 -714h-70zM544 0l7 34h28q17 0 30.5 6.5t18.5 31.5l12 55h-177l5 34l245 271h80l-55 -262h96l-9 -43h-96
l-8 -36q-2 -9 -3.5 -18t-1.5 -14q0 -16 10.5 -20.5t24.5 -4.5h20l-7 -34h-220zM530 170h119l24 109q5 23 10.5 42.5t10.5 37.5q-5 -8 -17 -23t-23 -28z" />
    <glyph glyph-name="questiondown" unicode="&#xbf;" horiz-adv-x="500" 
d="M190 -190q-87 0 -138 40t-51 126q0 58 32.5 103t88 79t125.5 59l28 116h55l-28 -148q-61 -22 -106.5 -52.5t-71 -71t-25.5 -93.5q0 -52 27.5 -80t69.5 -28t67 19.5t38 52t19 70.5q35 0 53.5 -15.5t18.5 -44.5q0 -35 -24 -65t-69 -48.5t-109 -18.5zM315 405
q-24 0 -40 13.5t-16 39.5q0 31 10.5 49.5t27.5 26.5t34 8q25 0 40.5 -14.5t15.5 -40.5q0 -35 -20 -58.5t-52 -23.5z" />
    <glyph glyph-name="Agrave" unicode="&#xc0;" horiz-adv-x="705" 
d="M-56 0l8 42h19q20 0 33.5 6t27 23t32.5 49l348 594h78l95 -619q3 -21 9.5 -32.5t18.5 -16t31 -4.5h13l-8 -42h-272l8 42h23q32 0 52 13.5t20 37.5q0 8 -0.5 17.5t-1.5 16.5l-48 337q-6 44 -10.5 83t-5.5 75q-10 -24 -21.5 -46.5t-25 -47t-31.5 -55.5l-197 -339
q-10 -18 -14.5 -31.5t-4.5 -24.5q0 -19 14 -27.5t42 -8.5h23l-8 -42h-247zM178 239v50h326v-50h-326zM451 771q-16 15 -34 34t-35 39t-32.5 40t-27.5 37l3 10h100q8 -20 19.5 -46.5t24 -53t23.5 -47.5l-3 -13h-38z" />
    <glyph glyph-name="Aacute" unicode="&#xc1;" horiz-adv-x="705" 
d="M-56 0l8 42h19q20 0 33.5 6t27 23t32.5 49l348 594h78l95 -619q3 -21 9.5 -32.5t18.5 -16t31 -4.5h13l-8 -42h-272l8 42h23q32 0 52 13.5t20 37.5q0 8 -0.5 17.5t-1.5 16.5l-48 337q-6 44 -10.5 83t-5.5 75q-10 -24 -21.5 -46.5t-25 -47t-31.5 -55.5l-197 -339
q-10 -18 -14.5 -31.5t-4.5 -24.5q0 -19 14 -27.5t42 -8.5h23l-8 -42h-247zM178 239v50h326v-50h-326zM406 771l3 13q18 20 37 45t37 51.5t33 50.5h107l-3 -10q-12 -15 -32 -35t-44.5 -41.5t-49.5 -40.5t-48 -33h-40z" />
    <glyph glyph-name="Acircumflex" unicode="&#xc2;" horiz-adv-x="705" 
d="M-56 0l8 42h19q20 0 33.5 6t27 23t32.5 49l348 594h78l95 -619q3 -21 9.5 -32.5t18.5 -16t31 -4.5h13l-8 -42h-272l8 42h23q32 0 52 13.5t20 37.5q0 8 -0.5 17.5t-1.5 16.5l-48 337q-6 44 -10.5 83t-5.5 75q-10 -24 -21.5 -46.5t-25 -47t-31.5 -55.5l-197 -339
q-10 -18 -14.5 -31.5t-4.5 -24.5q0 -19 14 -27.5t42 -8.5h23l-8 -42h-247zM178 239v50h326v-50h-326zM301 784q20 19 44.5 45t48.5 53t39 49h95q6 -22 17.5 -49t25.5 -53t25 -45l-3 -13h-35q-16 11 -32.5 26t-30.5 31.5t-26 32.5q-18 -16 -39.5 -32.5t-44 -31.5t-44.5 -26
h-43z" />
    <glyph glyph-name="Atilde" unicode="&#xc3;" horiz-adv-x="705" 
d="M-56 0l8 42h19q20 0 33.5 6t27 23t32.5 49l348 594h78l95 -619q3 -21 9.5 -32.5t18.5 -16t31 -4.5h13l-8 -42h-272l8 42h23q32 0 52 13.5t20 37.5q0 8 -0.5 17.5t-1.5 16.5l-48 337q-6 44 -10.5 83t-5.5 75q-10 -24 -21.5 -46.5t-25 -47t-31.5 -55.5l-197 -339
q-10 -18 -14.5 -31.5t-4.5 -24.5q0 -19 14 -27.5t42 -8.5h23l-8 -42h-247zM178 239v50h326v-50h-326zM531 771q-27 0 -47 9.5t-36 22t-30.5 22t-30.5 9.5q-30 0 -41 -16.5t-19 -36.5h-45q9 31 26 57.5t43 43.5t62 17q27 0 46.5 -9.5t35.5 -22t30.5 -22t30.5 -9.5
q29 0 41 16.5t19 36.5h45q-8 -30 -25 -57t-43 -44t-62 -17z" />
    <glyph glyph-name="Adieresis" unicode="&#xc4;" horiz-adv-x="705" 
d="M-56 0l8 42h19q20 0 33.5 6t27 23t32.5 49l348 594h78l95 -619q3 -21 9.5 -32.5t18.5 -16t31 -4.5h13l-8 -42h-272l8 42h23q32 0 52 13.5t20 37.5q0 8 -0.5 17.5t-1.5 16.5l-48 337q-6 44 -10.5 83t-5.5 75q-10 -24 -21.5 -46.5t-25 -47t-31.5 -55.5l-197 -339
q-10 -18 -14.5 -31.5t-4.5 -24.5q0 -19 14 -27.5t42 -8.5h23l-8 -42h-247zM178 239v50h326v-50h-326zM559 797q-22 0 -36 12.5t-14 37.5q0 29 14.5 46t39.5 17q22 0 36 -12t14 -38q0 -35 -17 -49t-37 -14zM369 797q-22 0 -36 12.5t-14 37.5q0 29 14.5 46t39.5 17
q22 0 36 -12t14 -38q0 -35 -17 -49t-37 -14z" />
    <glyph glyph-name="Aring" unicode="&#xc5;" horiz-adv-x="705" 
d="M-56 0l8 42h19q20 0 33.5 6t27 23t32.5 49l348 594h78l95 -619q3 -21 9.5 -32.5t18.5 -16t31 -4.5h13l-8 -42h-272l8 42h23q32 0 52 13.5t20 37.5q0 8 -0.5 17.5t-1.5 16.5l-48 337q-6 44 -10.5 83t-5.5 75q-10 -24 -21.5 -46.5t-25 -47t-31.5 -55.5l-197 -339
q-10 -18 -14.5 -31.5t-4.5 -24.5q0 -19 14 -27.5t42 -8.5h23l-8 -42h-247zM178 239v50h326v-50h-326zM446 665q-50 0 -85 28t-35 81t35 81t85 28t85 -28t35 -81t-35 -81t-85 -28zM446 714q27 0 46.5 14t19.5 46t-19.5 46t-46.5 14t-46.5 -14t-19.5 -46t19.5 -46t46.5 -14z
" />
    <glyph glyph-name="AE" unicode="&#xc6;" horiz-adv-x="951" 
d="M-58 0l10 42h19q14 0 25.5 3.5t22.5 11.5t24 23.5t31 39.5l398 546l-85 6l9 42h566l-32 -175h-52q1 5 2 18t2 25.5t1 14.5q0 28 -16 47.5t-55 19.5h-168l-57 -266h241l-10 -49h-241l-64 -299h193q32 0 54 11.5t36.5 30t22.5 40.5l16 43h52l-44 -175h-536l8 42h13
q22 0 42 4.5t34.5 18.5t20.5 44l27 130h-226l-75 -105q-13 -17 -20 -32t-7 -27q0 -17 11.5 -25t39.5 -8h21l-8 -42h-246zM263 289h200l79 375h-19q-14 -24 -35 -57t-45 -68t-47 -66z" />
    <glyph glyph-name="Ccedilla" unicode="&#xc7;" horiz-adv-x="627" 
d="M328 -10q-87 0 -148.5 31.5t-94.5 91.5t-33 145q0 89 29 172.5t83.5 149.5t130.5 105t169 39q89 0 137 -30.5t48 -80.5q0 -36 -27 -57t-71 -21q0 21 -3.5 44.5t-14 44.5t-30 34t-52.5 13q-55 0 -100.5 -26.5t-81 -71t-59.5 -100.5t-36.5 -115.5t-12.5 -115.5
q0 -59 20 -101t59.5 -64t98.5 -22q71 0 115.5 28.5t69.5 62.5q6 -4 9.5 -13t3.5 -20q0 -26 -21.5 -55t-67.5 -48.5t-120 -19.5zM238 -240q-16 0 -37 3t-38 8l11 51q17 -4 35.5 -6t31.5 -2q31 0 52.5 14.5t21.5 46.5q0 24 -17.5 39t-46.5 17l38 78h47l-19 -43q36 -5 58 -28
t22 -55q0 -43 -21.5 -70t-57.5 -40t-80 -13z" />
    <glyph glyph-name="Egrave" unicode="&#xc8;" horiz-adv-x="623" 
d="M-21 0l8 42h13q22 0 41.5 4.5t34.5 18.5t21 44l104 491q2 7 2.5 13t0.5 11q0 32 -20.5 40t-49.5 8h-13l9 42h504l-32 -175h-52q1 5 2 18t2 25.5t1 14.5q0 28 -16 47.5t-55 19.5h-168l-57 -266h241l-10 -49h-241l-64 -299h193q32 0 54 11.5t36.5 30t22.5 40.5l16 43h52
l-44 -175h-536zM415 771q-16 15 -34 34t-35 39t-32.5 40t-27.5 37l3 10h100q8 -20 19.5 -46.5t24 -53t23.5 -47.5l-3 -13h-38z" />
    <glyph glyph-name="Eacute" unicode="&#xc9;" horiz-adv-x="623" 
d="M-21 0l8 42h13q22 0 41.5 4.5t34.5 18.5t21 44l104 491q2 7 2.5 13t0.5 11q0 32 -20.5 40t-49.5 8h-13l9 42h504l-32 -175h-52q1 5 2 18t2 25.5t1 14.5q0 28 -16 47.5t-55 19.5h-168l-57 -266h241l-10 -49h-241l-64 -299h193q32 0 54 11.5t36.5 30t22.5 40.5l16 43h52
l-44 -175h-536zM351 771l3 13q18 20 37 45t37 51.5t33 50.5h107l-3 -10q-12 -15 -32 -35t-44.5 -41.5t-49.5 -40.5t-48 -33h-40z" />
    <glyph glyph-name="Ecircumflex" unicode="&#xca;" horiz-adv-x="623" 
d="M-21 0l8 42h13q22 0 41.5 4.5t34.5 18.5t21 44l104 491q2 7 2.5 13t0.5 11q0 32 -20.5 40t-49.5 8h-13l9 42h504l-32 -175h-52q1 5 2 18t2 25.5t1 14.5q0 28 -16 47.5t-55 19.5h-168l-57 -266h241l-10 -49h-241l-64 -299h193q32 0 54 11.5t36.5 30t22.5 40.5l16 43h52
l-44 -175h-536zM269 784q20 19 44.5 45t48.5 53t39 49h95q6 -22 17.5 -49t25.5 -53t25 -45l-3 -13h-35q-16 11 -32.5 26t-30.5 31.5t-26 32.5q-18 -16 -39.5 -32.5t-44 -31.5t-44.5 -26h-43z" />
    <glyph glyph-name="Edieresis" unicode="&#xcb;" horiz-adv-x="623" 
d="M-21 0l8 42h13q22 0 41.5 4.5t34.5 18.5t21 44l104 491q2 7 2.5 13t0.5 11q0 32 -20.5 40t-49.5 8h-13l9 42h504l-32 -175h-52q1 5 2 18t2 25.5t1 14.5q0 28 -16 47.5t-55 19.5h-168l-57 -266h241l-10 -49h-241l-64 -299h193q32 0 54 11.5t36.5 30t22.5 40.5l16 43h52
l-44 -175h-536zM504 797q-22 0 -36 12.5t-14 37.5q0 29 14.5 46t39.5 17q22 0 36 -12t14 -38q0 -35 -17 -49t-37 -14zM314 797q-22 0 -36 12.5t-14 37.5q0 29 14.5 46t39.5 17q22 0 36 -12t14 -38q0 -35 -17 -49t-37 -14z" />
    <glyph glyph-name="Igrave" unicode="&#xcc;" horiz-adv-x="367" 
d="M-21 0l8 42h13q23 0 42.5 5t34.5 20.5t21 46.5l104 490q2 6 3 15t1 13q0 26 -20 33t-52 7h-13l9 42h291l-9 -42h-13q-22 0 -42 -5t-34 -20t-21 -47l-104 -490q-1 -6 -2.5 -14.5t-1.5 -13.5q0 -25 20.5 -32.5t51.5 -7.5h13l-9 -42h-291zM296 771q-16 15 -34 34t-35 39
t-32.5 40t-27.5 37l3 10h100q8 -20 19.5 -46.5t24 -53t23.5 -47.5l-3 -13h-38z" />
    <glyph glyph-name="Iacute" unicode="&#xcd;" horiz-adv-x="367" 
d="M-21 0l8 42h13q23 0 42.5 5t34.5 20.5t21 46.5l104 490q2 6 3 15t1 13q0 26 -20 33t-52 7h-13l9 42h291l-9 -42h-13q-22 0 -42 -5t-34 -20t-21 -47l-104 -490q-1 -6 -2.5 -14.5t-1.5 -13.5q0 -25 20.5 -32.5t51.5 -7.5h13l-9 -42h-291zM229 771l3 13q18 20 37 45t37 51.5
t33 50.5h107l-3 -10q-12 -15 -32 -35t-44.5 -41.5t-49.5 -40.5t-48 -33h-40z" />
    <glyph glyph-name="Icircumflex" unicode="&#xce;" horiz-adv-x="367" 
d="M-21 0l8 42h13q23 0 42.5 5t34.5 20.5t21 46.5l104 490q2 6 3 15t1 13q0 26 -20 33t-52 7h-13l9 42h291l-9 -42h-13q-22 0 -42 -5t-34 -20t-21 -47l-104 -490q-1 -6 -2.5 -14.5t-1.5 -13.5q0 -25 20.5 -32.5t51.5 -7.5h13l-9 -42h-291zM136 784q20 19 44.5 45t48.5 53
t39 49h95q6 -22 17.5 -49t25.5 -53t25 -45l-3 -13h-35q-16 11 -32.5 26t-30.5 31.5t-26 32.5q-18 -16 -39.5 -32.5t-44 -31.5t-44.5 -26h-43z" />
    <glyph glyph-name="Idieresis" unicode="&#xcf;" horiz-adv-x="367" 
d="M-21 0l8 42h13q23 0 42.5 5t34.5 20.5t21 46.5l104 490q2 6 3 15t1 13q0 26 -20 33t-52 7h-13l9 42h291l-9 -42h-13q-22 0 -42 -5t-34 -20t-21 -47l-104 -490q-1 -6 -2.5 -14.5t-1.5 -13.5q0 -25 20.5 -32.5t51.5 -7.5h13l-9 -42h-291zM387 797q-22 0 -36 12.5t-14 37.5
q0 29 14.5 46t39.5 17q22 0 36 -12t14 -38q0 -35 -17 -49t-37 -14zM197 797q-22 0 -36 12.5t-14 37.5q0 29 14.5 46t39.5 17q22 0 36 -12t14 -38q0 -35 -17 -49t-37 -14z" />
    <glyph glyph-name="Eth" unicode="&#xd0;" horiz-adv-x="725" 
d="M51 349l11 49h366l-11 -49h-366zM-21 0l8 42h13q23 0 42.5 5t34.5 20.5t21 46.5l104 490q2 7 3 14.5t1 13.5q0 27 -22.5 33.5t-49.5 6.5h-13l9 42h280q135 0 209.5 -69.5t74.5 -202.5q0 -89 -26 -169t-77 -141.5t-125.5 -96.5t-171.5 -35h-315zM272 51q74 0 132 29.5
t98.5 83t61.5 127.5t21 162q0 110 -51.5 160.5t-138.5 50.5h-79l-131 -613h87z" />
    <glyph glyph-name="Ntilde" unicode="&#xd1;" horiz-adv-x="763" 
d="M-20 0l9 42h13q22 0 41.5 5t33.5 20.5t21 46.5l104 490q2 6 3 15t1 13q0 26 -20 33t-52 7h-13l9 42h182l242 -552l94 442q2 6 3 15t1 13q0 26 -20 33t-52 7h-13l9 42h251l-9 -42h-13q-22 0 -41.5 -5t-34 -20t-21.5 -47l-127 -600h-65l-257 586l-101 -476
q-1 -6 -2.5 -14.5t-1.5 -13.5q0 -25 20.5 -32.5t51.5 -7.5h13l-9 -42h-250zM573 771q-27 0 -47 9.5t-36 22t-30.5 22t-30.5 9.5q-30 0 -41 -16.5t-19 -36.5h-45q9 31 26 57.5t43 43.5t62 17q27 0 46.5 -9.5t35.5 -22t30.5 -22t30.5 -9.5q29 0 41 16.5t19 36.5h45
q-8 -30 -25 -57t-43 -44t-62 -17z" />
    <glyph glyph-name="Ograve" unicode="&#xd2;" horiz-adv-x="742" 
d="M314 -11q-74 0 -133.5 31.5t-94 93.5t-34.5 152q0 58 16 121t48.5 123t80.5 108.5t112 77.5t143 29q69 0 128 -29t95 -89.5t36 -156.5q0 -55 -15.5 -118t-47 -123.5t-79 -110.5t-111.5 -79.5t-144 -29.5zM320 44q58 0 103.5 29t79 76.5t55.5 105t32.5 115.5t10.5 107
q0 68 -20.5 110.5t-55.5 63t-81 20.5q-58 0 -104 -29t-79.5 -76.5t-55.5 -105t-33 -115.5t-11 -107q0 -68 21 -111t57.5 -63t80.5 -20zM499 771q-16 15 -34 34t-35 39t-32.5 40t-27.5 37l3 10h100q8 -20 19.5 -46.5t24 -53t23.5 -47.5l-3 -13h-38z" />
    <glyph glyph-name="Oacute" unicode="&#xd3;" horiz-adv-x="742" 
d="M314 -11q-74 0 -133.5 31.5t-94 93.5t-34.5 152q0 58 16 121t48.5 123t80.5 108.5t112 77.5t143 29q69 0 128 -29t95 -89.5t36 -156.5q0 -55 -15.5 -118t-47 -123.5t-79 -110.5t-111.5 -79.5t-144 -29.5zM320 44q58 0 103.5 29t79 76.5t55.5 105t32.5 115.5t10.5 107
q0 68 -20.5 110.5t-55.5 63t-81 20.5q-58 0 -104 -29t-79.5 -76.5t-55.5 -105t-33 -115.5t-11 -107q0 -68 21 -111t57.5 -63t80.5 -20zM401 771l3 13q18 20 37 45t37 51.5t33 50.5h107l-3 -10q-12 -15 -32 -35t-44.5 -41.5t-49.5 -40.5t-48 -33h-40z" />
    <glyph glyph-name="Ocircumflex" unicode="&#xd4;" horiz-adv-x="742" 
d="M314 -11q-74 0 -133.5 31.5t-94 93.5t-34.5 152q0 58 16 121t48.5 123t80.5 108.5t112 77.5t143 29q69 0 128 -29t95 -89.5t36 -156.5q0 -55 -15.5 -118t-47 -123.5t-79 -110.5t-111.5 -79.5t-144 -29.5zM320 44q58 0 103.5 29t79 76.5t55.5 105t32.5 115.5t10.5 107
q0 68 -20.5 110.5t-55.5 63t-81 20.5q-58 0 -104 -29t-79.5 -76.5t-55.5 -105t-33 -115.5t-11 -107q0 -68 21 -111t57.5 -63t80.5 -20zM312 784q20 19 44.5 45t48.5 53t39 49h95q6 -22 17.5 -49t25.5 -53t25 -45l-3 -13h-35q-16 11 -32.5 26t-30.5 31.5t-26 32.5
q-18 -16 -39.5 -32.5t-44 -31.5t-44.5 -26h-43z" />
    <glyph glyph-name="Otilde" unicode="&#xd5;" horiz-adv-x="742" 
d="M314 -11q-74 0 -133.5 31.5t-94 93.5t-34.5 152q0 58 16 121t48.5 123t80.5 108.5t112 77.5t143 29q69 0 128 -29t95 -89.5t36 -156.5q0 -55 -15.5 -118t-47 -123.5t-79 -110.5t-111.5 -79.5t-144 -29.5zM320 44q58 0 103.5 29t79 76.5t55.5 105t32.5 115.5t10.5 107
q0 68 -20.5 110.5t-55.5 63t-81 20.5q-58 0 -104 -29t-79.5 -76.5t-55.5 -105t-33 -115.5t-11 -107q0 -68 21 -111t57.5 -63t80.5 -20zM536 771q-27 0 -47 9.5t-36 22t-30.5 22t-30.5 9.5q-30 0 -41 -16.5t-19 -36.5h-45q9 31 26 57.5t43 43.5t62 17q27 0 46.5 -9.5
t35.5 -22t30.5 -22t30.5 -9.5q29 0 41 16.5t19 36.5h45q-8 -30 -25 -57t-43 -44t-62 -17z" />
    <glyph glyph-name="Odieresis" unicode="&#xd6;" horiz-adv-x="742" 
d="M314 -11q-74 0 -133.5 31.5t-94 93.5t-34.5 152q0 58 16 121t48.5 123t80.5 108.5t112 77.5t143 29q69 0 128 -29t95 -89.5t36 -156.5q0 -55 -15.5 -118t-47 -123.5t-79 -110.5t-111.5 -79.5t-144 -29.5zM320 44q58 0 103.5 29t79 76.5t55.5 105t32.5 115.5t10.5 107
q0 68 -20.5 110.5t-55.5 63t-81 20.5q-58 0 -104 -29t-79.5 -76.5t-55.5 -105t-33 -115.5t-11 -107q0 -68 21 -111t57.5 -63t80.5 -20zM571 797q-22 0 -36 12.5t-14 37.5q0 29 14.5 46t39.5 17q22 0 36 -12t14 -38q0 -35 -17 -49t-37 -14zM381 797q-22 0 -36 12.5t-14 37.5
q0 29 14.5 46t39.5 17q22 0 36 -12t14 -38q0 -35 -17 -49t-37 -14z" />
    <glyph glyph-name="multiply" unicode="&#xd7;" horiz-adv-x="559" 
d="M113 150l-42 43l166 166l-166 165l42 42l166 -166l166 167l42 -43l-166 -166l166 -166l-42 -42l-166 166z" />
    <glyph glyph-name="Oslash" unicode="&#xd8;" horiz-adv-x="742" 
d="M67 -40l579 795h58l-578 -795h-59zM314 -11q-74 0 -133.5 31.5t-94 93.5t-34.5 152q0 58 16 121t48.5 123t80.5 108.5t112 77.5t143 29q69 0 128 -29t95 -89.5t36 -156.5q0 -55 -15.5 -118t-47 -123.5t-79 -110.5t-111.5 -79.5t-144 -29.5zM320 44q58 0 103.5 29t79 76.5
t55.5 105t32.5 115.5t10.5 107q0 68 -20.5 110.5t-55.5 63t-81 20.5q-58 0 -104 -29t-79.5 -76.5t-55.5 -105t-33 -115.5t-11 -107q0 -68 21 -111t57.5 -63t80.5 -20z" />
    <glyph glyph-name="Ugrave" unicode="&#xd9;" horiz-adv-x="730" 
d="M323 -10q-109 0 -168 45.5t-59 127.5q0 16 3.5 44t7.5 45l74 352q2 6 3 15t1 13q0 26 -20 33t-52 7h-13l9 42h291l-8 -42h-13q-22 0 -41.5 -5t-34.5 -20t-22 -47l-75 -353q-5 -25 -8.5 -48.5t-3.5 -44.5q0 -51 38 -77.5t106 -26.5q65 0 104 20.5t60 56t30 79.5l85 398
q2 6 3 15t1 13q0 26 -20 33t-52 7h-13l9 42h251l-8 -42h-13q-22 0 -41.5 -5t-34.5 -20t-22 -47l-84 -396q-14 -66 -47 -114t-88 -74t-135 -26zM479 771q-16 15 -34 34t-35 39t-32.5 40t-27.5 37l3 10h100q8 -20 19.5 -46.5t24 -53t23.5 -47.5l-3 -13h-38z" />
    <glyph glyph-name="Uacute" unicode="&#xda;" horiz-adv-x="730" 
d="M323 -10q-109 0 -168 45.5t-59 127.5q0 16 3.5 44t7.5 45l74 352q2 6 3 15t1 13q0 26 -20 33t-52 7h-13l9 42h291l-8 -42h-13q-22 0 -41.5 -5t-34.5 -20t-22 -47l-75 -353q-5 -25 -8.5 -48.5t-3.5 -44.5q0 -51 38 -77.5t106 -26.5q65 0 104 20.5t60 56t30 79.5l85 398
q2 6 3 15t1 13q0 26 -20 33t-52 7h-13l9 42h251l-8 -42h-13q-22 0 -41.5 -5t-34.5 -20t-22 -47l-84 -396q-14 -66 -47 -114t-88 -74t-135 -26zM419 771l3 13q18 20 37 45t37 51.5t33 50.5h107l-3 -10q-12 -15 -32 -35t-44.5 -41.5t-49.5 -40.5t-48 -33h-40z" />
    <glyph glyph-name="Ucircumflex" unicode="&#xdb;" horiz-adv-x="730" 
d="M323 -10q-109 0 -168 45.5t-59 127.5q0 16 3.5 44t7.5 45l74 352q2 6 3 15t1 13q0 26 -20 33t-52 7h-13l9 42h291l-8 -42h-13q-22 0 -41.5 -5t-34.5 -20t-22 -47l-75 -353q-5 -25 -8.5 -48.5t-3.5 -44.5q0 -51 38 -77.5t106 -26.5q65 0 104 20.5t60 56t30 79.5l85 398
q2 6 3 15t1 13q0 26 -20 33t-52 7h-13l9 42h251l-8 -42h-13q-22 0 -41.5 -5t-34.5 -20t-22 -47l-84 -396q-14 -66 -47 -114t-88 -74t-135 -26zM332 784q20 19 44.5 45t48.5 53t39 49h95q6 -22 17.5 -49t25.5 -53t25 -45l-3 -13h-35q-16 11 -32.5 26t-30.5 31.5t-26 32.5
q-18 -16 -39.5 -32.5t-44 -31.5t-44.5 -26h-43z" />
    <glyph glyph-name="Udieresis" unicode="&#xdc;" horiz-adv-x="730" 
d="M323 -10q-109 0 -168 45.5t-59 127.5q0 16 3.5 44t7.5 45l74 352q2 6 3 15t1 13q0 26 -20 33t-52 7h-13l9 42h291l-8 -42h-13q-22 0 -41.5 -5t-34.5 -20t-22 -47l-75 -353q-5 -25 -8.5 -48.5t-3.5 -44.5q0 -51 38 -77.5t106 -26.5q65 0 104 20.5t60 56t30 79.5l85 398
q2 6 3 15t1 13q0 26 -20 33t-52 7h-13l9 42h251l-8 -42h-13q-22 0 -41.5 -5t-34.5 -20t-22 -47l-84 -396q-14 -66 -47 -114t-88 -74t-135 -26zM568 797q-22 0 -36 12.5t-14 37.5q0 29 14.5 46t39.5 17q22 0 36 -12t14 -38q0 -35 -17 -49t-37 -14zM378 797q-22 0 -36 12.5
t-14 37.5q0 29 14.5 46t39.5 17q22 0 36 -12t14 -38q0 -35 -17 -49t-37 -14z" />
    <glyph glyph-name="Yacute" unicode="&#xdd;" horiz-adv-x="625" 
d="M99 0l9 42h23q22 0 41.5 4.5t34 18.5t20.5 44l39 184l-116 326q-7 19 -13.5 30.5t-16.5 17t-30 5.5h-13l9 42h270l-9 -42h-50q-20 0 -30.5 -7t-10.5 -20q0 -8 1.5 -17.5t4.5 -19t7 -21.5l45 -134q11 -31 18.5 -63t8.5 -57q11 21 31 47t47 62l93 124q13 17 20.5 31
t11.5 26.5t4 22.5q0 14 -10.5 20t-37.5 6h-37l9 42h247l-9 -42h-19q-15 0 -28.5 -8.5t-28.5 -25.5t-34 -42l-233 -305l-39 -181q-1 -6 -2.5 -14.5t-1.5 -13.5q0 -25 20.5 -32.5t51.5 -7.5h23l-9 -42h-311zM373 771l3 13q18 20 37 45t37 51.5t33 50.5h107l-3 -10
q-12 -15 -32 -35t-44.5 -41.5t-49.5 -40.5t-48 -33h-40z" />
    <glyph glyph-name="Thorn" unicode="&#xde;" horiz-adv-x="604" 
d="M-20 0l9 42h13q22 0 41.5 5t34 20.5t20.5 46.5l104 490q2 6 3 15t1 13q0 26 -20 33t-52 7h-13l9 42h301l-9 -42h-23q-22 0 -42 -4.5t-34 -20t-21 -47.5l-2 -10h59q105 0 166.5 -49t61.5 -144q0 -38 -12 -80t-44.5 -79t-93 -60.5t-156.5 -23.5h-74l-9 -44
q-1 -6 -2.5 -14.5t-1.5 -13.5q0 -25 20.5 -32.5t51.5 -7.5h23l-9 -42h-300zM270 201q78 0 124 25t66.5 69t20.5 101q0 79 -37.5 112.5t-108.5 33.5h-46l-72 -341h53z" />
    <glyph glyph-name="germandbls" unicode="&#xdf;" horiz-adv-x="627" 
d="M-78 -240q-15 0 -31.5 2.5t-26.5 5.5l9 46q8 -2 21.5 -4.5t24.5 -2.5q33 0 55.5 18.5t39.5 59t31 106.5l106 498h-81l10 47h81l7 30q12 55 35 93t56 61.5t73 34t86 10.5q63 0 103.5 -19t59.5 -53.5t19 -80.5q0 -25 -3.5 -57t-10.5 -64h-86q-37 0 -61.5 -10t-36.5 -28.5
t-12 -43.5q0 -28 17 -51t66 -52q33 -19 53.5 -42t30.5 -50t10 -58q0 -52 -22.5 -89.5t-65.5 -57t-105 -19.5q-71 0 -111.5 27.5t-40.5 74.5q0 31 22 48t53 17q0 -28 6.5 -55.5t24.5 -45.5t53 -18q42 0 70 24.5t28 70.5q0 27 -14 55.5t-62 56.5q-30 19 -52.5 39.5t-35 46
t-12.5 57.5q0 38 13 66.5t38 47t62.5 27.5t85.5 9q5 24 8 45t3 38q0 30 -10.5 52.5t-32 34.5t-55.5 12q-64 0 -100 -37.5t-50 -102.5l-126 -588q-14 -67 -34.5 -111.5t-47.5 -71t-60.5 -38t-74.5 -11.5z" />
    <glyph glyph-name="agrave" unicode="&#xe0;" horiz-adv-x="579" 
d="M172 -10q-44 0 -73 24t-42.5 65.5t-13.5 93.5q0 47 12.5 98.5t37.5 100t61 88t83 63t104 23.5q24 0 45.5 -4.5t40 -12.5t31.5 -19l44 25h32l-68 -320q-2 -11 -6 -32t-6.5 -43t-2.5 -36q0 -25 8.5 -38t24.5 -13q17 0 35 7.5t37 18.5l18 -29q-14 -13 -38 -27t-51 -23.5
t-52 -9.5q-36 0 -57 22t-21 61q0 20 2.5 36.5t7.5 41.5h-6q-23 -51 -51.5 -87t-62 -55t-73.5 -19zM208 53q26 0 53.5 20t52 54t43.5 76t28 85l37 177q-11 18 -32 27t-44 9q-40 0 -72 -22.5t-56 -59.5t-40.5 -81t-24.5 -88.5t-8 -80.5q0 -62 18 -89t45 -27zM344 606
q-16 15 -34 34t-35 39t-32.5 40t-27.5 37l3 10h100q8 -20 19.5 -46.5t24 -53t23.5 -47.5l-3 -13h-38z" />
    <glyph glyph-name="aacute" unicode="&#xe1;" horiz-adv-x="579" 
d="M172 -10q-44 0 -73 24t-42.5 65.5t-13.5 93.5q0 47 12.5 98.5t37.5 100t61 88t83 63t104 23.5q24 0 45.5 -4.5t40 -12.5t31.5 -19l44 25h32l-68 -320q-2 -11 -6 -32t-6.5 -43t-2.5 -36q0 -25 8.5 -38t24.5 -13q17 0 35 7.5t37 18.5l18 -29q-14 -13 -38 -27t-51 -23.5
t-52 -9.5q-36 0 -57 22t-21 61q0 20 2.5 36.5t7.5 41.5h-6q-23 -51 -51.5 -87t-62 -55t-73.5 -19zM208 53q26 0 53.5 20t52 54t43.5 76t28 85l37 177q-11 18 -32 27t-44 9q-40 0 -72 -22.5t-56 -59.5t-40.5 -81t-24.5 -88.5t-8 -80.5q0 -62 18 -89t45 -27zM308 606l3 13
q18 20 37 45t37 51.5t33 50.5h107l-3 -10q-12 -15 -32 -35t-44.5 -41.5t-49.5 -40.5t-48 -33h-40z" />
    <glyph glyph-name="acircumflex" unicode="&#xe2;" horiz-adv-x="579" 
d="M172 -10q-44 0 -73 24t-42.5 65.5t-13.5 93.5q0 47 12.5 98.5t37.5 100t61 88t83 63t104 23.5q24 0 45.5 -4.5t40 -12.5t31.5 -19l44 25h32l-68 -320q-2 -11 -6 -32t-6.5 -43t-2.5 -36q0 -25 8.5 -38t24.5 -13q17 0 35 7.5t37 18.5l18 -29q-14 -13 -38 -27t-51 -23.5
t-52 -9.5q-36 0 -57 22t-21 61q0 20 2.5 36.5t7.5 41.5h-6q-23 -51 -51.5 -87t-62 -55t-73.5 -19zM208 53q26 0 53.5 20t52 54t43.5 76t28 85l37 177q-11 18 -32 27t-44 9q-40 0 -72 -22.5t-56 -59.5t-40.5 -81t-24.5 -88.5t-8 -80.5q0 -62 18 -89t45 -27zM200 619
q20 19 44.5 45t48.5 53t39 49h95q6 -22 17.5 -49t25.5 -53t25 -45l-3 -13h-35q-16 11 -32.5 26t-30.5 31.5t-26 32.5q-18 -16 -39.5 -32.5t-44 -31.5t-44.5 -26h-43z" />
    <glyph glyph-name="atilde" unicode="&#xe3;" horiz-adv-x="579" 
d="M172 -10q-44 0 -73 24t-42.5 65.5t-13.5 93.5q0 47 12.5 98.5t37.5 100t61 88t83 63t104 23.5q24 0 45.5 -4.5t40 -12.5t31.5 -19l44 25h32l-68 -320q-2 -11 -6 -32t-6.5 -43t-2.5 -36q0 -25 8.5 -38t24.5 -13q17 0 35 7.5t37 18.5l18 -29q-14 -13 -38 -27t-51 -23.5
t-52 -9.5q-36 0 -57 22t-21 61q0 20 2.5 36.5t7.5 41.5h-6q-23 -51 -51.5 -87t-62 -55t-73.5 -19zM208 53q26 0 53.5 20t52 54t43.5 76t28 85l37 177q-11 18 -32 27t-44 9q-40 0 -72 -22.5t-56 -59.5t-40.5 -81t-24.5 -88.5t-8 -80.5q0 -62 18 -89t45 -27zM415 606
q-27 0 -47 9.5t-36 22t-30.5 22t-30.5 9.5q-30 0 -41 -16.5t-19 -36.5h-45q9 31 26 57.5t43 43.5t62 17q27 0 46.5 -9.5t35.5 -22t30.5 -22t30.5 -9.5q29 0 41 16.5t19 36.5h45q-8 -30 -25 -57t-43 -44t-62 -17z" />
    <glyph glyph-name="adieresis" unicode="&#xe4;" horiz-adv-x="579" 
d="M172 -10q-44 0 -73 24t-42.5 65.5t-13.5 93.5q0 47 12.5 98.5t37.5 100t61 88t83 63t104 23.5q24 0 45.5 -4.5t40 -12.5t31.5 -19l44 25h32l-68 -320q-2 -11 -6 -32t-6.5 -43t-2.5 -36q0 -25 8.5 -38t24.5 -13q17 0 35 7.5t37 18.5l18 -29q-14 -13 -38 -27t-51 -23.5
t-52 -9.5q-36 0 -57 22t-21 61q0 20 2.5 36.5t7.5 41.5h-6q-23 -51 -51.5 -87t-62 -55t-73.5 -19zM208 53q26 0 53.5 20t52 54t43.5 76t28 85l37 177q-11 18 -32 27t-44 9q-40 0 -72 -22.5t-56 -59.5t-40.5 -81t-24.5 -88.5t-8 -80.5q0 -62 18 -89t45 -27zM436 632
q-22 0 -36 12.5t-14 37.5q0 29 14.5 46t39.5 17q22 0 36 -12t14 -38q0 -35 -17 -49t-37 -14zM246 632q-22 0 -36 12.5t-14 37.5q0 29 14.5 46t39.5 17q22 0 36 -12t14 -38q0 -35 -17 -49t-37 -14z" />
    <glyph glyph-name="aring" unicode="&#xe5;" horiz-adv-x="579" 
d="M172 -10q-44 0 -73 24t-42.5 65.5t-13.5 93.5q0 47 12.5 98.5t37.5 100t61 88t83 63t104 23.5q24 0 45.5 -4.5t40 -12.5t31.5 -19l44 25h32l-68 -320q-2 -11 -6 -32t-6.5 -43t-2.5 -36q0 -25 8.5 -38t24.5 -13q17 0 35 7.5t37 18.5l18 -29q-14 -13 -38 -27t-51 -23.5
t-52 -9.5q-36 0 -57 22t-21 61q0 20 2.5 36.5t7.5 41.5h-6q-23 -51 -51.5 -87t-62 -55t-73.5 -19zM208 53q26 0 53.5 20t52 54t43.5 76t28 85l37 177q-11 18 -32 27t-44 9q-40 0 -72 -22.5t-56 -59.5t-40.5 -81t-24.5 -88.5t-8 -80.5q0 -62 18 -89t45 -27zM360 596
q-50 0 -85 28t-35 81t35 81t85 28t85 -28t35 -81t-35 -81t-85 -28zM360 645q27 0 46.5 14t19.5 46t-19.5 46t-46.5 14t-46.5 -14t-19.5 -46t19.5 -46t46.5 -14z" />
    <glyph glyph-name="ae" unicode="&#xe6;" horiz-adv-x="813" 
d="M194 -10q-31 0 -58.5 12t-48 36.5t-32.5 62t-12 88.5q0 43 11 92t33.5 96t57 85t82 61t108.5 23q41 0 77 -14.5t76 -47.5q34 29 78 45.5t95 16.5q63 0 98 -30.5t35 -84.5q0 -52 -37.5 -98t-103 -74t-149.5 -28h-35q-1 -11 -1.5 -21.5t-0.5 -20.5q0 -43 12.5 -73.5
t37 -46.5t60.5 -16q48 0 85.5 23t58.5 49q5 -3 7.5 -10t2.5 -15q0 -22 -18 -47.5t-56.5 -44t-98.5 -18.5q-66 0 -117 36t-67 108h-1q-19 -48 -45.5 -80t-60 -48t-73.5 -16zM229 53q35 0 62.5 23t46.5 63.5t28 92.5q8 44 18 77.5t24 64t34 62.5q-23 32 -49.5 48.5t-52.5 16.5
q-40 0 -71 -22.5t-54.5 -59t-39 -79.5t-23 -85.5t-7.5 -76.5q0 -64 23.5 -94.5t60.5 -30.5zM488 277q44 0 81 11t64.5 31.5t42.5 49t15 62.5t-15 50.5t-43 16.5t-53 -19.5t-45 -52t-34.5 -71.5t-22.5 -78h10z" />
    <glyph glyph-name="ccedilla" unicode="&#xe7;" horiz-adv-x="487" 
d="M238 -10q-53 0 -97.5 23t-71 68.5t-26.5 115.5q0 44 12.5 92.5t36.5 94t60 82.5t83.5 58.5t105.5 21.5q50 0 82.5 -14t48 -35.5t15.5 -46.5q0 -19 -10.5 -35t-30 -25.5t-48.5 -9.5q0 48 -18.5 83t-58.5 35q-32 0 -59 -21.5t-48.5 -56t-36 -76t-22.5 -82.5t-8 -73
q0 -64 28 -100t82 -36q53 0 88 23t56 49q5 -3 7.5 -10t2.5 -15q0 -22 -18.5 -47.5t-56.5 -44t-98 -18.5zM158 -240q-16 0 -37 3t-38 8l11 51q17 -4 35.5 -6t31.5 -2q31 0 52.5 14.5t21.5 46.5q0 24 -17.5 39t-46.5 17l38 78h47l-19 -43q36 -5 58 -28t22 -55q0 -43 -21.5 -70
t-57.5 -40t-80 -13z" />
    <glyph glyph-name="egrave" unicode="&#xe8;" horiz-adv-x="493" 
d="M238 -10q-53 0 -97.5 23t-71 68.5t-26.5 115.5q0 44 12.5 92.5t36.5 94t60 82.5t83.5 58.5t105.5 21.5q63 0 98 -30.5t35 -84.5q0 -52 -37.5 -98t-103 -74t-149.5 -28h-35q-1 -11 -1.5 -21.5t-0.5 -20.5q0 -64 28 -100t82 -36q48 0 85.5 23t58.5 49q10 -7 10 -25
q0 -22 -18.5 -47.5t-56.5 -44t-98 -18.5zM168 277q59 0 104.5 19.5t72 54t26.5 80.5q0 34 -15 50.5t-43 16.5t-53 -19.5t-45 -52t-34.5 -71.5t-22.5 -78h10zM352 606q-16 15 -34 34t-35 39t-32.5 40t-27.5 37l3 10h100q8 -20 19.5 -46.5t24 -53t23.5 -47.5l-3 -13h-38z" />
    <glyph glyph-name="eacute" unicode="&#xe9;" horiz-adv-x="493" 
d="M238 -10q-53 0 -97.5 23t-71 68.5t-26.5 115.5q0 44 12.5 92.5t36.5 94t60 82.5t83.5 58.5t105.5 21.5q63 0 98 -30.5t35 -84.5q0 -52 -37.5 -98t-103 -74t-149.5 -28h-35q-1 -11 -1.5 -21.5t-0.5 -20.5q0 -64 28 -100t82 -36q48 0 85.5 23t58.5 49q10 -7 10 -25
q0 -22 -18.5 -47.5t-56.5 -44t-98 -18.5zM168 277q59 0 104.5 19.5t72 54t26.5 80.5q0 34 -15 50.5t-43 16.5t-53 -19.5t-45 -52t-34.5 -71.5t-22.5 -78h10zM297 606l3 13q18 20 37 45t37 51.5t33 50.5h107l-3 -10q-12 -15 -32 -35t-44.5 -41.5t-49.5 -40.5t-48 -33h-40z
" />
    <glyph glyph-name="ecircumflex" unicode="&#xea;" horiz-adv-x="493" 
d="M238 -10q-53 0 -97.5 23t-71 68.5t-26.5 115.5q0 44 12.5 92.5t36.5 94t60 82.5t83.5 58.5t105.5 21.5q63 0 98 -30.5t35 -84.5q0 -52 -37.5 -98t-103 -74t-149.5 -28h-35q-1 -11 -1.5 -21.5t-0.5 -20.5q0 -64 28 -100t82 -36q48 0 85.5 23t58.5 49q10 -7 10 -25
q0 -22 -18.5 -47.5t-56.5 -44t-98 -18.5zM168 277q59 0 104.5 19.5t72 54t26.5 80.5q0 34 -15 50.5t-43 16.5t-53 -19.5t-45 -52t-34.5 -71.5t-22.5 -78h10zM189 619q20 19 44.5 45t48.5 53t39 49h95q6 -22 17.5 -49t25.5 -53t25 -45l-3 -13h-35q-16 11 -32.5 26t-30.5 31.5
t-26 32.5q-18 -16 -39.5 -32.5t-44 -31.5t-44.5 -26h-43z" />
    <glyph glyph-name="edieresis" unicode="&#xeb;" horiz-adv-x="493" 
d="M238 -10q-53 0 -97.5 23t-71 68.5t-26.5 115.5q0 44 12.5 92.5t36.5 94t60 82.5t83.5 58.5t105.5 21.5q63 0 98 -30.5t35 -84.5q0 -52 -37.5 -98t-103 -74t-149.5 -28h-35q-1 -11 -1.5 -21.5t-0.5 -20.5q0 -64 28 -100t82 -36q48 0 85.5 23t58.5 49q10 -7 10 -25
q0 -22 -18.5 -47.5t-56.5 -44t-98 -18.5zM168 277q59 0 104.5 19.5t72 54t26.5 80.5q0 34 -15 50.5t-43 16.5t-53 -19.5t-45 -52t-34.5 -71.5t-22.5 -78h10zM438 632q-22 0 -36 12.5t-14 37.5q0 29 14.5 46t39.5 17q22 0 36 -12t14 -38q0 -35 -17 -49t-37 -14zM248 632
q-22 0 -36 12.5t-14 37.5q0 29 14.5 46t39.5 17q22 0 36 -12t14 -38q0 -35 -17 -49t-37 -14z" />
    <glyph glyph-name="igrave" unicode="&#xec;" horiz-adv-x="304" 
d="M155 -10q-40 0 -61.5 28t-21.5 67q0 21 4 50t9 58.5t9 48.5l39 184q7 30 1 44.5t-21.5 19t-37.5 4.5h-13l9 42h179l-68 -321q-2 -11 -6 -32t-6.5 -43t-2.5 -36q0 -25 8.5 -38t24.5 -13q17 0 35 7.5t37 18.5l18 -29q-22 -19 -59.5 -39.5t-75.5 -20.5zM222 606
q-16 15 -34 34t-35 39t-32.5 40t-27.5 37l3 10h100q8 -20 19.5 -46.5t24 -53t23.5 -47.5l-3 -13h-38z" />
    <glyph glyph-name="iacute" unicode="&#xed;" horiz-adv-x="304" 
d="M155 -10q-40 0 -61.5 28t-21.5 67q0 21 4 50t9 58.5t9 48.5l39 184q7 30 1 44.5t-21.5 19t-37.5 4.5h-13l9 42h179l-68 -321q-2 -11 -6 -32t-6.5 -43t-2.5 -36q0 -25 8.5 -38t24.5 -13q17 0 35 7.5t37 18.5l18 -29q-22 -19 -59.5 -39.5t-75.5 -20.5zM159 606l3 13
q18 20 37 45t37 51.5t33 50.5h107l-3 -10q-12 -15 -32 -35t-44.5 -41.5t-49.5 -40.5t-48 -33h-40z" />
    <glyph glyph-name="icircumflex" unicode="&#xee;" horiz-adv-x="304" 
d="M155 -10q-40 0 -61.5 28t-21.5 67q0 21 4 50t9 58.5t9 48.5l39 184q7 30 1 44.5t-21.5 19t-37.5 4.5h-13l9 42h179l-68 -321q-2 -11 -6 -32t-6.5 -43t-2.5 -36q0 -25 8.5 -38t24.5 -13q17 0 35 7.5t37 18.5l18 -29q-22 -19 -59.5 -39.5t-75.5 -20.5zM38 619
q20 19 44.5 45t48.5 53t39 49h95q6 -22 17.5 -49t25.5 -53t25 -45l-3 -13h-35q-16 11 -32.5 26t-30.5 31.5t-26 32.5q-18 -16 -39.5 -32.5t-44 -31.5t-44.5 -26h-43z" />
    <glyph glyph-name="idieresis" unicode="&#xef;" horiz-adv-x="304" 
d="M155 -10q-40 0 -61.5 28t-21.5 67q0 21 4 50t9 58.5t9 48.5l39 184q7 30 1 44.5t-21.5 19t-37.5 4.5h-13l9 42h179l-68 -321q-2 -11 -6 -32t-6.5 -43t-2.5 -36q0 -25 8.5 -38t24.5 -13q17 0 35 7.5t37 18.5l18 -29q-22 -19 -59.5 -39.5t-75.5 -20.5zM291 632
q-22 0 -36 12.5t-14 37.5q0 29 14.5 46t39.5 17q22 0 36 -12t14 -38q0 -35 -17 -49t-37 -14zM101 632q-22 0 -36 12.5t-14 37.5q0 29 14.5 46t39.5 17q22 0 36 -12t14 -38q0 -35 -17 -49t-37 -14z" />
    <glyph glyph-name="eth" unicode="&#xf0;" horiz-adv-x="574" 
d="M234 -10q-56 1 -99.5 22.5t-67.5 63.5t-24 104q0 41 11.5 86t34 88t57 77.5t81 55t105.5 20.5q30 0 53.5 -7t39.5 -20q-10 45 -28.5 81.5t-45.5 65t-61.5 49.5t-78.5 35l17 50q69 -18 124 -52.5t94.5 -85t60.5 -116t21 -145.5q0 -74 -17 -141t-53 -119t-91.5 -82
t-132.5 -30zM245 39q39 0 68.5 19t50.5 50.5t34.5 69t19.5 76t6 70.5q0 68 -25.5 99.5t-71.5 31.5q-39 0 -68.5 -19.5t-51 -51.5t-34.5 -70.5t-19.5 -77.5t-6.5 -72q0 -43 12 -70.5t34 -40.5t52 -14zM212 549l12 56l307 157l-13 -57z" />
    <glyph glyph-name="ntilde" unicode="&#xf1;" horiz-adv-x="599" 
d="M460 -10q-44 0 -67.5 28.5t-23.5 71.5q0 24 4.5 56.5t14.5 78.5l17 78q3 14 8 35t9 44t4 40q0 20 -8.5 39.5t-37.5 19.5q-31 0 -62 -23t-57.5 -59t-45 -74.5t-24.5 -68.5l-54 -256h-93l84 402q3 14 4.5 27.5t1.5 17.5q0 30 -20.5 38.5t-49.5 8.5h-8l9 42h185l-27 -126h10
q41 66 83.5 100.5t98.5 34.5q40 0 63 -15.5t33.5 -40.5t10.5 -55q0 -25 -6.5 -54.5t-11.5 -55.5l-26 -118q-6 -28 -9.5 -55t-3.5 -50t9.5 -35.5t25.5 -12.5t31.5 6t32.5 17l18 -29q-24 -20 -53.5 -38.5t-68.5 -18.5zM426 606q-27 0 -47 9.5t-36 22t-30.5 22t-30.5 9.5
q-30 0 -41 -16.5t-19 -36.5h-45q9 31 26 57.5t43 43.5t62 17q27 0 46.5 -9.5t35.5 -22t30.5 -22t30.5 -9.5q29 0 41 16.5t19 36.5h45q-8 -30 -25 -57t-43 -44t-62 -17z" />
    <glyph glyph-name="ograve" unicode="&#xf2;" horiz-adv-x="574" 
d="M235 -10q-85 0 -138.5 51.5t-53.5 155.5q0 44 11.5 92.5t35 94t59 82.5t83.5 58.5t109 21.5q53 0 96 -21t68.5 -66.5t25.5 -119.5q0 -43 -11 -90.5t-34 -93.5t-58 -83t-83 -59.5t-110 -22.5zM246 41q39 0 69 21t51 55.5t34.5 76t20 84t6.5 78.5q0 75 -26 107t-72 32
q-39 0 -69 -21t-51.5 -55.5t-35 -76.5t-20 -84.5t-6.5 -78.5q0 -50 12.5 -80.5t34.5 -44t52 -13.5zM358 606q-16 15 -34 34t-35 39t-32.5 40t-27.5 37l3 10h100q8 -20 19.5 -46.5t24 -53t23.5 -47.5l-3 -13h-38z" />
    <glyph glyph-name="oacute" unicode="&#xf3;" horiz-adv-x="574" 
d="M235 -10q-85 0 -138.5 51.5t-53.5 155.5q0 44 11.5 92.5t35 94t59 82.5t83.5 58.5t109 21.5q53 0 96 -21t68.5 -66.5t25.5 -119.5q0 -43 -11 -90.5t-34 -93.5t-58 -83t-83 -59.5t-110 -22.5zM246 41q39 0 69 21t51 55.5t34.5 76t20 84t6.5 78.5q0 75 -26 107t-72 32
q-39 0 -69 -21t-51.5 -55.5t-35 -76.5t-20 -84.5t-6.5 -78.5q0 -50 12.5 -80.5t34.5 -44t52 -13.5zM304 606l3 13q18 20 37 45t37 51.5t33 50.5h107l-3 -10q-12 -15 -32 -35t-44.5 -41.5t-49.5 -40.5t-48 -33h-40z" />
    <glyph glyph-name="ocircumflex" unicode="&#xf4;" horiz-adv-x="574" 
d="M235 -10q-85 0 -138.5 51.5t-53.5 155.5q0 44 11.5 92.5t35 94t59 82.5t83.5 58.5t109 21.5q53 0 96 -21t68.5 -66.5t25.5 -119.5q0 -43 -11 -90.5t-34 -93.5t-58 -83t-83 -59.5t-110 -22.5zM246 41q39 0 69 21t51 55.5t34.5 76t20 84t6.5 78.5q0 75 -26 107t-72 32
q-39 0 -69 -21t-51.5 -55.5t-35 -76.5t-20 -84.5t-6.5 -78.5q0 -50 12.5 -80.5t34.5 -44t52 -13.5zM195 619q20 19 44.5 45t48.5 53t39 49h95q6 -22 17.5 -49t25.5 -53t25 -45l-3 -13h-35q-16 11 -32.5 26t-30.5 31.5t-26 32.5q-18 -16 -39.5 -32.5t-44 -31.5t-44.5 -26h-43
z" />
    <glyph glyph-name="otilde" unicode="&#xf5;" horiz-adv-x="574" 
d="M235 -10q-85 0 -138.5 51.5t-53.5 155.5q0 44 11.5 92.5t35 94t59 82.5t83.5 58.5t109 21.5q53 0 96 -21t68.5 -66.5t25.5 -119.5q0 -43 -11 -90.5t-34 -93.5t-58 -83t-83 -59.5t-110 -22.5zM246 41q39 0 69 21t51 55.5t34.5 76t20 84t6.5 78.5q0 75 -26 107t-72 32
q-39 0 -69 -21t-51.5 -55.5t-35 -76.5t-20 -84.5t-6.5 -78.5q0 -50 12.5 -80.5t34.5 -44t52 -13.5zM420 606q-27 0 -47 9.5t-36 22t-30.5 22t-30.5 9.5q-30 0 -41 -16.5t-19 -36.5h-45q9 31 26 57.5t43 43.5t62 17q27 0 46.5 -9.5t35.5 -22t30.5 -22t30.5 -9.5q29 0 41 16.5
t19 36.5h45q-8 -30 -25 -57t-43 -44t-62 -17z" />
    <glyph glyph-name="odieresis" unicode="&#xf6;" horiz-adv-x="574" 
d="M235 -10q-85 0 -138.5 51.5t-53.5 155.5q0 44 11.5 92.5t35 94t59 82.5t83.5 58.5t109 21.5q53 0 96 -21t68.5 -66.5t25.5 -119.5q0 -43 -11 -90.5t-34 -93.5t-58 -83t-83 -59.5t-110 -22.5zM246 41q39 0 69 21t51 55.5t34.5 76t20 84t6.5 78.5q0 75 -26 107t-72 32
q-39 0 -69 -21t-51.5 -55.5t-35 -76.5t-20 -84.5t-6.5 -78.5q0 -50 12.5 -80.5t34.5 -44t52 -13.5zM443 632q-22 0 -36 12.5t-14 37.5q0 29 14.5 46t39.5 17q22 0 36 -12t14 -38q0 -35 -17 -49t-37 -14zM253 632q-22 0 -36 12.5t-14 37.5q0 29 14.5 46t39.5 17q22 0 36 -12
t14 -38q0 -35 -17 -49t-37 -14z" />
    <glyph glyph-name="divide" unicode="&#xf7;" horiz-adv-x="559" 
d="M65 328v59h429v-59h-429zM280 113q-22 0 -36.5 12t-14.5 43q0 32 14.5 43.5t36.5 11.5q21 0 36 -11.5t15 -43.5q0 -31 -15 -43t-36 -12zM280 492q-22 0 -36.5 12t-14.5 43q0 32 14.5 43.5t36.5 11.5q21 0 36 -11.5t15 -43.5q0 -31 -15 -43t-36 -12z" />
    <glyph glyph-name="oslash" unicode="&#xf8;" horiz-adv-x="574" 
d="M5 -50l511 636h58l-510 -636h-59zM235 -10q-85 0 -138.5 51.5t-53.5 155.5q0 44 11.5 92.5t35 94t59 82.5t83.5 58.5t109 21.5q53 0 96 -21t68.5 -66.5t25.5 -119.5q0 -43 -11 -90.5t-34 -93.5t-58 -83t-83 -59.5t-110 -22.5zM246 41q39 0 69 21t51 55.5t34.5 76t20 84
t6.5 78.5q0 75 -26 107t-72 32q-39 0 -69 -21t-51.5 -55.5t-35 -76.5t-20 -84.5t-6.5 -78.5q0 -50 12.5 -80.5t34.5 -44t52 -13.5z" />
    <glyph glyph-name="ugrave" unicode="&#xf9;" horiz-adv-x="599" 
d="M456 -10q-26 0 -45 13t-29 34.5t-10 47.5q0 11 1.5 27t3.5 32h-8q-28 -45 -55 -79.5t-60 -54t-78 -19.5q-39 0 -62.5 15.5t-34 41t-10.5 54.5q0 25 6 55t12 55l39 175q3 14 6 35t3 25q0 30 -20.5 38.5t-49.5 8.5h-8l9 42h186l-66 -299q-6 -27 -13 -63t-7 -58
q0 -25 10 -43t39 -18q27 0 56 20.5t56 54.5t47 75t29 82l52 249h97l-69 -321q-2 -11 -6 -32t-6.5 -43t-2.5 -36q0 -25 8.5 -38t24.5 -13q17 0 31 5.5t33 16.5l18 -29q-22 -19 -55.5 -37.5t-71.5 -18.5zM346 606q-16 15 -34 34t-35 39t-32.5 40t-27.5 37l3 10h100
q8 -20 19.5 -46.5t24 -53t23.5 -47.5l-3 -13h-38z" />
    <glyph glyph-name="uacute" unicode="&#xfa;" horiz-adv-x="599" 
d="M456 -10q-26 0 -45 13t-29 34.5t-10 47.5q0 11 1.5 27t3.5 32h-8q-28 -45 -55 -79.5t-60 -54t-78 -19.5q-39 0 -62.5 15.5t-34 41t-10.5 54.5q0 25 6 55t12 55l39 175q3 14 6 35t3 25q0 30 -20.5 38.5t-49.5 8.5h-8l9 42h186l-66 -299q-6 -27 -13 -63t-7 -58
q0 -25 10 -43t39 -18q27 0 56 20.5t56 54.5t47 75t29 82l52 249h97l-69 -321q-2 -11 -6 -32t-6.5 -43t-2.5 -36q0 -25 8.5 -38t24.5 -13q17 0 31 5.5t33 16.5l18 -29q-22 -19 -55.5 -37.5t-71.5 -18.5zM313 606l3 13q18 20 37 45t37 51.5t33 50.5h107l-3 -10
q-12 -15 -32 -35t-44.5 -41.5t-49.5 -40.5t-48 -33h-40z" />
    <glyph glyph-name="ucircumflex" unicode="&#xfb;" horiz-adv-x="599" 
d="M456 -10q-26 0 -45 13t-29 34.5t-10 47.5q0 11 1.5 27t3.5 32h-8q-28 -45 -55 -79.5t-60 -54t-78 -19.5q-39 0 -62.5 15.5t-34 41t-10.5 54.5q0 25 6 55t12 55l39 175q3 14 6 35t3 25q0 30 -20.5 38.5t-49.5 8.5h-8l9 42h186l-66 -299q-6 -27 -13 -63t-7 -58
q0 -25 10 -43t39 -18q27 0 56 20.5t56 54.5t47 75t29 82l52 249h97l-69 -321q-2 -11 -6 -32t-6.5 -43t-2.5 -36q0 -25 8.5 -38t24.5 -13q17 0 31 5.5t33 16.5l18 -29q-22 -19 -55.5 -37.5t-71.5 -18.5zM212 619q20 19 44.5 45t48.5 53t39 49h95q6 -22 17.5 -49t25.5 -53
t25 -45l-3 -13h-35q-16 11 -32.5 26t-30.5 31.5t-26 32.5q-18 -16 -39.5 -32.5t-44 -31.5t-44.5 -26h-43z" />
    <glyph glyph-name="udieresis" unicode="&#xfc;" horiz-adv-x="599" 
d="M456 -10q-26 0 -45 13t-29 34.5t-10 47.5q0 11 1.5 27t3.5 32h-8q-28 -45 -55 -79.5t-60 -54t-78 -19.5q-39 0 -62.5 15.5t-34 41t-10.5 54.5q0 25 6 55t12 55l39 175q3 14 6 35t3 25q0 30 -20.5 38.5t-49.5 8.5h-8l9 42h186l-66 -299q-6 -27 -13 -63t-7 -58
q0 -25 10 -43t39 -18q27 0 56 20.5t56 54.5t47 75t29 82l52 249h97l-69 -321q-2 -11 -6 -32t-6.5 -43t-2.5 -36q0 -25 8.5 -38t24.5 -13q17 0 31 5.5t33 16.5l18 -29q-22 -19 -55.5 -37.5t-71.5 -18.5zM469 632q-22 0 -36 12.5t-14 37.5q0 29 14.5 46t39.5 17q22 0 36 -12
t14 -38q0 -35 -17 -49t-37 -14zM279 632q-22 0 -36 12.5t-14 37.5q0 29 14.5 46t39.5 17q22 0 36 -12t14 -38q0 -35 -17 -49t-37 -14z" />
    <glyph glyph-name="yacute" unicode="&#xfd;" horiz-adv-x="528" 
d="M-68 -240q-25 0 -50 5t-44 13l15 50q12 -4 29.5 -7.5t48.5 -3.5q49 0 90.5 17.5t76.5 45t63.5 59t50.5 60.5l-132 442q-6 20 -14.5 31.5t-21.5 16.5t-33 5h-10l8 42h146l78 -270q8 -26 17 -62t16.5 -69t8.5 -50h3q38 58 68.5 117t48.5 114.5t18 100.5q0 14 -4.5 26.5
t-15 20t-29.5 7.5q0 36 20.5 55t44.5 19q32 0 50 -21t18 -63q0 -52 -21.5 -114.5t-61 -135t-93.5 -154.5q-49 -76 -90.5 -132t-83.5 -92.5t-93.5 -54.5t-121.5 -18zM258 606l3 13q18 20 37 45t37 51.5t33 50.5h107l-3 -10q-12 -15 -32 -35t-44.5 -41.5t-49.5 -40.5t-48 -33
h-40z" />
    <glyph glyph-name="thorn" unicode="&#xfe;" horiz-adv-x="562" 
d="M158 618q5 20 7 34.5t2 18.5q0 30 -20.5 38.5t-49.5 8.5h-8l9 42h184l-51 -240q-3 -13 -7 -29t-8.5 -33t-8.5 -32t-7 -24h6q20 39 46 72t60 52.5t78 19.5q61 0 95 -46.5t34 -134.5q0 -43 -12 -93.5t-35.5 -100.5t-59.5 -91t-84 -65.5t-108 -24.5q-29 0 -55 7t-45 17
q-1 -9 -2.5 -24t-3.5 -25l-13 -61q-3 -13 -6 -30.5t-3 -28.5q0 -24 16.5 -33.5t53.5 -9.5h13l-9 -42h-190zM217 35q38 0 69.5 22t56 59t41 80.5t25 88t8.5 81.5q0 29 -6 56t-20 44t-39 17q-23 0 -46 -14.5t-43.5 -38.5t-37.5 -53.5t-29 -59.5t-18 -56l-41 -190
q9 -11 30.5 -23.5t49.5 -12.5z" />
    <glyph glyph-name="ydieresis" unicode="&#xff;" horiz-adv-x="528" 
d="M-68 -240q-25 0 -50 5t-44 13l15 50q12 -4 29.5 -7.5t48.5 -3.5q49 0 90.5 17.5t76.5 45t63.5 59t50.5 60.5l-132 442q-6 20 -14.5 31.5t-21.5 16.5t-33 5h-10l8 42h146l78 -270q8 -26 17 -62t16.5 -69t8.5 -50h3q38 58 68.5 117t48.5 114.5t18 100.5q0 14 -4.5 26.5
t-15 20t-29.5 7.5q0 36 20.5 55t44.5 19q32 0 50 -21t18 -63q0 -52 -21.5 -114.5t-61 -135t-93.5 -154.5q-49 -76 -90.5 -132t-83.5 -92.5t-93.5 -54.5t-121.5 -18zM391 632q-22 0 -36 12.5t-14 37.5q0 29 14.5 46t39.5 17q22 0 36 -12t14 -38q0 -35 -17 -49t-37 -14z
M201 632q-22 0 -36 12.5t-14 37.5q0 29 14.5 46t39.5 17q22 0 36 -12t14 -38q0 -35 -17 -49t-37 -14z" />
    <glyph glyph-name="Amacron" unicode="&#x100;" horiz-adv-x="705" 
d="M-56 0l8 42h19q20 0 33.5 6t27 23t32.5 49l348 594h78l95 -619q3 -21 9.5 -32.5t18.5 -16t31 -4.5h13l-8 -42h-272l8 42h23q32 0 52 13.5t20 37.5q0 8 -0.5 17.5t-1.5 16.5l-48 337q-6 44 -10.5 83t-5.5 75q-10 -24 -21.5 -46.5t-25 -47t-31.5 -55.5l-197 -339
q-10 -18 -14.5 -31.5t-4.5 -24.5q0 -19 14 -27.5t42 -8.5h23l-8 -42h-247zM178 239v50h326v-50h-326zM311 771l13 59h290l-13 -59h-290z" />
    <glyph glyph-name="amacron" unicode="&#x101;" horiz-adv-x="579" 
d="M172 -10q-44 0 -73 24t-42.5 65.5t-13.5 93.5q0 47 12.5 98.5t37.5 100t61 88t83 63t104 23.5q24 0 45.5 -4.5t40 -12.5t31.5 -19l44 25h32l-68 -320q-2 -11 -6 -32t-6.5 -43t-2.5 -36q0 -25 8.5 -38t24.5 -13q17 0 35 7.5t37 18.5l18 -29q-14 -13 -38 -27t-51 -23.5
t-52 -9.5q-36 0 -57 22t-21 61q0 20 2.5 36.5t7.5 41.5h-6q-23 -51 -51.5 -87t-62 -55t-73.5 -19zM208 53q26 0 53.5 20t52 54t43.5 76t28 85l37 177q-11 18 -32 27t-44 9q-40 0 -72 -22.5t-56 -59.5t-40.5 -81t-24.5 -88.5t-8 -80.5q0 -62 18 -89t45 -27zM210 606l13 59
h290l-13 -59h-290z" />
    <glyph glyph-name="Abreve" unicode="&#x102;" horiz-adv-x="705" 
d="M-56 0l8 42h19q20 0 33.5 6t27 23t32.5 49l348 594h78l95 -619q3 -21 9.5 -32.5t18.5 -16t31 -4.5h13l-8 -42h-272l8 42h23q32 0 52 13.5t20 37.5q0 8 -0.5 17.5t-1.5 16.5l-48 337q-6 44 -10.5 83t-5.5 75q-10 -24 -21.5 -46.5t-25 -47t-31.5 -55.5l-197 -339
q-10 -18 -14.5 -31.5t-4.5 -24.5q0 -19 14 -27.5t42 -8.5h23l-8 -42h-247zM178 239v50h326v-50h-326zM457 771q-40 0 -67 16t-41.5 46.5t-17.5 74.5h46q4 -34 27 -51t60 -17t64.5 16t43.5 52h46q-9 -37 -30.5 -68.5t-54 -50t-76.5 -18.5z" />
    <glyph glyph-name="abreve" unicode="&#x103;" horiz-adv-x="579" 
d="M172 -10q-44 0 -73 24t-42.5 65.5t-13.5 93.5q0 47 12.5 98.5t37.5 100t61 88t83 63t104 23.5q24 0 45.5 -4.5t40 -12.5t31.5 -19l44 25h32l-68 -320q-2 -11 -6 -32t-6.5 -43t-2.5 -36q0 -25 8.5 -38t24.5 -13q17 0 35 7.5t37 18.5l18 -29q-14 -13 -38 -27t-51 -23.5
t-52 -9.5q-36 0 -57 22t-21 61q0 20 2.5 36.5t7.5 41.5h-6q-23 -51 -51.5 -87t-62 -55t-73.5 -19zM208 53q26 0 53.5 20t52 54t43.5 76t28 85l37 177q-11 18 -32 27t-44 9q-40 0 -72 -22.5t-56 -59.5t-40.5 -81t-24.5 -88.5t-8 -80.5q0 -62 18 -89t45 -27zM348 606
q-40 0 -67 16t-41.5 46.5t-17.5 74.5h46q4 -34 27 -51t60 -17t64.5 16t43.5 52h46q-9 -37 -30.5 -68.5t-54 -50t-76.5 -18.5z" />
    <glyph glyph-name="Aogonek" unicode="&#x104;" horiz-adv-x="705" 
d="M-56 0l8 42h19q20 0 33.5 6t27 23t32.5 49l348 594h78l95 -619q3 -21 9.5 -32.5t18.5 -16t31 -4.5h13l-8 -42h-272l8 42h23q32 0 52 13.5t20 37.5q0 8 -0.5 17.5t-1.5 16.5l-48 337q-6 44 -10.5 83t-5.5 75q-10 -24 -21.5 -46.5t-25 -47t-31.5 -55.5l-197 -339
q-10 -18 -14.5 -31.5t-4.5 -24.5q0 -19 14 -27.5t42 -8.5h23l-8 -42h-247zM178 239v50h326v-50h-326zM524 -240q-55 0 -86 26.5t-31 75.5q0 36 19 63.5t52.5 46t77.5 28.5h57q-23 -7 -51 -23t-48 -41t-20 -60q0 -25 16 -39.5t41 -14.5q14 0 30 2t35 6l-12 -54
q-17 -7 -37.5 -11.5t-42.5 -4.5z" />
    <glyph glyph-name="aogonek" unicode="&#x105;" horiz-adv-x="579" 
d="M172 -10q-44 0 -73 24t-42.5 65.5t-13.5 93.5q0 47 12.5 98.5t37.5 100t61 88t83 63t104 23.5q24 0 45.5 -4.5t40 -12.5t31.5 -19l44 25h32l-68 -320q-2 -11 -6 -32t-6.5 -43t-2.5 -36q0 -25 8.5 -38t24.5 -13q17 0 35 7.5t37 18.5l18 -29q-14 -13 -38 -27t-51 -23.5
t-52 -9.5q-36 0 -57 22t-21 61q0 20 2.5 36.5t7.5 41.5h-6q-23 -51 -51.5 -87t-62 -55t-73.5 -19zM208 53q26 0 53.5 20t52 54t43.5 76t28 85l37 177q-11 18 -32 27t-44 9q-40 0 -72 -22.5t-56 -59.5t-40.5 -81t-24.5 -88.5t-8 -80.5q0 -62 18 -89t45 -27zM390 -240
q-55 0 -86 26.5t-31 75.5q0 36 19 63.5t52.5 46t77.5 28.5h57q-23 -7 -51 -23t-48 -41t-20 -60q0 -25 16 -39.5t41 -14.5q14 0 30 2t35 6l-12 -54q-17 -7 -37.5 -11.5t-42.5 -4.5z" />
    <glyph glyph-name="Cacute" unicode="&#x106;" horiz-adv-x="627" 
d="M328 -10q-87 0 -148.5 31.5t-94.5 91.5t-33 145q0 89 29 172.5t83.5 149.5t130.5 105t169 39q89 0 137 -30.5t48 -80.5q0 -36 -27 -57t-71 -21q0 21 -3.5 44.5t-14 44.5t-30 34t-52.5 13q-55 0 -100.5 -26.5t-81 -71t-59.5 -100.5t-36.5 -115.5t-12.5 -115.5
q0 -59 20 -101t59.5 -64t98.5 -22q71 0 115.5 28.5t69.5 62.5q6 -4 9.5 -13t3.5 -20q0 -26 -21.5 -55t-67.5 -48.5t-120 -19.5zM437 771l3 13q18 20 37 45t37 51.5t33 50.5h107l-3 -10q-12 -15 -32 -35t-44.5 -41.5t-49.5 -40.5t-48 -33h-40z" />
    <glyph glyph-name="cacute" unicode="&#x107;" horiz-adv-x="487" 
d="M238 -10q-53 0 -97.5 23t-71 68.5t-26.5 115.5q0 44 12.5 92.5t36.5 94t60 82.5t83.5 58.5t105.5 21.5q50 0 82.5 -14t48 -35.5t15.5 -46.5q0 -19 -10.5 -35t-30 -25.5t-48.5 -9.5q0 48 -18.5 83t-58.5 35q-32 0 -59 -21.5t-48.5 -56t-36 -76t-22.5 -82.5t-8 -73
q0 -64 28 -100t82 -36q53 0 88 23t56 49q5 -3 7.5 -10t2.5 -15q0 -22 -18.5 -47.5t-56.5 -44t-98 -18.5zM308 606l3 13q18 20 37 45t37 51.5t33 50.5h107l-3 -10q-12 -15 -32 -35t-44.5 -41.5t-49.5 -40.5t-48 -33h-40z" />
    <glyph glyph-name="Ccircumflex" unicode="&#x108;" horiz-adv-x="627" 
d="M328 -10q-87 0 -148.5 31.5t-94.5 91.5t-33 145q0 89 29 172.5t83.5 149.5t130.5 105t169 39q89 0 137 -30.5t48 -80.5q0 -36 -27 -57t-71 -21q0 21 -3.5 44.5t-14 44.5t-30 34t-52.5 13q-55 0 -100.5 -26.5t-81 -71t-59.5 -100.5t-36.5 -115.5t-12.5 -115.5
q0 -59 20 -101t59.5 -64t98.5 -22q71 0 115.5 28.5t69.5 62.5q6 -4 9.5 -13t3.5 -20q0 -26 -21.5 -55t-67.5 -48.5t-120 -19.5zM327 784q20 19 44.5 45t48.5 53t39 49h95q6 -22 17.5 -49t25.5 -53t25 -45l-3 -13h-35q-16 11 -32.5 26t-30.5 31.5t-26 32.5
q-18 -16 -39.5 -32.5t-44 -31.5t-44.5 -26h-43z" />
    <glyph glyph-name="ccircumflex" unicode="&#x109;" horiz-adv-x="487" 
d="M238 -10q-53 0 -97.5 23t-71 68.5t-26.5 115.5q0 44 12.5 92.5t36.5 94t60 82.5t83.5 58.5t105.5 21.5q50 0 82.5 -14t48 -35.5t15.5 -46.5q0 -19 -10.5 -35t-30 -25.5t-48.5 -9.5q0 48 -18.5 83t-58.5 35q-32 0 -59 -21.5t-48.5 -56t-36 -76t-22.5 -82.5t-8 -73
q0 -64 28 -100t82 -36q53 0 88 23t56 49q5 -3 7.5 -10t2.5 -15q0 -22 -18.5 -47.5t-56.5 -44t-98 -18.5zM211 619q20 19 44.5 45t48.5 53t39 49h95q6 -22 17.5 -49t25.5 -53t25 -45l-3 -13h-35q-16 11 -32.5 26t-30.5 31.5t-26 32.5q-18 -16 -39.5 -32.5t-44 -31.5
t-44.5 -26h-43z" />
    <glyph glyph-name="Cdotaccent" unicode="&#x10a;" horiz-adv-x="627" 
d="M328 -10q-87 0 -148.5 31.5t-94.5 91.5t-33 145q0 89 29 172.5t83.5 149.5t130.5 105t169 39q89 0 137 -30.5t48 -80.5q0 -36 -27 -57t-71 -21q0 21 -3.5 44.5t-14 44.5t-30 34t-52.5 13q-55 0 -100.5 -26.5t-81 -71t-59.5 -100.5t-36.5 -115.5t-12.5 -115.5
q0 -59 20 -101t59.5 -64t98.5 -22q71 0 115.5 28.5t69.5 62.5q6 -4 9.5 -13t3.5 -20q0 -26 -21.5 -55t-67.5 -48.5t-120 -19.5zM503 801q-25 0 -40.5 13.5t-15.5 41.5q0 21 7.5 36.5t21 24.5t31.5 9q24 0 40 -13.5t16 -41.5q0 -26 -9 -41.5t-22.5 -22t-28.5 -6.5z" />
    <glyph glyph-name="cdotaccent" unicode="&#x10b;" horiz-adv-x="487" 
d="M238 -10q-53 0 -97.5 23t-71 68.5t-26.5 115.5q0 44 12.5 92.5t36.5 94t60 82.5t83.5 58.5t105.5 21.5q50 0 82.5 -14t48 -35.5t15.5 -46.5q0 -19 -10.5 -35t-30 -25.5t-48.5 -9.5q0 48 -18.5 83t-58.5 35q-32 0 -59 -21.5t-48.5 -56t-36 -76t-22.5 -82.5t-8 -73
q0 -64 28 -100t82 -36q53 0 88 23t56 49q5 -3 7.5 -10t2.5 -15q0 -22 -18.5 -47.5t-56.5 -44t-98 -18.5zM372 636q-25 0 -40.5 13.5t-15.5 41.5q0 21 7.5 36.5t21 24.5t31.5 9q24 0 40 -13.5t16 -41.5q0 -26 -9 -41.5t-22.5 -22t-28.5 -6.5z" />
    <glyph glyph-name="Ccaron" unicode="&#x10c;" horiz-adv-x="627" 
d="M328 -10q-87 0 -148.5 31.5t-94.5 91.5t-33 145q0 89 29 172.5t83.5 149.5t130.5 105t169 39q89 0 137 -30.5t48 -80.5q0 -36 -27 -57t-71 -21q0 21 -3.5 44.5t-14 44.5t-30 34t-52.5 13q-55 0 -100.5 -26.5t-81 -71t-59.5 -100.5t-36.5 -115.5t-12.5 -115.5
q0 -59 20 -101t59.5 -64t98.5 -22q71 0 115.5 28.5t69.5 62.5q6 -4 9.5 -13t3.5 -20q0 -26 -21.5 -55t-67.5 -48.5t-120 -19.5zM491 771q-7 24 -19 51t-24.5 52t-24.5 44l3 13h36q15 -12 30 -27t29 -31.5t26 -32.5q19 16 41 32.5t46 32t45 26.5h42l-3 -13q-19 -19 -43 -44
t-47 -51.5t-42 -51.5h-95z" />
    <glyph glyph-name="ccaron" unicode="&#x10d;" horiz-adv-x="487" 
d="M238 -10q-53 0 -97.5 23t-71 68.5t-26.5 115.5q0 44 12.5 92.5t36.5 94t60 82.5t83.5 58.5t105.5 21.5q50 0 82.5 -14t48 -35.5t15.5 -46.5q0 -19 -10.5 -35t-30 -25.5t-48.5 -9.5q0 48 -18.5 83t-58.5 35q-32 0 -59 -21.5t-48.5 -56t-36 -76t-22.5 -82.5t-8 -73
q0 -64 28 -100t82 -36q53 0 88 23t56 49q5 -3 7.5 -10t2.5 -15q0 -22 -18.5 -47.5t-56.5 -44t-98 -18.5zM358 606q-7 24 -19 51t-24.5 52t-24.5 44l3 13h36q15 -12 30 -27t29 -31.5t26 -32.5q19 16 41 32.5t46 32t45 26.5h42l-3 -13q-19 -19 -43 -44t-47 -51.5t-42 -51.5
h-95z" />
    <glyph glyph-name="Dcaron" unicode="&#x10e;" horiz-adv-x="725" 
d="M-21 0l8 42h13q23 0 42.5 5t34.5 20.5t21 46.5l104 490q2 7 3 14.5t1 13.5q0 27 -22.5 33.5t-49.5 6.5h-13l9 42h280q135 0 209.5 -69.5t74.5 -202.5q0 -89 -26 -169t-77 -141.5t-125.5 -96.5t-171.5 -35h-315zM272 51q74 0 132 29.5t98.5 83t61.5 127.5t21 162
q0 110 -51.5 160.5t-138.5 50.5h-79l-131 -613h87zM430 771q-7 24 -19 51t-24.5 52t-24.5 44l3 13h36q15 -12 30 -27t29 -31.5t26 -32.5q19 16 41 32.5t46 32t45 26.5h42l-3 -13q-19 -19 -43 -44t-47 -51.5t-42 -51.5h-95z" />
    <glyph glyph-name="dcaron" unicode="&#x10f;" horiz-adv-x="579" 
d="M595 613q10 22 20.5 47t20.5 50.5t18 49.5h87l-2 -10q-13 -21 -32.5 -48t-40.5 -54t-39 -48h-34zM172 -10q-44 0 -73 24t-42.5 65.5t-13.5 93.5q0 47 12.5 98.5t37.5 100t61 88t83 63t104 23.5q29 0 54.5 -7t44.5 -18q2 13 5 30.5t5 26.5l10 48q3 14 5 26.5t2 18.5
q0 30 -20.5 38.5t-49.5 8.5h-8l9 42h184l-116 -545q-2 -11 -6 -32t-6.5 -43t-2.5 -36q0 -25 8.5 -38t24.5 -13q17 0 35 7.5t37 18.5l18 -29q-14 -13 -38 -27t-51 -23.5t-52 -9.5q-36 0 -57 22t-21 61q0 13 2.5 33t7.5 45h-6q-34 -77 -81 -119t-106 -42zM208 53q26 0 53.5 20
t52 54t43.5 76t28 85l37 177q-11 18 -32 27t-44 9q-40 0 -72 -22.5t-56 -59.5t-40.5 -81t-24.5 -88.5t-8 -80.5q0 -62 18 -89t45 -27z" />
    <glyph glyph-name="Dcroat" unicode="&#x110;" horiz-adv-x="725" 
d="M51 349l11 49h366l-11 -49h-366zM-21 0l8 42h13q23 0 42.5 5t34.5 20.5t21 46.5l104 490q2 7 3 14.5t1 13.5q0 27 -22.5 33.5t-49.5 6.5h-13l9 42h280q135 0 209.5 -69.5t74.5 -202.5q0 -89 -26 -169t-77 -141.5t-125.5 -96.5t-171.5 -35h-315zM272 51q74 0 132 29.5
t98.5 83t61.5 127.5t21 162q0 110 -51.5 160.5t-138.5 50.5h-79l-131 -613h87z" />
    <glyph glyph-name="dcroat" unicode="&#x111;" horiz-adv-x="578" 
d="M171 -10q-44 0 -73 24t-42.5 65.5t-13.5 93.5q0 44 12.5 92.5t37 94.5t60.5 83.5t82.5 60t103.5 22.5q29 0 54.5 -7t44.5 -18q2 14 6.5 41l8.5 51h-171l9 47h171l3 10q5 24 0 39t-21.5 22t-46.5 7h-8l9 42h184l-26 -120h91l-9 -47h-92l-80 -378q-2 -11 -6 -32t-6.5 -43
t-2.5 -36q0 -25 8.5 -38t24.5 -13q17 0 35 7.5t37 18.5l18 -29q-14 -13 -38 -27t-51 -23.5t-52 -9.5q-36 0 -57 22t-21 61q0 13 2.5 33t7.5 45h-6q-34 -77 -81 -119t-106 -42zM207 53q26 0 53 20t51.5 54t43.5 76t29 85l35 157q-11 18 -32 27t-44 9q-40 0 -71.5 -21.5
t-55.5 -56t-40 -76t-24 -83t-8 -75.5q0 -62 18 -89t45 -27z" />
    <glyph glyph-name="Emacron" unicode="&#x112;" horiz-adv-x="623" 
d="M-21 0l8 42h13q22 0 41.5 4.5t34.5 18.5t21 44l104 491q2 7 2.5 13t0.5 11q0 32 -20.5 40t-49.5 8h-13l9 42h504l-32 -175h-52q1 5 2 18t2 25.5t1 14.5q0 28 -16 47.5t-55 19.5h-168l-57 -266h241l-10 -49h-241l-64 -299h193q32 0 54 11.5t36.5 30t22.5 40.5l16 43h52
l-44 -175h-536zM263 771l13 59h290l-13 -59h-290z" />
    <glyph glyph-name="emacron" unicode="&#x113;" horiz-adv-x="493" 
d="M238 -10q-53 0 -97.5 23t-71 68.5t-26.5 115.5q0 44 12.5 92.5t36.5 94t60 82.5t83.5 58.5t105.5 21.5q63 0 98 -30.5t35 -84.5q0 -52 -37.5 -98t-103 -74t-149.5 -28h-35q-1 -11 -1.5 -21.5t-0.5 -20.5q0 -64 28 -100t82 -36q48 0 85.5 23t58.5 49q10 -7 10 -25
q0 -22 -18.5 -47.5t-56.5 -44t-98 -18.5zM168 277q59 0 104.5 19.5t72 54t26.5 80.5q0 34 -15 50.5t-43 16.5t-53 -19.5t-45 -52t-34.5 -71.5t-22.5 -78h10zM201 606l13 59h290l-13 -59h-290z" />
    <glyph glyph-name="Ebreve" unicode="&#x114;" horiz-adv-x="623" 
d="M-21 0l8 42h13q22 0 41.5 4.5t34.5 18.5t21 44l104 491q2 7 2.5 13t0.5 11q0 32 -20.5 40t-49.5 8h-13l9 42h504l-32 -175h-52q1 5 2 18t2 25.5t1 14.5q0 28 -16 47.5t-55 19.5h-168l-57 -266h241l-10 -49h-241l-64 -299h193q32 0 54 11.5t36.5 30t22.5 40.5l16 43h52
l-44 -175h-536zM402 771q-40 0 -67 16t-41.5 46.5t-17.5 74.5h46q4 -34 27 -51t60 -17t64.5 16t43.5 52h46q-9 -37 -30.5 -68.5t-54 -50t-76.5 -18.5z" />
    <glyph glyph-name="ebreve" unicode="&#x115;" horiz-adv-x="493" 
d="M238 -10q-53 0 -97.5 23t-71 68.5t-26.5 115.5q0 44 12.5 92.5t36.5 94t60 82.5t83.5 58.5t105.5 21.5q63 0 98 -30.5t35 -84.5q0 -52 -37.5 -98t-103 -74t-149.5 -28h-35q-1 -11 -1.5 -21.5t-0.5 -20.5q0 -64 28 -100t82 -36q48 0 85.5 23t58.5 49q10 -7 10 -25
q0 -22 -18.5 -47.5t-56.5 -44t-98 -18.5zM168 277q59 0 104.5 19.5t72 54t26.5 80.5q0 34 -15 50.5t-43 16.5t-53 -19.5t-45 -52t-34.5 -71.5t-22.5 -78h10zM338 606q-40 0 -67 16t-41.5 46.5t-17.5 74.5h46q4 -34 27 -51t60 -17t64.5 16t43.5 52h46q-9 -37 -30.5 -68.5
t-54 -50t-76.5 -18.5z" />
    <glyph glyph-name="Edotaccent" unicode="&#x116;" horiz-adv-x="623" 
d="M-21 0l8 42h13q22 0 41.5 4.5t34.5 18.5t21 44l104 491q2 7 2.5 13t0.5 11q0 32 -20.5 40t-49.5 8h-13l9 42h504l-32 -175h-52q1 5 2 18t2 25.5t1 14.5q0 28 -16 47.5t-55 19.5h-168l-57 -266h241l-10 -49h-241l-64 -299h193q32 0 54 11.5t36.5 30t22.5 40.5l16 43h52
l-44 -175h-536zM411 787q-25 0 -40.5 13.5t-15.5 41.5q0 21 7.5 36.5t21 24.5t31.5 9q24 0 40 -13.5t16 -41.5q0 -26 -9 -41.5t-22.5 -22t-28.5 -6.5z" />
    <glyph glyph-name="edotaccent" unicode="&#x117;" horiz-adv-x="493" 
d="M238 -10q-53 0 -97.5 23t-71 68.5t-26.5 115.5q0 44 12.5 92.5t36.5 94t60 82.5t83.5 58.5t105.5 21.5q63 0 98 -30.5t35 -84.5q0 -52 -37.5 -98t-103 -74t-149.5 -28h-35q-1 -11 -1.5 -21.5t-0.5 -20.5q0 -64 28 -100t82 -36q48 0 85.5 23t58.5 49q10 -7 10 -25
q0 -22 -18.5 -47.5t-56.5 -44t-98 -18.5zM168 277q59 0 104.5 19.5t72 54t26.5 80.5q0 34 -15 50.5t-43 16.5t-53 -19.5t-45 -52t-34.5 -71.5t-22.5 -78h10zM353 636q-25 0 -40.5 13.5t-15.5 41.5q0 21 7.5 36.5t21 24.5t31.5 9q24 0 40 -13.5t16 -41.5q0 -26 -9 -41.5
t-22.5 -22t-28.5 -6.5z" />
    <glyph glyph-name="Eogonek" unicode="&#x118;" horiz-adv-x="623" 
d="M-21 0l8 42h13q22 0 41.5 4.5t34.5 18.5t21 44l104 491q2 7 2.5 13t0.5 11q0 32 -20.5 40t-49.5 8h-13l9 42h504l-32 -175h-52q1 5 2 18t2 25.5t1 14.5q0 28 -16 47.5t-55 19.5h-168l-57 -266h241l-10 -49h-241l-64 -299h193q32 0 54 11.5t36.5 30t22.5 40.5l16 43h52
l-44 -175h-536zM376 -240q-55 0 -86 26.5t-31 75.5q0 36 19 63.5t52.5 46t77.5 28.5h57q-23 -7 -51 -23t-48 -41t-20 -60q0 -25 16 -39.5t41 -14.5q14 0 30 2t35 6l-12 -54q-17 -7 -37.5 -11.5t-42.5 -4.5z" />
    <glyph glyph-name="eogonek" unicode="&#x119;" horiz-adv-x="493" 
d="M238 -10q-53 0 -97.5 23t-71 68.5t-26.5 115.5q0 44 12.5 92.5t36.5 94t60 82.5t83.5 58.5t105.5 21.5q63 0 98 -30.5t35 -84.5q0 -52 -37.5 -98t-103 -74t-149.5 -28h-35q-1 -11 -1.5 -21.5t-0.5 -20.5q0 -64 28 -100t82 -36q48 0 85.5 23t58.5 49q10 -7 10 -25
q0 -22 -18.5 -47.5t-56.5 -44t-98 -18.5zM168 277q59 0 104.5 19.5t72 54t26.5 80.5q0 34 -15 50.5t-43 16.5t-53 -19.5t-45 -52t-34.5 -71.5t-22.5 -78h10zM258 -225q-55 0 -86 26.5t-31 75.5q0 36 19 63.5t52.5 46t77.5 28.5h57q-23 -7 -51 -23t-48 -41t-20 -60
q0 -25 16 -39.5t41 -14.5q14 0 30 2t35 6l-12 -54q-17 -7 -37.5 -11.5t-42.5 -4.5z" />
    <glyph glyph-name="Ecaron" unicode="&#x11a;" horiz-adv-x="623" 
d="M-21 0l8 42h13q22 0 41.5 4.5t34.5 18.5t21 44l104 491q2 7 2.5 13t0.5 11q0 32 -20.5 40t-49.5 8h-13l9 42h504l-32 -175h-52q1 5 2 18t2 25.5t1 14.5q0 28 -16 47.5t-55 19.5h-168l-57 -266h241l-10 -49h-241l-64 -299h193q32 0 54 11.5t36.5 30t22.5 40.5l16 43h52
l-44 -175h-536zM410 771q-7 24 -19 51t-24.5 52t-24.5 44l3 13h36q15 -12 30 -27t29 -31.5t26 -32.5q19 16 41 32.5t46 32t45 26.5h42l-3 -13q-19 -19 -43 -44t-47 -51.5t-42 -51.5h-95z" />
    <glyph glyph-name="ecaron" unicode="&#x11b;" horiz-adv-x="493" 
d="M238 -10q-53 0 -97.5 23t-71 68.5t-26.5 115.5q0 44 12.5 92.5t36.5 94t60 82.5t83.5 58.5t105.5 21.5q63 0 98 -30.5t35 -84.5q0 -52 -37.5 -98t-103 -74t-149.5 -28h-35q-1 -11 -1.5 -21.5t-0.5 -20.5q0 -64 28 -100t82 -36q48 0 85.5 23t58.5 49q10 -7 10 -25
q0 -22 -18.5 -47.5t-56.5 -44t-98 -18.5zM168 277q59 0 104.5 19.5t72 54t26.5 80.5q0 34 -15 50.5t-43 16.5t-53 -19.5t-45 -52t-34.5 -71.5t-22.5 -78h10zM362 606q-7 24 -19 51t-24.5 52t-24.5 44l3 13h36q15 -12 30 -27t29 -31.5t26 -32.5q19 16 41 32.5t46 32t45 26.5
h42l-3 -13q-19 -19 -43 -44t-47 -51.5t-42 -51.5h-95z" />
    <glyph glyph-name="Gcircumflex" unicode="&#x11c;" horiz-adv-x="714" 
d="M336 -10q-141 0 -212.5 72t-71.5 196q0 97 31 181.5t88 148.5t136 100t175 36q71 0 118 -14.5t70 -39t23 -54.5q0 -26 -14.5 -43.5t-38.5 -26.5t-53 -9q0 59 -30 96.5t-96 37.5q-64 0 -118.5 -35t-95.5 -95t-63.5 -137t-22.5 -162q0 -57 19.5 -101t62 -69t111.5 -25
q29 0 60 4t53 10l33 159q2 6 3 15t1 13q0 26 -21.5 33t-50.5 7h-9l9 42h266l-9 -42h-4q-18 0 -35 -5t-30 -20t-20 -47l-38 -180q-55 -23 -108 -34.5t-118 -11.5zM327 784q20 19 44.5 45t48.5 53t39 49h95q6 -22 17.5 -49t25.5 -53t25 -45l-3 -13h-35q-16 11 -32.5 26
t-30.5 31.5t-26 32.5q-18 -16 -39.5 -32.5t-44 -31.5t-44.5 -26h-43z" />
    <glyph glyph-name="gcircumflex" unicode="&#x11d;" horiz-adv-x="556" 
d="M183 -240q-73 0 -121.5 15t-72.5 44t-24 71t23.5 71t61 47t78.5 26q-19 9 -33.5 27t-14.5 42q0 32 21 53.5t74 48.5q-33 15 -51.5 45t-18.5 73q0 35 14 74t42.5 73t72.5 55t103 21q30 0 56.5 -7.5t46.5 -24.5q20 29 47 50t61 21q25 0 37.5 -13t12.5 -33q0 -14 -5.5 -28.5
t-18 -24t-35.5 -9.5q0 15 -7 25.5t-21 10.5t-26 -7.5t-23 -15.5q11 -15 16.5 -34.5t5.5 -42.5q0 -34 -13.5 -72.5t-41.5 -73t-71.5 -56.5t-102.5 -22h-10.5t-11 0.5t-10.5 1.5q-22 -10 -46.5 -25t-24.5 -38q0 -16 14.5 -22t36.5 -8l96 -10q74 -7 114.5 -39t40.5 -92
q0 -45 -17 -81.5t-51 -62t-84.5 -39.5t-118.5 -14zM187 -191q66 0 105.5 16.5t57 44t17.5 59.5t-22 51t-71 23l-97 9q-34 -4 -64 -17.5t-48.5 -38t-18.5 -60.5q0 -25 13 -45t44 -31t84 -11zM266 237q34 0 58 18.5t39.5 47t22.5 59.5t7 56q0 43 -18.5 62.5t-50.5 19.5
q-34 0 -58 -18.5t-39.5 -47t-22.5 -59.5t-7 -56q0 -43 19 -62.5t50 -19.5zM188 619q20 19 44.5 45t48.5 53t39 49h95q6 -22 17.5 -49t25.5 -53t25 -45l-3 -13h-35q-16 11 -32.5 26t-30.5 31.5t-26 32.5q-18 -16 -39.5 -32.5t-44 -31.5t-44.5 -26h-43z" />
    <glyph glyph-name="Gbreve" unicode="&#x11e;" horiz-adv-x="714" 
d="M336 -10q-141 0 -212.5 72t-71.5 196q0 97 31 181.5t88 148.5t136 100t175 36q71 0 118 -14.5t70 -39t23 -54.5q0 -26 -14.5 -43.5t-38.5 -26.5t-53 -9q0 59 -30 96.5t-96 37.5q-64 0 -118.5 -35t-95.5 -95t-63.5 -137t-22.5 -162q0 -57 19.5 -101t62 -69t111.5 -25
q29 0 60 4t53 10l33 159q2 6 3 15t1 13q0 26 -21.5 33t-50.5 7h-9l9 42h266l-9 -42h-4q-18 0 -35 -5t-30 -20t-20 -47l-38 -180q-55 -23 -108 -34.5t-118 -11.5zM469 771q-40 0 -67 16t-41.5 46.5t-17.5 74.5h46q4 -34 27 -51t60 -17t64.5 16t43.5 52h46q-9 -37 -30.5 -68.5
t-54 -50t-76.5 -18.5z" />
    <glyph glyph-name="gbreve" unicode="&#x11f;" horiz-adv-x="556" 
d="M183 -240q-73 0 -121.5 15t-72.5 44t-24 71t23.5 71t61 47t78.5 26q-19 9 -33.5 27t-14.5 42q0 32 21 53.5t74 48.5q-33 15 -51.5 45t-18.5 73q0 35 14 74t42.5 73t72.5 55t103 21q30 0 56.5 -7.5t46.5 -24.5q20 29 47 50t61 21q25 0 37.5 -13t12.5 -33q0 -14 -5.5 -28.5
t-18 -24t-35.5 -9.5q0 15 -7 25.5t-21 10.5t-26 -7.5t-23 -15.5q11 -15 16.5 -34.5t5.5 -42.5q0 -34 -13.5 -72.5t-41.5 -73t-71.5 -56.5t-102.5 -22h-10.5t-11 0.5t-10.5 1.5q-22 -10 -46.5 -25t-24.5 -38q0 -16 14.5 -22t36.5 -8l96 -10q74 -7 114.5 -39t40.5 -92
q0 -45 -17 -81.5t-51 -62t-84.5 -39.5t-118.5 -14zM187 -191q66 0 105.5 16.5t57 44t17.5 59.5t-22 51t-71 23l-97 9q-34 -4 -64 -17.5t-48.5 -38t-18.5 -60.5q0 -25 13 -45t44 -31t84 -11zM266 237q34 0 58 18.5t39.5 47t22.5 59.5t7 56q0 43 -18.5 62.5t-50.5 19.5
q-34 0 -58 -18.5t-39.5 -47t-22.5 -59.5t-7 -56q0 -43 19 -62.5t50 -19.5zM346 606q-40 0 -67 16t-41.5 46.5t-17.5 74.5h46q4 -34 27 -51t60 -17t64.5 16t43.5 52h46q-9 -37 -30.5 -68.5t-54 -50t-76.5 -18.5z" />
    <glyph glyph-name="Gdotaccent" unicode="&#x120;" horiz-adv-x="714" 
d="M336 -10q-141 0 -212.5 72t-71.5 196q0 97 31 181.5t88 148.5t136 100t175 36q71 0 118 -14.5t70 -39t23 -54.5q0 -26 -14.5 -43.5t-38.5 -26.5t-53 -9q0 59 -30 96.5t-96 37.5q-64 0 -118.5 -35t-95.5 -95t-63.5 -137t-22.5 -162q0 -57 19.5 -101t62 -69t111.5 -25
q29 0 60 4t53 10l33 159q2 6 3 15t1 13q0 26 -21.5 33t-50.5 7h-9l9 42h266l-9 -42h-4q-18 0 -35 -5t-30 -20t-20 -47l-38 -180q-55 -23 -108 -34.5t-118 -11.5zM501 801q-25 0 -40.5 13.5t-15.5 41.5q0 21 7.5 36.5t21 24.5t31.5 9q24 0 40 -13.5t16 -41.5q0 -26 -9 -41.5
t-22.5 -22t-28.5 -6.5z" />
    <glyph glyph-name="gdotaccent" unicode="&#x121;" horiz-adv-x="556" 
d="M183 -240q-73 0 -121.5 15t-72.5 44t-24 71t23.5 71t61 47t78.5 26q-19 9 -33.5 27t-14.5 42q0 32 21 53.5t74 48.5q-33 15 -51.5 45t-18.5 73q0 35 14 74t42.5 73t72.5 55t103 21q30 0 56.5 -7.5t46.5 -24.5q20 29 47 50t61 21q25 0 37.5 -13t12.5 -33q0 -14 -5.5 -28.5
t-18 -24t-35.5 -9.5q0 15 -7 25.5t-21 10.5t-26 -7.5t-23 -15.5q11 -15 16.5 -34.5t5.5 -42.5q0 -34 -13.5 -72.5t-41.5 -73t-71.5 -56.5t-102.5 -22h-10.5t-11 0.5t-10.5 1.5q-22 -10 -46.5 -25t-24.5 -38q0 -16 14.5 -22t36.5 -8l96 -10q74 -7 114.5 -39t40.5 -92
q0 -45 -17 -81.5t-51 -62t-84.5 -39.5t-118.5 -14zM187 -191q66 0 105.5 16.5t57 44t17.5 59.5t-22 51t-71 23l-97 9q-34 -4 -64 -17.5t-48.5 -38t-18.5 -60.5q0 -25 13 -45t44 -31t84 -11zM266 237q34 0 58 18.5t39.5 47t22.5 59.5t7 56q0 43 -18.5 62.5t-50.5 19.5
q-34 0 -58 -18.5t-39.5 -47t-22.5 -59.5t-7 -56q0 -43 19 -62.5t50 -19.5zM365 636q-25 0 -40.5 13.5t-15.5 41.5q0 21 7.5 36.5t21 24.5t31.5 9q24 0 40 -13.5t16 -41.5q0 -26 -9 -41.5t-22.5 -22t-28.5 -6.5z" />
    <glyph glyph-name="uni0122" unicode="&#x122;" horiz-adv-x="714" 
d="M336 -10q-141 0 -212.5 72t-71.5 196q0 97 31 181.5t88 148.5t136 100t175 36q71 0 118 -14.5t70 -39t23 -54.5q0 -26 -14.5 -43.5t-38.5 -26.5t-53 -9q0 59 -30 96.5t-96 37.5q-64 0 -118.5 -35t-95.5 -95t-63.5 -137t-22.5 -162q0 -57 19.5 -101t62 -69t111.5 -25
q29 0 60 4t53 10l33 159q2 6 3 15t1 13q0 26 -21.5 33t-50.5 7h-9l9 42h266l-9 -42h-4q-18 0 -35 -5t-30 -20t-20 -47l-38 -180q-55 -23 -108 -34.5t-118 -11.5zM198 -208q15 33 30.5 72t28.5 75h87l-2 -10q-10 -16 -23.5 -35t-29 -39.5t-30.5 -40t-29 -35.5h-34z" />
    <glyph glyph-name="uni0123" unicode="&#x123;" horiz-adv-x="556" 
d="M307 616q13 21 32.5 48t40.5 54t39 48h34l-2 -13q-15 -33 -30.5 -72t-28.5 -75h-87zM183 -240q-73 0 -121.5 15t-72.5 44t-24 71t23.5 71t61 47t78.5 26q-19 9 -33.5 27t-14.5 42q0 32 21 53.5t74 48.5q-33 15 -51.5 45t-18.5 73q0 35 14 74t42.5 73t72.5 55t103 21
q30 0 56.5 -7.5t46.5 -24.5q20 29 47 50t61 21q25 0 37.5 -13t12.5 -33q0 -14 -5.5 -28.5t-18 -24t-35.5 -9.5q0 15 -7 25.5t-21 10.5t-26 -7.5t-23 -15.5q11 -15 16.5 -34.5t5.5 -42.5q0 -34 -13.5 -72.5t-41.5 -73t-71.5 -56.5t-102.5 -22h-10.5t-11 0.5t-10.5 1.5
q-22 -10 -46.5 -25t-24.5 -38q0 -16 14.5 -22t36.5 -8l96 -10q74 -7 114.5 -39t40.5 -92q0 -45 -17 -81.5t-51 -62t-84.5 -39.5t-118.5 -14zM187 -191q66 0 105.5 16.5t57 44t17.5 59.5t-22 51t-71 23l-97 9q-34 -4 -64 -17.5t-48.5 -38t-18.5 -60.5q0 -25 13 -45t44 -31
t84 -11zM266 237q34 0 58 18.5t39.5 47t22.5 59.5t7 56q0 43 -18.5 62.5t-50.5 19.5q-34 0 -58 -18.5t-39.5 -47t-22.5 -59.5t-7 -56q0 -43 19 -62.5t50 -19.5z" />
    <glyph glyph-name="Hcircumflex" unicode="&#x124;" horiz-adv-x="793" 
d="M-21 0l8 42h13q23 0 42.5 5t34.5 20.5t21 46.5l104 490q2 6 3 15t1 13q0 17 -9 25.5t-25.5 11.5t-37.5 3h-13l9 42h291l-9 -42h-13q-22 0 -42 -5t-34 -20t-21 -47l-43 -202h325l44 206q2 6 3 15t1 13q0 26 -20 33t-52 7h-13l9 42h291l-9 -42h-13q-22 0 -42 -5t-34 -20
t-21 -47l-104 -490q-1 -6 -2.5 -14.5t-1.5 -13.5q0 -17 9.5 -25.5t25.5 -11.5t37 -3h13l-9 -42h-291l8 42h13q23 0 42.5 5t34.5 20.5t21 46.5l49 234h-325l-50 -238q-1 -6 -2.5 -14.5t-1.5 -13.5q0 -25 20.5 -32.5t51.5 -7.5h13l-9 -42h-291zM361 784q20 19 44.5 45t48.5 53
t39 49h95q6 -22 17.5 -49t25.5 -53t25 -45l-3 -13h-35q-16 11 -32.5 26t-30.5 31.5t-26 32.5q-18 -16 -39.5 -32.5t-44 -31.5t-44.5 -26h-43z" />
    <glyph glyph-name="hcircumflex" unicode="&#x125;" horiz-adv-x="599" 
d="M460 -10q-44 0 -67.5 28.5t-23.5 71.5q0 24 4.5 56.5t14.5 78.5l17 78q3 14 8 35t9 44t4 40q0 20 -8.5 39.5t-37.5 19.5q-31 0 -62 -23t-57.5 -59t-45 -74.5t-24.5 -68.5l-54 -256h-93l130 618q5 20 7 34.5t2 18.5q0 20 -9.5 30t-25.5 13.5t-35 3.5h-8l9 42h184l-39 -184
q-11 -53 -23 -100t-17 -66h11q41 66 85 100.5t100 34.5q40 0 63 -15.5t33.5 -40.5t10.5 -55q0 -25 -6.5 -54.5t-11.5 -55.5l-26 -118q-6 -28 -9.5 -55t-3.5 -50t9.5 -35.5t25.5 -12.5t31.5 6t32.5 17l18 -29q-24 -20 -53.5 -38.5t-68.5 -18.5zM251 811q20 19 44.5 45
t48.5 53t39 49h95q6 -22 17.5 -49t25.5 -53t25 -45l-3 -13h-35q-16 11 -32.5 26t-30.5 31.5t-26 32.5q-18 -16 -39.5 -32.5t-44 -31.5t-44.5 -26h-43z" />
    <glyph glyph-name="Hbar" unicode="&#x126;" horiz-adv-x="793" 
d="M85 499l9 49h717l-9 -49h-717zM-21 0l8 42h13q23 0 42.5 5t34.5 20.5t21 46.5l104 490q2 6 3 15t1 13q0 17 -9 25.5t-25.5 11.5t-37.5 3h-13l9 42h291l-9 -42h-13q-22 0 -42 -5t-34 -20t-21 -47l-43 -202h325l44 206q2 6 3 15t1 13q0 26 -20 33t-52 7h-13l9 42h291
l-9 -42h-13q-22 0 -42 -5t-34 -20t-21 -47l-104 -490q-1 -6 -2.5 -14.5t-1.5 -13.5q0 -17 9.5 -25.5t25.5 -11.5t37 -3h13l-9 -42h-291l8 42h13q23 0 42.5 5t34.5 20.5t21 46.5l49 234h-325l-50 -238q-1 -6 -2.5 -14.5t-1.5 -13.5q0 -25 20.5 -32.5t51.5 -7.5h13l-9 -42
h-291z" />
    <glyph glyph-name="hbar" unicode="&#x127;" horiz-adv-x="599" 
d="M460 -10q-44 0 -67.5 28.5t-23.5 71.5q0 24 4.5 56.5t14.5 78.5l13 58q3 14 8 35t9 44t4 40q0 20 -8.5 39.5t-37.5 19.5q-31 0 -62 -23t-57.5 -59t-45 -74.5t-24.5 -68.5l-50 -236h-93l124 593h-90l9 47h91q2 11 3.5 19.5t1.5 11.5q0 20 -9.5 30t-25.5 13.5t-35 3.5h-8
l9 42h184l-26 -120h171l-9 -47h-172l-3 -17q-7 -35 -16 -73.5t-16.5 -69t-11.5 -43.5h11q41 66 85 100.5t100 34.5q40 0 63 -15.5t33.5 -40.5t10.5 -55q0 -25 -6.5 -54.5t-11.5 -55.5l-22 -98q-6 -28 -9.5 -55t-3.5 -50t9.5 -35.5t25.5 -12.5t31.5 6t32.5 17l18 -29
q-24 -20 -53.5 -38.5t-68.5 -18.5z" />
    <glyph glyph-name="Itilde" unicode="&#x128;" horiz-adv-x="367" 
d="M-21 0l8 42h13q23 0 42.5 5t34.5 20.5t21 46.5l104 490q2 6 3 15t1 13q0 26 -20 33t-52 7h-13l9 42h291l-9 -42h-13q-22 0 -42 -5t-34 -20t-21 -47l-104 -490q-1 -6 -2.5 -14.5t-1.5 -13.5q0 -25 20.5 -32.5t51.5 -7.5h13l-9 -42h-291zM357 771q-27 0 -47 9.5t-36 22
t-30.5 22t-30.5 9.5q-30 0 -41 -16.5t-19 -36.5h-45q9 31 26 57.5t43 43.5t62 17q27 0 46.5 -9.5t35.5 -22t30.5 -22t30.5 -9.5q29 0 41 16.5t19 36.5h45q-8 -30 -25 -57t-43 -44t-62 -17z" />
    <glyph glyph-name="itilde" unicode="&#x129;" horiz-adv-x="304" 
d="M155 -10q-40 0 -61.5 28t-21.5 67q0 21 4 50t9 58.5t9 48.5l39 184q7 30 1 44.5t-21.5 19t-37.5 4.5h-13l9 42h179l-68 -321q-2 -11 -6 -32t-6.5 -43t-2.5 -36q0 -25 8.5 -38t24.5 -13q17 0 35 7.5t37 18.5l18 -29q-22 -19 -59.5 -39.5t-75.5 -20.5zM265 606
q-27 0 -47 9.5t-36 22t-30.5 22t-30.5 9.5q-30 0 -41 -16.5t-19 -36.5h-45q9 31 26 57.5t43 43.5t62 17q27 0 46.5 -9.5t35.5 -22t30.5 -22t30.5 -9.5q29 0 41 16.5t19 36.5h45q-8 -30 -25 -57t-43 -44t-62 -17z" />
    <glyph glyph-name="Imacron" unicode="&#x12a;" horiz-adv-x="367" 
d="M-21 0l8 42h13q23 0 42.5 5t34.5 20.5t21 46.5l104 490q2 6 3 15t1 13q0 26 -20 33t-52 7h-13l9 42h291l-9 -42h-13q-22 0 -42 -5t-34 -20t-21 -47l-104 -490q-1 -6 -2.5 -14.5t-1.5 -13.5q0 -25 20.5 -32.5t51.5 -7.5h13l-9 -42h-291zM139 771l13 59h290l-13 -59h-290z
" />
    <glyph glyph-name="imacron" unicode="&#x12b;" horiz-adv-x="304" 
d="M155 -10q-40 0 -61.5 28t-21.5 67q0 21 4 50t9 58.5t9 48.5l39 184q7 30 1 44.5t-21.5 19t-37.5 4.5h-13l9 42h179l-68 -321q-2 -11 -6 -32t-6.5 -43t-2.5 -36q0 -25 8.5 -38t24.5 -13q17 0 35 7.5t37 18.5l18 -29q-22 -19 -59.5 -39.5t-75.5 -20.5zM55 606l13 59h290
l-13 -59h-290z" />
    <glyph glyph-name="Ibreve" unicode="&#x12c;" horiz-adv-x="367" 
d="M-21 0l8 42h13q23 0 42.5 5t34.5 20.5t21 46.5l104 490q2 6 3 15t1 13q0 26 -20 33t-52 7h-13l9 42h291l-9 -42h-13q-22 0 -42 -5t-34 -20t-21 -47l-104 -490q-1 -6 -2.5 -14.5t-1.5 -13.5q0 -25 20.5 -32.5t51.5 -7.5h13l-9 -42h-291zM282 771q-40 0 -67 16t-41.5 46.5
t-17.5 74.5h46q4 -34 27 -51t60 -17t64.5 16t43.5 52h46q-9 -37 -30.5 -68.5t-54 -50t-76.5 -18.5z" />
    <glyph glyph-name="ibreve" unicode="&#x12d;" horiz-adv-x="304" 
d="M155 -10q-40 0 -61.5 28t-21.5 67q0 21 4 50t9 58.5t9 48.5l39 184q7 30 1 44.5t-21.5 19t-37.5 4.5h-13l9 42h179l-68 -321q-2 -11 -6 -32t-6.5 -43t-2.5 -36q0 -25 8.5 -38t24.5 -13q17 0 35 7.5t37 18.5l18 -29q-22 -19 -59.5 -39.5t-75.5 -20.5zM197 606
q-40 0 -67 16t-41.5 46.5t-17.5 74.5h46q4 -34 27 -51t60 -17t64.5 16t43.5 52h46q-9 -37 -30.5 -68.5t-54 -50t-76.5 -18.5z" />
    <glyph glyph-name="Iogonek" unicode="&#x12e;" horiz-adv-x="367" 
d="M-21 0l8 42h13q23 0 42.5 5t34.5 20.5t21 46.5l104 490q2 6 3 15t1 13q0 26 -20 33t-52 7h-13l9 42h291l-9 -42h-13q-22 0 -42 -5t-34 -20t-21 -47l-104 -490q-1 -6 -2.5 -14.5t-1.5 -13.5q0 -25 20.5 -32.5t51.5 -7.5h13l-9 -42h-291zM140 -240q-55 0 -86 26.5t-31 75.5
q0 36 19 63.5t52.5 46t77.5 28.5h57q-23 -7 -51 -23t-48 -41t-20 -60q0 -25 16 -39.5t41 -14.5q14 0 30 2t35 6l-12 -54q-17 -7 -37.5 -11.5t-42.5 -4.5z" />
    <glyph glyph-name="iogonek" unicode="&#x12f;" horiz-adv-x="304" 
d="M155 -10q-40 0 -61.5 28t-21.5 67q0 21 4 50t9 58.5t9 48.5l39 184q2 8 2.5 14.5t0.5 11.5q0 27 -16.5 34.5t-44.5 7.5h-13l9 42h179l-68 -321q-2 -11 -6 -32t-6.5 -43t-2.5 -36q0 -25 8.5 -38t24.5 -13q17 0 35 7.5t37 18.5l18 -29q-22 -19 -59.5 -39.5t-75.5 -20.5z
M224 636q-25 0 -40.5 13.5t-15.5 41.5q0 21 7.5 36.5t21 24.5t31.5 9q24 0 40 -13.5t16 -41.5q0 -26 -9 -41.5t-22.5 -22t-28.5 -6.5zM117 -240q-55 0 -86 26.5t-31 75.5q0 36 19 63.5t52.5 46t77.5 28.5h57q-23 -7 -51 -23t-48 -41t-20 -60q0 -25 16 -39.5t41 -14.5
q14 0 30 2t35 6l-12 -54q-17 -7 -37.5 -11.5t-42.5 -4.5z" />
    <glyph glyph-name="Idotaccent" unicode="&#x130;" horiz-adv-x="367" 
d="M-21 0l8 42h13q23 0 42.5 5t34.5 20.5t21 46.5l104 490q2 6 3 15t1 13q0 26 -20 33t-52 7h-13l9 42h291l-9 -42h-13q-22 0 -42 -5t-34 -20t-21 -47l-104 -490q-1 -6 -2.5 -14.5t-1.5 -13.5q0 -25 20.5 -32.5t51.5 -7.5h13l-9 -42h-291zM302 801q-25 0 -40.5 13.5
t-15.5 41.5q0 21 7.5 36.5t21 24.5t31.5 9q24 0 40 -13.5t16 -41.5q0 -26 -9 -41.5t-22.5 -22t-28.5 -6.5z" />
    <glyph glyph-name="dotlessi" unicode="&#x131;" horiz-adv-x="304" 
d="M155 -10q-40 0 -61.5 28t-21.5 67q0 21 4 50t9 58.5t9 48.5l39 184q7 30 1 44.5t-21.5 19t-37.5 4.5h-13l9 42h179l-68 -321q-2 -11 -6 -32t-6.5 -43t-2.5 -36q0 -25 8.5 -38t24.5 -13q17 0 35 7.5t37 18.5l18 -29q-22 -19 -59.5 -39.5t-75.5 -20.5z" />
    <glyph glyph-name="IJ" unicode="&#x132;" horiz-adv-x="724" 
d="M-21 0l8 42h13q23 0 42.5 5t34.5 20.5t21 46.5l104 490q2 6 3 15t1 13q0 26 -20 33t-52 7h-13l9 42h291l-9 -42h-13q-22 0 -42 -5t-34 -20t-21 -47l-104 -490q-1 -6 -2.5 -14.5t-1.5 -13.5q0 -25 20.5 -32.5t51.5 -7.5h13l-9 -42h-291zM294 -240q-27 0 -45.5 3t-36.5 8
l14 45q13 -4 31.5 -6.5t33.5 -2.5q35 0 61.5 16.5t46.5 56.5t35 111l130 613q2 6 3 15t1 13q0 26 -20 33t-52 7h-13l9 42h291l-9 -42h-13q-22 0 -42 -5t-34 -20t-21 -47l-130 -608q-17 -79 -47 -130.5t-77.5 -76.5t-115.5 -25z" />
    <glyph glyph-name="ij" unicode="&#x133;" horiz-adv-x="595" 
d="M155 -10q-40 0 -61.5 28t-21.5 67q0 21 4 50t9 58.5t9 48.5l39 184q2 8 2.5 14.5t0.5 11.5q0 27 -16.5 34.5t-44.5 7.5h-13l9 42h179l-68 -321q-2 -11 -6 -32t-6.5 -43t-2.5 -36q0 -25 8.5 -38t24.5 -13q17 0 35 7.5t37 18.5l18 -29q-22 -19 -59.5 -39.5t-75.5 -20.5z
M224 636q-25 0 -40.5 13.5t-15.5 41.5q0 21 7.5 36.5t21 24.5t31.5 9q24 0 40 -13.5t16 -41.5q0 -26 -9 -41.5t-22.5 -22t-28.5 -6.5zM222 -240q-15 0 -31.5 2.5t-26.5 5.5l9 46q8 -2 21.5 -4.5t24.5 -2.5q33 0 56 18.5t40 59.5t31 107l92 434q2 8 2.5 14.5t0.5 11.5
q0 27 -16.5 34.5t-44.5 7.5h-13l9 42h179l-115 -544q-14 -67 -35 -111.5t-48 -71t-60.5 -38t-74.5 -11.5zM529 636q-25 0 -40.5 13.5t-15.5 41.5q0 21 7.5 36.5t21 24.5t31.5 9q24 0 40 -13.5t16 -41.5q0 -39 -19 -54.5t-41 -15.5z" />
    <glyph glyph-name="Jcircumflex" unicode="&#x134;" horiz-adv-x="357" 
d="M-73 -240q-27 0 -45.5 3t-36.5 8l14 45q13 -4 31.5 -6.5t33.5 -2.5q35 0 61.5 16.5t46.5 56.5t35 111l130 613q2 6 3 15t1 13q0 26 -20 33t-52 7h-13l9 42h291l-9 -42h-13q-22 0 -42 -5t-34 -20t-21 -47l-130 -608q-17 -79 -47 -130.5t-77.5 -76.5t-115.5 -25zM133 784
q20 19 44.5 45t48.5 53t39 49h95q6 -22 17.5 -49t25.5 -53t25 -45l-3 -13h-35q-16 11 -32.5 26t-30.5 31.5t-26 32.5q-18 -16 -39.5 -32.5t-44 -31.5t-44.5 -26h-43z" />
    <glyph glyph-name="jcircumflex" unicode="&#x135;" horiz-adv-x="291" 
d="M-82 -240q-15 0 -31.5 2.5t-26.5 5.5l9 46q8 -2 21.5 -4.5t24.5 -2.5q33 0 56 18.5t40 59.5t31 107l92 434q2 8 2.5 14.5t0.5 11.5q0 27 -16.5 34.5t-44.5 7.5h-13l9 42h179l-115 -544q-14 -67 -35 -111.5t-48 -71t-60.5 -38t-74.5 -11.5zM36 619q20 19 44.5 45t48.5 53
t39 49h95q6 -22 17.5 -49t25.5 -53t25 -45l-3 -13h-35q-16 11 -32.5 26t-30.5 31.5t-26 32.5q-18 -16 -39.5 -32.5t-44 -31.5t-44.5 -26h-43z" />
    <glyph glyph-name="uni0136" unicode="&#x136;" horiz-adv-x="700" 
d="M-21 0l8 42h13q23 0 42.5 5t34 20.5t21.5 46.5l104 490q2 6 3 15t1 13q0 26 -20 33t-52 7h-13l9 42h291l-9 -42h-13q-22 0 -42 -5t-34 -20t-21 -47l-61 -276l258 237q27 25 43.5 41.5t24 28t7.5 20.5q0 13 -9.5 17.5t-34.5 4.5l8 41h221l-8 -41q-17 0 -34.5 -6.5t-36 -19
t-39 -29.5t-44.5 -39l-216 -196l17 73l138 -334q11 -27 24.5 -44.5t31 -26.5t39.5 -9h3l-9 -42h-14q-45 0 -75 5t-49.5 15.5t-32.5 28.5t-23 44l-114 289l54 -16l-140 -98l-33 -158q-1 -6 -2.5 -14.5t-1.5 -13.5q0 -25 20.5 -32.5t51.5 -7.5h13l-9 -42h-291zM191 -208
q15 33 30.5 72t28.5 75h87l-2 -10q-10 -16 -23.5 -35t-29 -39.5t-30.5 -40t-29 -35.5h-34z" />
    <glyph glyph-name="uni0137" unicode="&#x137;" horiz-adv-x="569" 
d="M515 -7q-54 1 -88.5 10t-55.5 31t-37 62l-82 202l55 -18l-129 -82l-41 -198h-93l130 618q5 20 7 34.5t2 18.5q0 30 -20.5 38.5t-49.5 8.5h-8l9 42h184l-39 -184q-6 -27 -15.5 -71t-21 -94t-22.5 -94t-19 -70l159 138q27 24 43 40t23 28t7 21t-4 13t-13.5 5.5t-26.5 1.5
l9 42h221l-9 -42q-23 0 -48 -11t-52.5 -31.5t-60.5 -50.5l-124 -115l14 72l110 -239q11 -24 24.5 -43t32.5 -30t45 -11l-9 -42h-7zM126 -208q15 33 30.5 72t28.5 75h87l-2 -10q-10 -16 -23.5 -35t-29 -39.5t-30.5 -40t-29 -35.5h-34z" />
    <glyph glyph-name="kgreenlandic" unicode="&#x138;" horiz-adv-x="569" 
d="M514 -7q-54 1 -88 10t-55 31.5t-37 61.5l-82 202l55 -18l-129 -82l-41 -198h-93l83 394q5 20 7 34.5t2 18.5q0 30 -20.5 38.5t-49.5 8.5h-8l9 42h184l-27 -124q-6 -25 -10.5 -44.5t-9 -37.5t-10 -37.5t-13.5 -45.5l158 137q41 35 57.5 58t16.5 36q0 6 -4.5 9.5t-14 5
t-26.5 1.5l9 42h221l-9 -42q-23 0 -48 -11t-52.5 -32t-60.5 -51l-123 -114l14 72l110 -239q11 -24 24.5 -43t32.5 -30t45 -11l-9 -42h-8z" />
    <glyph glyph-name="Lacute" unicode="&#x139;" horiz-adv-x="623" 
d="M-20 0l9 42h13q22 0 41.5 5t33.5 20.5t21 46.5l104 490q2 6 3 15t1 13q0 26 -20 33t-52 7h-13l9 42h291l-9 -42h-13q-22 0 -41.5 -4.5t-33.5 -19t-21 -44.5l-118 -554h197q31 0 52 13.5t34.5 34.5t20.5 42l26 75h52l-52 -215h-535zM282 771l3 13q18 20 37 45t37 51.5
t33 50.5h107l-3 -10q-12 -15 -32 -35t-44.5 -41.5t-49.5 -40.5t-48 -33h-40z" />
    <glyph glyph-name="lacute" unicode="&#x13a;" horiz-adv-x="304" 
d="M156 -10q-40 0 -61.5 28t-21.5 67q0 21 4 50t9 58.5t9 48.5l82 384q3 14 4.5 27.5t1.5 17.5q0 30 -20.5 38.5t-49.5 8.5h-12l9 42h189l-116 -545q-2 -11 -6 -32t-7 -43t-3 -36q0 -25 8.5 -38t24.5 -13q17 0 35 7.5t37 18.5l18 -29q-22 -19 -59 -39.5t-75 -20.5zM229 799
l3 13q18 20 37 45t37 51.5t33 50.5h107l-3 -10q-12 -15 -32 -35t-44.5 -41.5t-49.5 -40.5t-48 -33h-40z" />
    <glyph glyph-name="uni013B" unicode="&#x13b;" horiz-adv-x="623" 
d="M-20 0l9 42h13q22 0 41.5 5t33.5 20.5t21 46.5l104 490q2 6 3 15t1 13q0 26 -20 33t-52 7h-13l9 42h291l-9 -42h-13q-22 0 -41.5 -4.5t-33.5 -19t-21 -44.5l-118 -554h197q31 0 52 13.5t34.5 34.5t20.5 42l26 75h52l-52 -215h-535zM153 -208q15 33 30.5 72t28.5 75h87
l-2 -10q-10 -16 -23.5 -35t-29 -39.5t-30.5 -40t-29 -35.5h-34z" />
    <glyph glyph-name="uni013C" unicode="&#x13c;" horiz-adv-x="304" 
d="M156 -10q-40 0 -61.5 28t-21.5 67q0 21 4 50t9 58.5t9 48.5l82 384q3 14 4.5 27.5t1.5 17.5q0 30 -20.5 38.5t-49.5 8.5h-12l9 42h189l-116 -545q-2 -11 -6 -32t-7 -43t-3 -36q0 -25 8.5 -38t24.5 -13q17 0 35 7.5t37 18.5l18 -29q-22 -19 -59 -39.5t-75 -20.5zM-7 -208
q15 33 30.5 72t28.5 75h87l-2 -10q-10 -16 -23.5 -35t-29 -39.5t-30.5 -40t-29 -35.5h-34z" />
    <glyph glyph-name="Lcaron" unicode="&#x13d;" horiz-adv-x="623" 
d="M448 567q10 22 20.5 47t20.5 50.5t18 49.5h87l-2 -10q-13 -21 -32.5 -48t-40.5 -54t-39 -48h-34zM-20 0l9 42h13q22 0 41.5 5t33.5 20.5t21 46.5l104 490q2 6 3 15t1 13q0 26 -20 33t-52 7h-13l9 42h291l-9 -42h-13q-22 0 -41.5 -4.5t-33.5 -19t-21 -44.5l-118 -554h197
q31 0 52 13.5t34.5 34.5t20.5 42l26 75h52l-52 -215h-535z" />
    <glyph glyph-name="lcaron" unicode="&#x13e;" horiz-adv-x="304" 
d="M323 613q10 22 20.5 47t20.5 50.5t18 49.5h87l-2 -10q-13 -21 -32.5 -48t-40.5 -54t-39 -48h-34zM156 -10q-40 0 -61.5 28t-21.5 67q0 21 4 50t9 58.5t9 48.5l82 384q3 14 4.5 27.5t1.5 17.5q0 30 -20.5 38.5t-49.5 8.5h-12l9 42h189l-116 -545q-2 -11 -6 -32t-7 -43
t-3 -36q0 -25 8.5 -38t24.5 -13q17 0 35 7.5t37 18.5l18 -29q-22 -19 -59 -39.5t-75 -20.5z" />
    <glyph glyph-name="Ldot" unicode="&#x13f;" horiz-adv-x="623" 
d="M-20 0l9 42h13q22 0 41.5 5t33.5 20.5t21 46.5l104 490q2 6 3 15t1 13q0 26 -20 33t-52 7h-13l9 42h291l-9 -42h-13q-22 0 -41.5 -4.5t-33.5 -19t-21 -44.5l-118 -554h197q31 0 52 13.5t34.5 34.5t20.5 42l26 75h52l-52 -215h-535zM502 321q-25 0 -40.5 13.5t-15.5 41.5
q0 21 7.5 36.5t21 24.5t31.5 9q24 0 40 -13.5t16 -41.5q0 -26 -9 -41.5t-22.5 -22t-28.5 -6.5z" />
    <glyph glyph-name="ldot" unicode="&#x140;" horiz-adv-x="394" 
d="M156 -10q-40 0 -61.5 28t-21.5 67q0 21 4 50t9 58.5t9 48.5l82 384q3 14 4.5 27.5t1.5 17.5q0 30 -20.5 38.5t-49.5 8.5h-12l9 42h189l-116 -545q-2 -11 -6 -32t-7 -43t-3 -36q0 -25 8.5 -38t24.5 -13q17 0 35 7.5t37 18.5l18 -29q-22 -19 -59 -39.5t-75 -20.5zM358 288
q-25 0 -40.5 13.5t-15.5 41.5q0 21 7.5 36.5t21 24.5t31.5 9q24 0 40 -13.5t16 -41.5q0 -26 -9 -41.5t-22.5 -22t-28.5 -6.5z" />
    <glyph glyph-name="Lslash" unicode="&#x141;" horiz-adv-x="623" 
d="M26 229l12 56l108 55l113 58l174 91l-12 -58l-174 -90l-113 -57zM-20 0l9 42h13q22 0 41.5 5t33.5 20.5t21 46.5l104 490q2 6 3 15t1 13q0 26 -20 33t-52 7h-13l9 42h291l-9 -42h-13q-22 0 -41.5 -4.5t-33.5 -19t-21 -44.5l-118 -554h197q31 0 52 13.5t34.5 34.5t20.5 42
l26 75h52l-52 -215h-535z" />
    <glyph glyph-name="lslash" unicode="&#x142;" horiz-adv-x="324" 
d="M8 229l12 56l94 49l105 53l107 55l-12 -58l-107 -54l-105 -54zM156 -10q-40 0 -61.5 28t-21.5 67q0 21 4 50t9 58.5t9 48.5l82 384q3 14 4.5 27.5t1.5 17.5q0 30 -20.5 38.5t-49.5 8.5h-12l9 42h189l-116 -545q-2 -11 -6 -32t-7 -43t-3 -36q0 -25 8.5 -38t24.5 -13
q17 0 35 7.5t37 18.5l18 -29q-22 -19 -59 -39.5t-75 -20.5z" />
    <glyph glyph-name="Nacute" unicode="&#x143;" horiz-adv-x="763" 
d="M-20 0l9 42h13q22 0 41.5 5t33.5 20.5t21 46.5l104 490q2 6 3 15t1 13q0 26 -20 33t-52 7h-13l9 42h182l242 -552l94 442q2 6 3 15t1 13q0 26 -20 33t-52 7h-13l9 42h251l-9 -42h-13q-22 0 -41.5 -5t-34 -20t-21.5 -47l-127 -600h-65l-257 586l-101 -476
q-1 -6 -2.5 -14.5t-1.5 -13.5q0 -25 20.5 -32.5t51.5 -7.5h13l-9 -42h-250zM431 771l3 13q18 20 37 45t37 51.5t33 50.5h107l-3 -10q-12 -15 -32 -35t-44.5 -41.5t-49.5 -40.5t-48 -33h-40z" />
    <glyph glyph-name="nacute" unicode="&#x144;" horiz-adv-x="599" 
d="M460 -10q-44 0 -67.5 28.5t-23.5 71.5q0 24 4.5 56.5t14.5 78.5l17 78q3 14 8 35t9 44t4 40q0 20 -8.5 39.5t-37.5 19.5q-31 0 -62 -23t-57.5 -59t-45 -74.5t-24.5 -68.5l-54 -256h-93l84 402q3 14 4.5 27.5t1.5 17.5q0 30 -20.5 38.5t-49.5 8.5h-8l9 42h185l-27 -126h10
q41 66 83.5 100.5t98.5 34.5q40 0 63 -15.5t33.5 -40.5t10.5 -55q0 -25 -6.5 -54.5t-11.5 -55.5l-26 -118q-6 -28 -9.5 -55t-3.5 -50t9.5 -35.5t25.5 -12.5t31.5 6t32.5 17l18 -29q-24 -20 -53.5 -38.5t-68.5 -18.5zM332 606l3 13q18 20 37 45t37 51.5t33 50.5h107l-3 -10
q-12 -15 -32 -35t-44.5 -41.5t-49.5 -40.5t-48 -33h-40z" />
    <glyph glyph-name="uni0145" unicode="&#x145;" horiz-adv-x="763" 
d="M-20 0l9 42h13q22 0 41.5 5t33.5 20.5t21 46.5l104 490q2 6 3 15t1 13q0 26 -20 33t-52 7h-13l9 42h182l242 -552l94 442q2 6 3 15t1 13q0 26 -20 33t-52 7h-13l9 42h251l-9 -42h-13q-22 0 -41.5 -5t-34 -20t-21.5 -47l-127 -600h-65l-257 586l-101 -476
q-1 -6 -2.5 -14.5t-1.5 -13.5q0 -25 20.5 -32.5t51.5 -7.5h13l-9 -42h-250zM223 -208q15 33 30.5 72t28.5 75h87l-2 -10q-10 -16 -23.5 -35t-29 -39.5t-30.5 -40t-29 -35.5h-34z" />
    <glyph glyph-name="uni0146" unicode="&#x146;" horiz-adv-x="599" 
d="M460 -10q-44 0 -67.5 28.5t-23.5 71.5q0 24 4.5 56.5t14.5 78.5l17 78q3 14 8 35t9 44t4 40q0 20 -8.5 39.5t-37.5 19.5q-31 0 -62 -23t-57.5 -59t-45 -74.5t-24.5 -68.5l-54 -256h-93l84 402q3 14 4.5 27.5t1.5 17.5q0 30 -20.5 38.5t-49.5 8.5h-8l9 42h185l-27 -126h10
q41 66 83.5 100.5t98.5 34.5q40 0 63 -15.5t33.5 -40.5t10.5 -55q0 -25 -6.5 -54.5t-11.5 -55.5l-26 -118q-6 -28 -9.5 -55t-3.5 -50t9.5 -35.5t25.5 -12.5t31.5 6t32.5 17l18 -29q-24 -20 -53.5 -38.5t-68.5 -18.5zM141 -208q15 33 30.5 72t28.5 75h87l-2 -10
q-10 -16 -23.5 -35t-29 -39.5t-30.5 -40t-29 -35.5h-34z" />
    <glyph glyph-name="Ncaron" unicode="&#x147;" horiz-adv-x="763" 
d="M-20 0l9 42h13q22 0 41.5 5t33.5 20.5t21 46.5l104 490q2 6 3 15t1 13q0 26 -20 33t-52 7h-13l9 42h182l242 -552l94 442q2 6 3 15t1 13q0 26 -20 33t-52 7h-13l9 42h251l-9 -42h-13q-22 0 -41.5 -5t-34 -20t-21.5 -47l-127 -600h-65l-257 586l-101 -476
q-1 -6 -2.5 -14.5t-1.5 -13.5q0 -25 20.5 -32.5t51.5 -7.5h13l-9 -42h-250zM481 771q-7 24 -19 51t-24.5 52t-24.5 44l3 13h36q15 -12 30 -27t29 -31.5t26 -32.5q19 16 41 32.5t46 32t45 26.5h42l-3 -13q-19 -19 -43 -44t-47 -51.5t-42 -51.5h-95z" />
    <glyph glyph-name="ncaron" unicode="&#x148;" horiz-adv-x="599" 
d="M460 -10q-44 0 -67.5 28.5t-23.5 71.5q0 24 4.5 56.5t14.5 78.5l17 78q3 14 8 35t9 44t4 40q0 20 -8.5 39.5t-37.5 19.5q-31 0 -62 -23t-57.5 -59t-45 -74.5t-24.5 -68.5l-54 -256h-93l84 402q3 14 4.5 27.5t1.5 17.5q0 30 -20.5 38.5t-49.5 8.5h-8l9 42h185l-27 -126h10
q41 66 83.5 100.5t98.5 34.5q40 0 63 -15.5t33.5 -40.5t10.5 -55q0 -25 -6.5 -54.5t-11.5 -55.5l-26 -118q-6 -28 -9.5 -55t-3.5 -50t9.5 -35.5t25.5 -12.5t31.5 6t32.5 17l18 -29q-24 -20 -53.5 -38.5t-68.5 -18.5zM364 606q-7 24 -19 51t-24.5 52t-24.5 44l3 13h36
q15 -12 30 -27t29 -31.5t26 -32.5q19 16 41 32.5t46 32t45 26.5h42l-3 -13q-19 -19 -43 -44t-47 -51.5t-42 -51.5h-95z" />
    <glyph glyph-name="napostrophe" unicode="&#x149;" horiz-adv-x="771" 
d="M632 -10q-44 0 -67.5 28.5t-23.5 71.5q0 24 4.5 56.5t14.5 78.5l17 78q3 14 8 35t9 44t4 40q0 20 -8.5 39.5t-37.5 19.5q-31 0 -62 -23t-57.5 -59t-45 -74.5t-24.5 -68.5l-54 -256h-93l84 402q3 14 4.5 27.5t1.5 17.5q0 30 -20.5 38.5t-49.5 8.5h-8l9 42h185l-27 -126h10
q41 66 83.5 100.5t98.5 34.5q40 0 63 -15.5t33.5 -40.5t10.5 -55q0 -25 -6.5 -54.5t-11.5 -55.5l-26 -118q-6 -28 -9.5 -55t-3.5 -50t9.5 -35.5t25.5 -12.5t31.5 6t32.5 17l18 -29q-24 -20 -53.5 -38.5t-68.5 -18.5zM43 482q50 11 76 32.5t26 51.5q0 14 -10 22t-22.5 16
t-22.5 19.5t-10 31.5q0 29 18.5 44t43.5 15q32 0 55 -21.5t23 -60.5q0 -68 -44 -120.5t-137 -71.5z" />
    <glyph glyph-name="Eng" unicode="&#x14a;" horiz-adv-x="763" 
d="M353 -240q-18 0 -37 3t-34 8l12 45q13 -4 27 -6.5t28 -2.5q32 0 65.5 17.5t61.5 58.5t43 111l-260 592l-101 -476q-1 -6 -2.5 -14.5t-1.5 -13.5q0 -25 20.5 -32.5t51.5 -7.5h13l-9 -42h-250l9 42h13q22 0 41.5 5t34 20.5t20.5 46.5l102 482q2 11 4 21.5t2 14.5
q0 26 -20 33t-52 7h-13l9 42h182l242 -554l92 433q2 10 4 22.5t2 16.5q0 26 -20 33t-52 7h-13l9 42h251l-9 -42h-13q-22 0 -42 -5t-34 -20t-21 -47l-129 -608q-13 -64 -34 -108.5t-49 -71.5t-63.5 -39.5t-79.5 -12.5z" />
    <glyph glyph-name="eng" unicode="&#x14b;" horiz-adv-x="562" 
d="M215 -240q-15 0 -31.5 2.5t-26.5 5.5l9 46q8 -2 21.5 -4.5t24.5 -2.5q33 0 56 18.5t40 59.5t31 107l66 308q4 20 9 43t8.5 44.5t3.5 34.5q0 20 -8.5 39.5t-37.5 19.5q-31 0 -62 -23t-57.5 -59t-45 -74.5t-24.5 -68.5l-54 -256h-93l84 402q3 14 4.5 27.5t1.5 17.5
q0 30 -20.5 38.5t-49.5 8.5h-8l9 42h185l-27 -126h10q41 66 83.5 100.5t98.5 34.5q40 0 63 -15.5t33.5 -40.5t10.5 -55q0 -16 -3 -36t-7 -40t-8 -37l-71 -329q-14 -67 -35 -111.5t-48 -71t-60.5 -38t-74.5 -11.5z" />
    <glyph glyph-name="Omacron" unicode="&#x14c;" horiz-adv-x="742" 
d="M314 -11q-74 0 -133.5 31.5t-94 93.5t-34.5 152q0 58 16 121t48.5 123t80.5 108.5t112 77.5t143 29q69 0 128 -29t95 -89.5t36 -156.5q0 -55 -15.5 -118t-47 -123.5t-79 -110.5t-111.5 -79.5t-144 -29.5zM320 44q58 0 103.5 29t79 76.5t55.5 105t32.5 115.5t10.5 107
q0 68 -20.5 110.5t-55.5 63t-81 20.5q-58 0 -104 -29t-79.5 -76.5t-55.5 -105t-33 -115.5t-11 -107q0 -68 21 -111t57.5 -63t80.5 -20zM320 771l13 59h290l-13 -59h-290z" />
    <glyph glyph-name="omacron" unicode="&#x14d;" horiz-adv-x="574" 
d="M235 -10q-85 0 -138.5 51.5t-53.5 155.5q0 44 11.5 92.5t35 94t59 82.5t83.5 58.5t109 21.5q53 0 96 -21t68.5 -66.5t25.5 -119.5q0 -43 -11 -90.5t-34 -93.5t-58 -83t-83 -59.5t-110 -22.5zM246 41q39 0 69 21t51 55.5t34.5 76t20 84t6.5 78.5q0 75 -26 107t-72 32
q-39 0 -69 -21t-51.5 -55.5t-35 -76.5t-20 -84.5t-6.5 -78.5q0 -50 12.5 -80.5t34.5 -44t52 -13.5zM209 606l13 59h290l-13 -59h-290z" />
    <glyph glyph-name="Obreve" unicode="&#x14e;" horiz-adv-x="742" 
d="M314 -11q-74 0 -133.5 31.5t-94 93.5t-34.5 152q0 58 16 121t48.5 123t80.5 108.5t112 77.5t143 29q69 0 128 -29t95 -89.5t36 -156.5q0 -55 -15.5 -118t-47 -123.5t-79 -110.5t-111.5 -79.5t-144 -29.5zM320 44q58 0 103.5 29t79 76.5t55.5 105t32.5 115.5t10.5 107
q0 68 -20.5 110.5t-55.5 63t-81 20.5q-58 0 -104 -29t-79.5 -76.5t-55.5 -105t-33 -115.5t-11 -107q0 -68 21 -111t57.5 -63t80.5 -20zM472 771q-40 0 -67 16t-41.5 46.5t-17.5 74.5h46q4 -34 27 -51t60 -17t64.5 16t43.5 52h46q-9 -37 -30.5 -68.5t-54 -50t-76.5 -18.5z
" />
    <glyph glyph-name="obreve" unicode="&#x14f;" horiz-adv-x="574" 
d="M235 -10q-85 0 -138.5 51.5t-53.5 155.5q0 44 11.5 92.5t35 94t59 82.5t83.5 58.5t109 21.5q53 0 96 -21t68.5 -66.5t25.5 -119.5q0 -43 -11 -90.5t-34 -93.5t-58 -83t-83 -59.5t-110 -22.5zM246 41q39 0 69 21t51 55.5t34.5 76t20 84t6.5 78.5q0 75 -26 107t-72 32
q-39 0 -69 -21t-51.5 -55.5t-35 -76.5t-20 -84.5t-6.5 -78.5q0 -50 12.5 -80.5t34.5 -44t52 -13.5zM355 606q-40 0 -67 16t-41.5 46.5t-17.5 74.5h46q4 -34 27 -51t60 -17t64.5 16t43.5 52h46q-9 -37 -30.5 -68.5t-54 -50t-76.5 -18.5z" />
    <glyph glyph-name="Ohungarumlaut" unicode="&#x150;" horiz-adv-x="742" 
d="M314 -11q-74 0 -133.5 31.5t-94 93.5t-34.5 152q0 58 16 121t48.5 123t80.5 108.5t112 77.5t143 29q69 0 128 -29t95 -89.5t36 -156.5q0 -55 -15.5 -118t-47 -123.5t-79 -110.5t-111.5 -79.5t-144 -29.5zM320 44q58 0 103.5 29t79 76.5t55.5 105t32.5 115.5t10.5 107
q0 68 -20.5 110.5t-55.5 63t-81 20.5q-58 0 -104 -29t-79.5 -76.5t-55.5 -105t-33 -115.5t-11 -107q0 -68 21 -111t57.5 -63t80.5 -20zM529 784q19 22 37.5 46.5t36.5 50.5t33 50h107l-3 -10q-10 -13 -30.5 -33t-45 -42t-49.5 -41.5t-45 -33.5h-44zM349 784q19 22 38 47
t37 51t32 49h107l-3 -10q-10 -13 -30.5 -33t-45 -42t-49.5 -41.5t-45 -33.5h-44z" />
    <glyph glyph-name="ohungarumlaut" unicode="&#x151;" horiz-adv-x="574" 
d="M235 -10q-85 0 -138.5 51.5t-53.5 155.5q0 44 11.5 92.5t35 94t59 82.5t83.5 58.5t109 21.5q53 0 96 -21t68.5 -66.5t25.5 -119.5q0 -43 -11 -90.5t-34 -93.5t-58 -83t-83 -59.5t-110 -22.5zM246 41q39 0 69 21t51 55.5t34.5 76t20 84t6.5 78.5q0 75 -26 107t-72 32
q-39 0 -69 -21t-51.5 -55.5t-35 -76.5t-20 -84.5t-6.5 -78.5q0 -50 12.5 -80.5t34.5 -44t52 -13.5zM391 619q19 22 37.5 46.5t36.5 50.5t33 50h107l-3 -10q-10 -13 -30.5 -33t-45 -42t-49.5 -41.5t-45 -33.5h-44zM211 619q19 22 38 47t37 51t32 49h107l-3 -10
q-10 -13 -30.5 -33t-45 -42t-49.5 -41.5t-45 -33.5h-44z" />
    <glyph glyph-name="OE" unicode="&#x152;" horiz-adv-x="962" 
d="M314 -11q-74 0 -133.5 31.5t-94 93.5t-34.5 152q0 58 16 121t48.5 123t80.5 108.5t112 77.5t143 29q18 0 36 -1.5t36 -4t34 -5.5h415l-32 -175h-52q1 5 2 18t2 25.5t1 14.5q0 28 -16 47.5t-55 19.5h-168l-57 -266h241l-10 -49h-241l-64 -299h193q32 0 54 11.5t36.5 30
t22.5 40.5l16 43h52l-44 -175h-430q-14 -3 -34 -5.5t-40 -4t-36 -1.5zM320 44q31 0 60 5t46 12l125 590q-16 6 -46.5 13t-60.5 7q-58 0 -104 -29t-79.5 -76.5t-55.5 -105t-33 -115.5t-11 -107q0 -68 21 -111t57.5 -63t80.5 -20z" />
    <glyph glyph-name="oe" unicode="&#x153;" horiz-adv-x="863" 
d="M235 -10q-85 0 -138.5 53t-53.5 154q0 44 11.5 92t35 93.5t59 82.5t83.5 59t109 22q55 0 99.5 -23t68.5 -72q25 28 55.5 49.5t67.5 33.5t79 12q63 0 98 -30.5t35 -84.5q0 -52 -37.5 -98t-103 -74.5t-149.5 -28.5q-8 0 -19 0.5t-16 0.5q-1 -11 -2 -21.5t-1 -20.5
q0 -64 28.5 -100t82.5 -36q48 0 85.5 23t58.5 49q5 -3 7.5 -10t2.5 -15q0 -22 -18 -47.5t-56.5 -44t-98.5 -18.5q-54 0 -98 22.5t-70 68.5q-24 -26 -54.5 -47t-68 -32.5t-82.5 -11.5zM246 39q39 0 69 21t51 55.5t34.5 76.5t20 84.5t6.5 77.5q0 72 -26 105.5t-72 33.5
q-39 0 -69 -21t-51.5 -56t-35 -77t-20 -84.5t-6.5 -77.5q0 -48 12.5 -78.5t34.5 -45t52 -14.5zM538 277q59 0 104.5 19.5t72 54t26.5 80.5q0 34 -15 50.5t-43 16.5t-53 -19.5t-45 -52t-34.5 -71.5t-22.5 -78h10z" />
    <glyph glyph-name="Racute" unicode="&#x154;" horiz-adv-x="664" 
d="M-20 0l9 42h13q22 0 41 4.5t33.5 18.5t20.5 44l105 495q2 6 3 15t1 13q0 26 -20 33t-52 7h-13l9 42h262q116 0 172.5 -42t56.5 -128q0 -51 -16.5 -87.5t-44 -61t-60 -39t-64.5 -21.5l72 -214q14 -40 31 -59.5t51 -19.5h8l-8 -42h-13q-57 0 -91.5 10t-53.5 35.5t-33 71.5
l-58 198h-99l-44 -205q-1 -6 -2.5 -14.5t-1.5 -13.5q0 -25 20.5 -32.5t51.5 -7.5h33l-9 -42h-310zM329 362q53 0 95 18t66.5 56.5t24.5 101.5q0 71 -32 99.5t-99 28.5h-68l-64 -304h77zM370 771l3 13q18 20 37 45t37 51.5t33 50.5h107l-3 -10q-12 -15 -32 -35t-44.5 -41.5
t-49.5 -40.5t-48 -33h-40z" />
    <glyph glyph-name="racute" unicode="&#x155;" horiz-adv-x="468" 
d="M128 402q3 14 4.5 27.5t1.5 17.5q0 30 -25.5 38.5t-54.5 8.5h-8l9 42h177l-21 -144h10q19 41 41 76t53 56.5t76 21.5q42 0 62 -19.5t20 -49.5q0 -35 -19.5 -55.5t-63.5 -20.5q0 36 -8 57.5t-32 21.5q-26 0 -52.5 -27t-50 -71.5t-42.5 -97t-30 -102.5l-38 -182h-93z
M246 606l3 13q18 20 37 45t37 51.5t33 50.5h107l-3 -10q-12 -15 -32 -35t-44.5 -41.5t-49.5 -40.5t-48 -33h-40z" />
    <glyph glyph-name="uni0156" unicode="&#x156;" horiz-adv-x="664" 
d="M-20 0l9 42h13q22 0 41 4.5t33.5 18.5t20.5 44l105 495q2 6 3 15t1 13q0 26 -20 33t-52 7h-13l9 42h262q116 0 172.5 -42t56.5 -128q0 -51 -16.5 -87.5t-44 -61t-60 -39t-64.5 -21.5l72 -214q14 -40 31 -59.5t51 -19.5h8l-8 -42h-13q-57 0 -91.5 10t-53.5 35.5t-33 71.5
l-58 198h-99l-44 -205q-1 -6 -2.5 -14.5t-1.5 -13.5q0 -25 20.5 -32.5t51.5 -7.5h33l-9 -42h-310zM329 362q53 0 95 18t66.5 56.5t24.5 101.5q0 71 -32 99.5t-99 28.5h-68l-64 -304h77zM193 -208q15 33 30.5 72t28.5 75h87l-2 -10q-10 -16 -23.5 -35t-29 -39.5t-30.5 -40
t-29 -35.5h-34z" />
    <glyph glyph-name="uni0157" unicode="&#x157;" horiz-adv-x="468" 
d="M128 402q3 14 4.5 27.5t1.5 17.5q0 30 -25.5 38.5t-54.5 8.5h-8l9 42h177l-21 -144h10q19 41 41 76t53 56.5t76 21.5q42 0 62 -19.5t20 -49.5q0 -35 -19.5 -55.5t-63.5 -20.5q0 36 -8 57.5t-32 21.5q-26 0 -52.5 -27t-50 -71.5t-42.5 -97t-30 -102.5l-38 -182h-93z
M-25 -208q15 33 30.5 72t28.5 75h87l-2 -10q-10 -16 -23.5 -35t-29 -39.5t-30.5 -40t-29 -35.5h-34z" />
    <glyph glyph-name="Rcaron" unicode="&#x158;" horiz-adv-x="664" 
d="M-20 0l9 42h13q22 0 41 4.5t33.5 18.5t20.5 44l105 495q2 6 3 15t1 13q0 26 -20 33t-52 7h-13l9 42h262q116 0 172.5 -42t56.5 -128q0 -51 -16.5 -87.5t-44 -61t-60 -39t-64.5 -21.5l72 -214q14 -40 31 -59.5t51 -19.5h8l-8 -42h-13q-57 0 -91.5 10t-53.5 35.5t-33 71.5
l-58 198h-99l-44 -205q-1 -6 -2.5 -14.5t-1.5 -13.5q0 -25 20.5 -32.5t51.5 -7.5h33l-9 -42h-310zM329 362q53 0 95 18t66.5 56.5t24.5 101.5q0 71 -32 99.5t-99 28.5h-68l-64 -304h77zM415 771q-7 24 -19 51t-24.5 52t-24.5 44l3 13h36q15 -12 30 -27t29 -31.5t26 -32.5
q19 16 41 32.5t46 32t45 26.5h42l-3 -13q-19 -19 -43 -44t-47 -51.5t-42 -51.5h-95z" />
    <glyph glyph-name="rcaron" unicode="&#x159;" horiz-adv-x="468" 
d="M128 402q3 14 4.5 27.5t1.5 17.5q0 30 -25.5 38.5t-54.5 8.5h-8l9 42h177l-21 -144h10q19 41 41 76t53 56.5t76 21.5q42 0 62 -19.5t20 -49.5q0 -35 -19.5 -55.5t-63.5 -20.5q0 36 -8 57.5t-32 21.5q-26 0 -52.5 -27t-50 -71.5t-42.5 -97t-30 -102.5l-38 -182h-93z
M300 606q-7 24 -19 51t-24.5 52t-24.5 44l3 13h36q15 -12 30 -27t29 -31.5t26 -32.5q19 16 41 32.5t46 32t45 26.5h42l-3 -13q-19 -19 -43 -44t-47 -51.5t-42 -51.5h-95z" />
    <glyph glyph-name="Sacute" unicode="&#x15a;" horiz-adv-x="544" 
d="M229 -10q-73 0 -122.5 19.5t-74.5 52.5t-25 71t24 57t53 19q0 -46 16.5 -84.5t50 -62t85.5 -23.5q71 0 111.5 35t40.5 94q0 30 -9 54t-36 48.5t-81 54.5q-63 36 -102.5 83t-39.5 123q0 57 29 100.5t83.5 68t130.5 24.5q58 0 100.5 -13.5t66 -38t23.5 -56.5q0 -31 -21 -50
t-67 -19q0 28 -9 57t-32.5 49.5t-68.5 20.5q-35 0 -66 -13.5t-50.5 -41.5t-19.5 -71q0 -37 13.5 -62t41.5 -46t69 -45q50 -29 83 -58.5t49 -63t16 -73.5q0 -67 -31.5 -114t-90 -71.5t-140.5 -24.5zM344 771l3 13q18 20 37 45t37 51.5t33 50.5h107l-3 -10q-12 -15 -32 -35
t-44.5 -41.5t-49.5 -40.5t-48 -33h-40z" />
    <glyph glyph-name="sacute" unicode="&#x15b;" horiz-adv-x="464" 
d="M190 -10q-50 0 -87 13.5t-57.5 39t-20.5 60.5q0 27 11 41.5t25.5 19.5t26.5 5q0 -35 11 -65t36.5 -48t66.5 -18q33 0 57.5 10.5t37.5 31t13 51.5q0 35 -23 60t-78 50q-55 26 -88 60.5t-33 94.5q0 43 23.5 76.5t67 53t102.5 19.5q55 0 89 -14t50.5 -36t16.5 -45
q0 -31 -20 -46.5t-55 -15.5q0 27 -8.5 52.5t-28 42t-53.5 16.5q-45 0 -71 -24t-26 -62q0 -34 25 -56.5t77 -46.5q55 -25 87.5 -61t32.5 -94q0 -48 -25 -85.5t-71.5 -58.5t-110.5 -21zM272 606l3 13q18 20 37 45t37 51.5t33 50.5h107l-3 -10q-12 -15 -32 -35t-44.5 -41.5
t-49.5 -40.5t-48 -33h-40z" />
    <glyph glyph-name="Scircumflex" unicode="&#x15c;" horiz-adv-x="544" 
d="M229 -10q-73 0 -122.5 19.5t-74.5 52.5t-25 71t24 57t53 19q0 -46 16.5 -84.5t50 -62t85.5 -23.5q71 0 111.5 35t40.5 94q0 30 -9 54t-36 48.5t-81 54.5q-63 36 -102.5 83t-39.5 123q0 57 29 100.5t83.5 68t130.5 24.5q58 0 100.5 -13.5t66 -38t23.5 -56.5q0 -31 -21 -50
t-67 -19q0 28 -9 57t-32.5 49.5t-68.5 20.5q-35 0 -66 -13.5t-50.5 -41.5t-19.5 -71q0 -37 13.5 -62t41.5 -46t69 -45q50 -29 83 -58.5t49 -63t16 -73.5q0 -67 -31.5 -114t-90 -71.5t-140.5 -24.5zM236 784q20 19 44.5 45t48.5 53t39 49h95q6 -22 17.5 -49t25.5 -53t25 -45
l-3 -13h-35q-16 11 -32.5 26t-30.5 31.5t-26 32.5q-18 -16 -39.5 -32.5t-44 -31.5t-44.5 -26h-43z" />
    <glyph glyph-name="scircumflex" unicode="&#x15d;" horiz-adv-x="464" 
d="M190 -10q-50 0 -87 13.5t-57.5 39t-20.5 60.5q0 27 11 41.5t25.5 19.5t26.5 5q0 -35 11 -65t36.5 -48t66.5 -18q33 0 57.5 10.5t37.5 31t13 51.5q0 35 -23 60t-78 50q-55 26 -88 60.5t-33 94.5q0 43 23.5 76.5t67 53t102.5 19.5q55 0 89 -14t50.5 -36t16.5 -45
q0 -31 -20 -46.5t-55 -15.5q0 27 -8.5 52.5t-28 42t-53.5 16.5q-45 0 -71 -24t-26 -62q0 -34 25 -56.5t77 -46.5q55 -25 87.5 -61t32.5 -94q0 -48 -25 -85.5t-71.5 -58.5t-110.5 -21zM151 619q20 19 44.5 45t48.5 53t39 49h95q6 -22 17.5 -49t25.5 -53t25 -45l-3 -13h-35
q-16 11 -32.5 26t-30.5 31.5t-26 32.5q-18 -16 -39.5 -32.5t-44 -31.5t-44.5 -26h-43z" />
    <glyph glyph-name="Scedilla" unicode="&#x15e;" horiz-adv-x="544" 
d="M229 -10q-73 0 -122.5 19.5t-74.5 52.5t-25 71t24 57t53 19q0 -46 16.5 -84.5t50 -62t85.5 -23.5q71 0 111.5 35t40.5 94q0 30 -9 54t-36 48.5t-81 54.5q-63 36 -102.5 83t-39.5 123q0 57 29 100.5t83.5 68t130.5 24.5q58 0 100.5 -13.5t66 -38t23.5 -56.5q0 -31 -21 -50
t-67 -19q0 28 -9 57t-32.5 49.5t-68.5 20.5q-35 0 -66 -13.5t-50.5 -41.5t-19.5 -71q0 -37 13.5 -62t41.5 -46t69 -45q50 -29 83 -58.5t49 -63t16 -73.5q0 -67 -31.5 -114t-90 -71.5t-140.5 -24.5zM155 -240q-16 0 -37 3t-38 8l11 51q17 -4 35.5 -6t31.5 -2q31 0 52.5 14.5
t21.5 46.5q0 24 -17.5 39t-46.5 17l38 78h47l-19 -43q36 -5 58 -28t22 -55q0 -43 -21.5 -70t-57.5 -40t-80 -13z" />
    <glyph glyph-name="scedilla" unicode="&#x15f;" horiz-adv-x="464" 
d="M190 -10q-50 0 -87 13.5t-57.5 39t-20.5 60.5q0 27 11 41.5t25.5 19.5t26.5 5q0 -35 11 -65t36.5 -48t66.5 -18q33 0 57.5 10.5t37.5 31t13 51.5q0 35 -23 60t-78 50q-55 26 -88 60.5t-33 94.5q0 43 23.5 76.5t67 53t102.5 19.5q55 0 89 -14t50.5 -36t16.5 -45
q0 -31 -20 -46.5t-55 -15.5q0 27 -8.5 52.5t-28 42t-53.5 16.5q-45 0 -71 -24t-26 -62q0 -34 25 -56.5t77 -46.5q55 -25 87.5 -61t32.5 -94q0 -48 -25 -85.5t-71.5 -58.5t-110.5 -21zM120 -240q-16 0 -37 3t-38 8l11 51q17 -4 35.5 -6t31.5 -2q31 0 52.5 14.5t21.5 46.5
q0 24 -17.5 39t-46.5 17l38 78h47l-19 -43q36 -5 58 -28t22 -55q0 -43 -21.5 -70t-57.5 -40t-80 -13z" />
    <glyph glyph-name="Scaron" unicode="&#x160;" horiz-adv-x="544" 
d="M229 -10q-73 0 -122.5 19.5t-74.5 52.5t-25 71t24 57t53 19q0 -46 16.5 -84.5t50 -62t85.5 -23.5q71 0 111.5 35t40.5 94q0 30 -9 54t-36 48.5t-81 54.5q-63 36 -102.5 83t-39.5 123q0 57 29 100.5t83.5 68t130.5 24.5q58 0 100.5 -13.5t66 -38t23.5 -56.5q0 -31 -21 -50
t-67 -19q0 28 -9 57t-32.5 49.5t-68.5 20.5q-35 0 -66 -13.5t-50.5 -41.5t-19.5 -71q0 -37 13.5 -62t41.5 -46t69 -45q50 -29 83 -58.5t49 -63t16 -73.5q0 -67 -31.5 -114t-90 -71.5t-140.5 -24.5zM397 771q-7 24 -19 51t-24.5 52t-24.5 44l3 13h36q15 -12 30 -27t29 -31.5
t26 -32.5q19 16 41 32.5t46 32t45 26.5h42l-3 -13q-19 -19 -43 -44t-47 -51.5t-42 -51.5h-95z" />
    <glyph glyph-name="scaron" unicode="&#x161;" horiz-adv-x="464" 
d="M190 -10q-50 0 -87 13.5t-57.5 39t-20.5 60.5q0 27 11 41.5t25.5 19.5t26.5 5q0 -35 11 -65t36.5 -48t66.5 -18q33 0 57.5 10.5t37.5 31t13 51.5q0 35 -23 60t-78 50q-55 26 -88 60.5t-33 94.5q0 43 23.5 76.5t67 53t102.5 19.5q55 0 89 -14t50.5 -36t16.5 -45
q0 -31 -20 -46.5t-55 -15.5q0 27 -8.5 52.5t-28 42t-53.5 16.5q-45 0 -71 -24t-26 -62q0 -34 25 -56.5t77 -46.5q55 -25 87.5 -61t32.5 -94q0 -48 -25 -85.5t-71.5 -58.5t-110.5 -21zM266 606q-7 24 -19 51t-24.5 52t-24.5 44l3 13h36q15 -12 30 -27t29 -31.5t26 -32.5
q19 16 41 32.5t46 32t45 26.5h42l-3 -13q-19 -19 -43 -44t-47 -51.5t-42 -51.5h-95z" />
    <glyph glyph-name="uni0162" unicode="&#x162;" horiz-adv-x="613" 
d="M92 0l9 42h23q22 0 41.5 4.5t34 18.5t20.5 44l118 555h-96q-29 0 -48.5 -11.5t-31.5 -30t-20 -40.5l-14 -43h-52l42 175h563l-32 -175h-52q0 4 1 13t2 19.5t1.5 18.5t0.5 10q0 26 -14 45t-52 19h-97l-118 -554q-1 -6 -2.5 -14.5t-1.5 -13.5q0 -17 9.5 -25.5t25.5 -11.5
t37 -3h23l-9 -42h-311zM171 -240q-16 0 -37 3t-38 8l11 51q17 -4 35.5 -6t31.5 -2q31 0 52.5 14.5t21.5 46.5q0 24 -17.5 39t-46.5 17l38 78h47l-19 -43q36 -5 58 -28t22 -55q0 -43 -21.5 -70t-57.5 -40t-80 -13z" />
    <glyph glyph-name="uni0163" unicode="&#x163;" horiz-adv-x="368" 
d="M183 -10q-36 0 -60 13t-36.5 39t-12.5 65q0 18 3 41.5t7 42.5l61 288h-76l9 40q21 0 42 7.5t41 24t37.5 43t32.5 65.5h46l-26 -123h121l-12 -57h-121l-61 -285q-5 -25 -8.5 -47.5t-3.5 -38.5q0 -29 14 -42t39 -13q21 0 43.5 6.5t38.5 15.5l17 -37q-30 -21 -63.5 -34.5
t-71.5 -13.5zM80 -240q-16 0 -37 3t-38 8l11 51q17 -4 35.5 -6t31.5 -2q31 0 52.5 14.5t21.5 46.5q0 24 -17.5 39t-46.5 17l38 78h47l-19 -43q36 -5 58 -28t22 -55q0 -43 -21.5 -70t-57.5 -40t-80 -13z" />
    <glyph glyph-name="Tcaron" unicode="&#x164;" horiz-adv-x="613" 
d="M92 0l9 42h23q22 0 41.5 4.5t34 18.5t20.5 44l118 555h-96q-29 0 -48.5 -11.5t-31.5 -30t-20 -40.5l-14 -43h-52l42 175h563l-32 -175h-52q0 4 1 13t2 19.5t1.5 18.5t0.5 10q0 26 -14 45t-52 19h-97l-118 -554q-1 -6 -2.5 -14.5t-1.5 -13.5q0 -17 9.5 -25.5t25.5 -11.5
t37 -3h23l-9 -42h-311zM413 771q-7 24 -19 51t-24.5 52t-24.5 44l3 13h36q15 -12 30 -27t29 -31.5t26 -32.5q19 16 41 32.5t46 32t45 26.5h42l-3 -13q-19 -19 -43 -44t-47 -51.5t-42 -51.5h-95z" />
    <glyph glyph-name="tcaron" unicode="&#x165;" horiz-adv-x="368" 
d="M331 613q10 22 20.5 47t20.5 50.5t18 49.5h87l-2 -10q-13 -21 -32.5 -48t-40.5 -54t-39 -48h-34zM183 -10q-36 0 -60 13t-36.5 39t-12.5 65q0 18 3 41.5t7 42.5l61 288h-76l9 40q21 0 42 7.5t41 24t37.5 43t32.5 65.5h46l-26 -123h121l-12 -57h-121l-61 -285
q-5 -25 -8.5 -47.5t-3.5 -38.5q0 -29 14 -42t39 -13q21 0 43.5 6.5t38.5 15.5l17 -37q-30 -21 -63.5 -34.5t-71.5 -13.5z" />
    <glyph glyph-name="Tbar" unicode="&#x166;" horiz-adv-x="613" 
d="M100 328l9 49h168h101h168l-9 -49h-170h-101h-166zM92 0l9 42h23q22 0 41.5 4.5t34 18.5t20.5 44l118 555h-96q-29 0 -48.5 -11.5t-31.5 -30t-20 -40.5l-14 -43h-52l42 175h563l-32 -175h-52q0 4 1 13t2 19.5t1.5 18.5t0.5 10q0 26 -14 45t-52 19h-97l-118 -554
q-1 -6 -2.5 -14.5t-1.5 -13.5q0 -17 9.5 -25.5t25.5 -11.5t37 -3h23l-9 -42h-311z" />
    <glyph glyph-name="tbar" unicode="&#x167;" horiz-adv-x="368" 
d="M37 291l9 47h69h94h120l-9 -47h-121h-94h-68zM183 -10q-36 0 -60 13t-36.5 39t-12.5 65q0 18 3 41.5t7 42.5l61 288h-76l9 40q21 0 42 7.5t41 24t37.5 43t32.5 65.5h46l-26 -123h121l-12 -57h-121l-61 -285q-5 -25 -8.5 -47.5t-3.5 -38.5q0 -29 14 -42t39 -13
q21 0 43.5 6.5t38.5 15.5l17 -37q-30 -21 -63.5 -34.5t-71.5 -13.5z" />
    <glyph glyph-name="Utilde" unicode="&#x168;" horiz-adv-x="730" 
d="M323 -10q-109 0 -168 45.5t-59 127.5q0 16 3.5 44t7.5 45l74 352q2 6 3 15t1 13q0 26 -20 33t-52 7h-13l9 42h291l-8 -42h-13q-22 0 -41.5 -5t-34.5 -20t-22 -47l-75 -353q-5 -25 -8.5 -48.5t-3.5 -44.5q0 -51 38 -77.5t106 -26.5q65 0 104 20.5t60 56t30 79.5l85 398
q2 6 3 15t1 13q0 26 -20 33t-52 7h-13l9 42h251l-8 -42h-13q-22 0 -41.5 -5t-34.5 -20t-22 -47l-84 -396q-14 -66 -47 -114t-88 -74t-135 -26zM556 771q-27 0 -47 9.5t-36 22t-30.5 22t-30.5 9.5q-30 0 -41 -16.5t-19 -36.5h-45q9 31 26 57.5t43 43.5t62 17q27 0 46.5 -9.5
t35.5 -22t30.5 -22t30.5 -9.5q29 0 41 16.5t19 36.5h45q-8 -30 -25 -57t-43 -44t-62 -17z" />
    <glyph glyph-name="utilde" unicode="&#x169;" horiz-adv-x="599" 
d="M456 -10q-26 0 -45 13t-29 34.5t-10 47.5q0 11 1.5 27t3.5 32h-8q-28 -45 -55 -79.5t-60 -54t-78 -19.5q-39 0 -62.5 15.5t-34 41t-10.5 54.5q0 25 6 55t12 55l39 175q3 14 6 35t3 25q0 30 -20.5 38.5t-49.5 8.5h-8l9 42h186l-66 -299q-6 -27 -13 -63t-7 -58
q0 -25 10 -43t39 -18q27 0 56 20.5t56 54.5t47 75t29 82l52 249h97l-69 -321q-2 -11 -6 -32t-6.5 -43t-2.5 -36q0 -25 8.5 -38t24.5 -13q17 0 31 5.5t33 16.5l18 -29q-22 -19 -55.5 -37.5t-71.5 -18.5zM429 606q-27 0 -47 9.5t-36 22t-30.5 22t-30.5 9.5q-30 0 -41 -16.5
t-19 -36.5h-45q9 31 26 57.5t43 43.5t62 17q27 0 46.5 -9.5t35.5 -22t30.5 -22t30.5 -9.5q29 0 41 16.5t19 36.5h45q-8 -30 -25 -57t-43 -44t-62 -17z" />
    <glyph glyph-name="Umacron" unicode="&#x16a;" horiz-adv-x="730" 
d="M323 -10q-109 0 -168 45.5t-59 127.5q0 16 3.5 44t7.5 45l74 352q2 6 3 15t1 13q0 26 -20 33t-52 7h-13l9 42h291l-8 -42h-13q-22 0 -41.5 -5t-34.5 -20t-22 -47l-75 -353q-5 -25 -8.5 -48.5t-3.5 -44.5q0 -51 38 -77.5t106 -26.5q65 0 104 20.5t60 56t30 79.5l85 398
q2 6 3 15t1 13q0 26 -20 33t-52 7h-13l9 42h251l-8 -42h-13q-22 0 -41.5 -5t-34.5 -20t-22 -47l-84 -396q-14 -66 -47 -114t-88 -74t-135 -26zM325 771l13 59h290l-13 -59h-290z" />
    <glyph glyph-name="umacron" unicode="&#x16b;" horiz-adv-x="599" 
d="M456 -10q-26 0 -45 13t-29 34.5t-10 47.5q0 11 1.5 27t3.5 32h-8q-28 -45 -55 -79.5t-60 -54t-78 -19.5q-39 0 -62.5 15.5t-34 41t-10.5 54.5q0 25 6 55t12 55l39 175q3 14 6 35t3 25q0 30 -20.5 38.5t-49.5 8.5h-8l9 42h186l-66 -299q-6 -27 -13 -63t-7 -58
q0 -25 10 -43t39 -18q27 0 56 20.5t56 54.5t47 75t29 82l52 249h97l-69 -321q-2 -11 -6 -32t-6.5 -43t-2.5 -36q0 -25 8.5 -38t24.5 -13q17 0 31 5.5t33 16.5l18 -29q-22 -19 -55.5 -37.5t-71.5 -18.5zM218 606l13 59h290l-13 -59h-290z" />
    <glyph glyph-name="Ubreve" unicode="&#x16c;" horiz-adv-x="730" 
d="M323 -10q-109 0 -168 45.5t-59 127.5q0 16 3.5 44t7.5 45l74 352q2 6 3 15t1 13q0 26 -20 33t-52 7h-13l9 42h291l-8 -42h-13q-22 0 -41.5 -5t-34.5 -20t-22 -47l-75 -353q-5 -25 -8.5 -48.5t-3.5 -44.5q0 -51 38 -77.5t106 -26.5q65 0 104 20.5t60 56t30 79.5l85 398
q2 6 3 15t1 13q0 26 -20 33t-52 7h-13l9 42h251l-8 -42h-13q-22 0 -41.5 -5t-34.5 -20t-22 -47l-84 -396q-14 -66 -47 -114t-88 -74t-135 -26zM472 771q-40 0 -67 16t-41.5 46.5t-17.5 74.5h46q4 -34 27 -51t60 -17t64.5 16t43.5 52h46q-9 -37 -30.5 -68.5t-54 -50
t-76.5 -18.5z" />
    <glyph glyph-name="ubreve" unicode="&#x16d;" horiz-adv-x="599" 
d="M456 -10q-26 0 -45 13t-29 34.5t-10 47.5q0 11 1.5 27t3.5 32h-8q-28 -45 -55 -79.5t-60 -54t-78 -19.5q-39 0 -62.5 15.5t-34 41t-10.5 54.5q0 25 6 55t12 55l39 175q3 14 6 35t3 25q0 30 -20.5 38.5t-49.5 8.5h-8l9 42h186l-66 -299q-6 -27 -13 -63t-7 -58
q0 -25 10 -43t39 -18q27 0 56 20.5t56 54.5t47 75t29 82l52 249h97l-69 -321q-2 -11 -6 -32t-6.5 -43t-2.5 -36q0 -25 8.5 -38t24.5 -13q17 0 31 5.5t33 16.5l18 -29q-22 -19 -55.5 -37.5t-71.5 -18.5zM362 606q-40 0 -67 16t-41.5 46.5t-17.5 74.5h46q4 -34 27 -51t60 -17
t64.5 16t43.5 52h46q-9 -37 -30.5 -68.5t-54 -50t-76.5 -18.5z" />
    <glyph glyph-name="Uring" unicode="&#x16e;" horiz-adv-x="730" 
d="M323 -10q-109 0 -168 45.5t-59 127.5q0 16 3.5 44t7.5 45l74 352q2 6 3 15t1 13q0 26 -20 33t-52 7h-13l9 42h291l-8 -42h-13q-22 0 -41.5 -5t-34.5 -20t-22 -47l-75 -353q-5 -25 -8.5 -48.5t-3.5 -44.5q0 -51 38 -77.5t106 -26.5q65 0 104 20.5t60 56t30 79.5l85 398
q2 6 3 15t1 13q0 26 -20 33t-52 7h-13l9 42h251l-8 -42h-13q-22 0 -41.5 -5t-34.5 -20t-22 -47l-84 -396q-14 -66 -47 -114t-88 -74t-135 -26zM490 761q-50 0 -85 28t-35 81t35 81t85 28t85 -28t35 -81t-35 -81t-85 -28zM490 810q27 0 46.5 14t19.5 46t-19.5 46t-46.5 14
t-46.5 -14t-19.5 -46t19.5 -46t46.5 -14z" />
    <glyph glyph-name="uring" unicode="&#x16f;" horiz-adv-x="599" 
d="M456 -10q-26 0 -45 13t-29 34.5t-10 47.5q0 11 1.5 27t3.5 32h-8q-28 -45 -55 -79.5t-60 -54t-78 -19.5q-39 0 -62.5 15.5t-34 41t-10.5 54.5q0 25 6 55t12 55l39 175q3 14 6 35t3 25q0 30 -20.5 38.5t-49.5 8.5h-8l9 42h186l-66 -299q-6 -27 -13 -63t-7 -58
q0 -25 10 -43t39 -18q27 0 56 20.5t56 54.5t47 75t29 82l52 249h97l-69 -321q-2 -11 -6 -32t-6.5 -43t-2.5 -36q0 -25 8.5 -38t24.5 -13q17 0 31 5.5t33 16.5l18 -29q-22 -19 -55.5 -37.5t-71.5 -18.5zM366 596q-50 0 -85 28t-35 81t35 81t85 28t85 -28t35 -81t-35 -81
t-85 -28zM366 645q27 0 46.5 14t19.5 46t-19.5 46t-46.5 14t-46.5 -14t-19.5 -46t19.5 -46t46.5 -14z" />
    <glyph glyph-name="Uhungarumlaut" unicode="&#x170;" horiz-adv-x="730" 
d="M323 -10q-109 0 -168 45.5t-59 127.5q0 16 3.5 44t7.5 45l74 352q2 6 3 15t1 13q0 26 -20 33t-52 7h-13l9 42h291l-8 -42h-13q-22 0 -41.5 -5t-34.5 -20t-22 -47l-75 -353q-5 -25 -8.5 -48.5t-3.5 -44.5q0 -51 38 -77.5t106 -26.5q65 0 104 20.5t60 56t30 79.5l85 398
q2 6 3 15t1 13q0 26 -20 33t-52 7h-13l9 42h251l-8 -42h-13q-22 0 -41.5 -5t-34.5 -20t-22 -47l-84 -396q-14 -66 -47 -114t-88 -74t-135 -26zM510 784q19 22 37.5 46.5t36.5 50.5t33 50h107l-3 -10q-10 -13 -30.5 -33t-45 -42t-49.5 -41.5t-45 -33.5h-44zM330 784
q19 22 38 47t37 51t32 49h107l-3 -10q-10 -13 -30.5 -33t-45 -42t-49.5 -41.5t-45 -33.5h-44z" />
    <glyph glyph-name="uhungarumlaut" unicode="&#x171;" horiz-adv-x="599" 
d="M456 -10q-26 0 -45 13t-29 34.5t-10 47.5q0 11 1.5 27t3.5 32h-8q-28 -45 -55 -79.5t-60 -54t-78 -19.5q-39 0 -62.5 15.5t-34 41t-10.5 54.5q0 25 6 55t12 55l39 175q3 14 6 35t3 25q0 30 -20.5 38.5t-49.5 8.5h-8l9 42h186l-66 -299q-6 -27 -13 -63t-7 -58
q0 -25 10 -43t39 -18q27 0 56 20.5t56 54.5t47 75t29 82l52 249h97l-69 -321q-2 -11 -6 -32t-6.5 -43t-2.5 -36q0 -25 8.5 -38t24.5 -13q17 0 31 5.5t33 16.5l18 -29q-22 -19 -55.5 -37.5t-71.5 -18.5zM405 619q19 22 37.5 46.5t36.5 50.5t33 50h107l-3 -10
q-10 -13 -30.5 -33t-45 -42t-49.5 -41.5t-45 -33.5h-44zM225 619q19 22 38 47t37 51t32 49h107l-3 -10q-10 -13 -30.5 -33t-45 -42t-49.5 -41.5t-45 -33.5h-44z" />
    <glyph glyph-name="Uogonek" unicode="&#x172;" horiz-adv-x="730" 
d="M323 -10q-109 0 -168 45.5t-59 127.5q0 16 3.5 44t7.5 45l74 352q2 6 3 15t1 13q0 26 -20 33t-52 7h-13l9 42h291l-8 -42h-13q-22 0 -41.5 -5t-34.5 -20t-22 -47l-75 -353q-5 -25 -8.5 -48.5t-3.5 -44.5q0 -51 38 -77.5t106 -26.5q65 0 104 20.5t60 56t30 79.5l85 398
q2 6 3 15t1 13q0 26 -20 33t-52 7h-13l9 42h251l-8 -42h-13q-22 0 -41.5 -5t-34.5 -20t-22 -47l-84 -396q-14 -66 -47 -114t-88 -74t-135 -26zM323 -240q-55 0 -86 26.5t-31 75.5q0 36 19 63.5t52.5 46t77.5 28.5h57q-23 -7 -51 -23t-48 -41t-20 -60q0 -25 16 -39.5
t41 -14.5q14 0 30 2t35 6l-12 -54q-17 -7 -37.5 -11.5t-42.5 -4.5z" />
    <glyph glyph-name="uogonek" unicode="&#x173;" horiz-adv-x="599" 
d="M456 -10q-26 0 -45 13t-29 34.5t-10 47.5q0 11 1.5 27t3.5 32h-8q-28 -45 -55 -79.5t-60 -54t-78 -19.5q-39 0 -62.5 15.5t-34 41t-10.5 54.5q0 25 6 55t12 55l39 175q3 14 6 35t3 25q0 30 -20.5 38.5t-49.5 8.5h-8l9 42h186l-66 -299q-6 -27 -13 -63t-7 -58
q0 -25 10 -43t39 -18q27 0 56 20.5t56 54.5t47 75t29 82l52 249h97l-69 -321q-2 -11 -6 -32t-6.5 -43t-2.5 -36q0 -25 8.5 -38t24.5 -13q17 0 31 5.5t33 16.5l18 -29q-22 -19 -55.5 -37.5t-71.5 -18.5zM418 -240q-55 0 -86 26.5t-31 75.5q0 36 19 63.5t52.5 46t77.5 28.5h57
q-23 -7 -51 -23t-48 -41t-20 -60q0 -25 16 -39.5t41 -14.5q14 0 30 2t35 6l-12 -54q-17 -7 -37.5 -11.5t-42.5 -4.5z" />
    <glyph glyph-name="Wcircumflex" unicode="&#x174;" horiz-adv-x="1045" 
d="M162 619q-2 21 -8.5 32.5t-19 16t-32.5 4.5h-13l9 42h272l-9 -42h-23q-32 0 -52 -13.5t-20 -37.5q0 -8 0.5 -17.5t1.5 -16.5l24 -320q2 -22 3.5 -44.5t2 -44.5t1 -42t0.5 -38q17 39 37.5 85.5t44.5 94.5l210 429h72l33 -433q4 -49 5 -95t0 -81q11 24 22 49.5t24 54
t29 60.5l159 318q9 19 14 32.5t5 23.5q0 19 -13.5 27.5t-42.5 8.5h-24l8 42h244l-9 -42h-19q-19 0 -34 -5.5t-28 -22.5t-30 -50l-295 -594h-92l-45 554l-269 -554h-91zM484 784q20 19 44.5 45t48.5 53t39 49h95q6 -22 17.5 -49t25.5 -53t25 -45l-3 -13h-35q-16 11 -32.5 26
t-30.5 31.5t-26 32.5q-18 -16 -39.5 -32.5t-44 -31.5t-44.5 -26h-43z" />
    <glyph glyph-name="wcircumflex" unicode="&#x175;" horiz-adv-x="819" 
d="M449 -10q0 37 -1.5 84.5t-3.5 98.5t-4 99t-3.5 87.5t-2.5 63.5q-5 -14 -20.5 -46.5t-36.5 -75.5t-45 -89.5t-46 -89.5t-39 -74.5t-24 -44.5l-103 -12l-7 431q0 31 -8.5 46t-23 20.5t-34.5 5.5h-10l14 42h150q1 -53 2 -111.5t1.5 -118.5t0.5 -117.5v-108.5h4
q24 41 52.5 95t59 114t59 121.5t51.5 116.5l83 4q3 -30 6 -77.5t5.5 -103t4.5 -109.5t3.5 -98.5t1.5 -69.5h7q34 41 67 89t60.5 96.5t44 92t16.5 76.5q0 25 -11.5 39t-31.5 21q3 24 18.5 41.5t40.5 17.5t39 -18.5t14 -56.5q0 -45 -18 -95.5t-51.5 -108.5t-79.5 -124.5
t-102 -141.5zM339 619q20 19 44.5 45t48.5 53t39 49h95q6 -22 17.5 -49t25.5 -53t25 -45l-3 -13h-35q-16 11 -32.5 26t-30.5 31.5t-26 32.5q-18 -16 -39.5 -32.5t-44 -31.5t-44.5 -26h-43z" />
    <glyph glyph-name="Ycircumflex" unicode="&#x176;" horiz-adv-x="625" 
d="M99 0l9 42h23q22 0 41.5 4.5t34 18.5t20.5 44l39 184l-116 326q-7 19 -13.5 30.5t-16.5 17t-30 5.5h-13l9 42h270l-9 -42h-50q-20 0 -30.5 -7t-10.5 -20q0 -8 1.5 -17.5t4.5 -19t7 -21.5l45 -134q11 -31 18.5 -63t8.5 -57q11 21 31 47t47 62l93 124q13 17 20.5 31
t11.5 26.5t4 22.5q0 14 -10.5 20t-37.5 6h-37l9 42h247l-9 -42h-19q-15 0 -28.5 -8.5t-28.5 -25.5t-34 -42l-233 -305l-39 -181q-1 -6 -2.5 -14.5t-1.5 -13.5q0 -25 20.5 -32.5t51.5 -7.5h23l-9 -42h-311zM269 784q20 19 44.5 45t48.5 53t39 49h95q6 -22 17.5 -49t25.5 -53
t25 -45l-3 -13h-35q-16 11 -32.5 26t-30.5 31.5t-26 32.5q-18 -16 -39.5 -32.5t-44 -31.5t-44.5 -26h-43z" />
    <glyph glyph-name="ycircumflex" unicode="&#x177;" horiz-adv-x="528" 
d="M-68 -240q-25 0 -50 5t-44 13l15 50q12 -4 29.5 -7.5t48.5 -3.5q49 0 90.5 17.5t76.5 45t63.5 59t50.5 60.5l-132 442q-6 20 -14.5 31.5t-21.5 16.5t-33 5h-10l8 42h146l78 -270q8 -26 17 -62t16.5 -69t8.5 -50h3q38 58 68.5 117t48.5 114.5t18 100.5q0 14 -4.5 26.5
t-15 20t-29.5 7.5q0 36 20.5 55t44.5 19q32 0 50 -21t18 -63q0 -52 -21.5 -114.5t-61 -135t-93.5 -154.5q-49 -76 -90.5 -132t-83.5 -92.5t-93.5 -54.5t-121.5 -18zM140 619q20 19 44.5 45t48.5 53t39 49h95q6 -22 17.5 -49t25.5 -53t25 -45l-3 -13h-35q-16 11 -32.5 26
t-30.5 31.5t-26 32.5q-18 -16 -39.5 -32.5t-44 -31.5t-44.5 -26h-43z" />
    <glyph glyph-name="Ydieresis" unicode="&#x178;" horiz-adv-x="625" 
d="M99 0l9 42h23q22 0 41.5 4.5t34 18.5t20.5 44l39 184l-116 326q-7 19 -13.5 30.5t-16.5 17t-30 5.5h-13l9 42h270l-9 -42h-50q-20 0 -30.5 -7t-10.5 -20q0 -8 1.5 -17.5t4.5 -19t7 -21.5l45 -134q11 -31 18.5 -63t8.5 -57q11 21 31 47t47 62l93 124q13 17 20.5 31
t11.5 26.5t4 22.5q0 14 -10.5 20t-37.5 6h-37l9 42h247l-9 -42h-19q-15 0 -28.5 -8.5t-28.5 -25.5t-34 -42l-233 -305l-39 -181q-1 -6 -2.5 -14.5t-1.5 -13.5q0 -25 20.5 -32.5t51.5 -7.5h23l-9 -42h-311zM524 797q-22 0 -36 12.5t-14 37.5q0 29 14.5 46t39.5 17
q22 0 36 -12t14 -38q0 -35 -17 -49t-37 -14zM334 797q-22 0 -36 12.5t-14 37.5q0 29 14.5 46t39.5 17q22 0 36 -12t14 -38q0 -35 -17 -49t-37 -14z" />
    <glyph glyph-name="Zacute" unicode="&#x179;" horiz-adv-x="605" 
d="M-17 0l8 40l503 624h-233q-30 0 -49.5 -11.5t-31 -30t-19.5 -40.5l-14 -43h-52l42 175h494l-8 -41l-504 -623h267q31 0 50.5 11.5t31.5 30t19 40.5l14 43h52l-42 -175h-528zM331 771l3 13q18 20 37 45t37 51.5t33 50.5h107l-3 -10q-12 -15 -32 -35t-44.5 -41.5
t-49.5 -40.5t-48 -33h-40z" />
    <glyph glyph-name="zacute" unicode="&#x17a;" horiz-adv-x="511" 
d="M-1 0l8 40l340 439h-127q-26 0 -42.5 -9t-27.5 -27t-24 -45l-2 -4h-42l40 142h350l-8 -41l-341 -438h178q23 0 38.5 11.5t26.5 30.5t20 40l10 23h42l-39 -162h-400zM245 606l3 13q18 20 37 45t37 51.5t33 50.5h107l-3 -10q-12 -15 -32 -35t-44.5 -41.5t-49.5 -40.5
t-48 -33h-40z" />
    <glyph glyph-name="Zdotaccent" unicode="&#x17b;" horiz-adv-x="605" 
d="M-17 0l8 40l503 624h-233q-30 0 -49.5 -11.5t-31 -30t-19.5 -40.5l-14 -43h-52l42 175h494l-8 -41l-504 -623h267q31 0 50.5 11.5t31.5 30t19 40.5l14 43h52l-42 -175h-528zM381 801q-25 0 -40.5 13.5t-15.5 41.5q0 21 7.5 36.5t21 24.5t31.5 9q24 0 40 -13.5t16 -41.5
q0 -26 -9 -41.5t-22.5 -22t-28.5 -6.5z" />
    <glyph glyph-name="zdotaccent" unicode="&#x17c;" horiz-adv-x="511" 
d="M-1 0l8 40l340 439h-127q-26 0 -42.5 -9t-27.5 -27t-24 -45l-2 -4h-42l40 142h350l-8 -41l-341 -438h178q23 0 38.5 11.5t26.5 30.5t20 40l10 23h42l-39 -162h-400zM309 636q-25 0 -40.5 13.5t-15.5 41.5q0 21 7.5 36.5t21 24.5t31.5 9q24 0 40 -13.5t16 -41.5
q0 -26 -9 -41.5t-22.5 -22t-28.5 -6.5z" />
    <glyph glyph-name="Zcaron" unicode="&#x17d;" horiz-adv-x="605" 
d="M-17 0l8 40l503 624h-233q-30 0 -49.5 -11.5t-31 -30t-19.5 -40.5l-14 -43h-52l42 175h494l-8 -41l-504 -623h267q31 0 50.5 11.5t31.5 30t19 40.5l14 43h52l-42 -175h-528zM381 771q-7 24 -19 51t-24.5 52t-24.5 44l3 13h36q15 -12 30 -27t29 -31.5t26 -32.5
q19 16 41 32.5t46 32t45 26.5h42l-3 -13q-19 -19 -43 -44t-47 -51.5t-42 -51.5h-95z" />
    <glyph glyph-name="zcaron" unicode="&#x17e;" horiz-adv-x="511" 
d="M-1 0l8 40l340 439h-127q-26 0 -42.5 -9t-27.5 -27t-24 -45l-2 -4h-42l40 142h350l-8 -41l-341 -438h178q23 0 38.5 11.5t26.5 30.5t20 40l10 23h42l-39 -162h-400zM329 606q-7 24 -19 51t-24.5 52t-24.5 44l3 13h36q15 -12 30 -27t29 -31.5t26 -32.5q19 16 41 32.5
t46 32t45 26.5h42l-3 -13q-19 -19 -43 -44t-47 -51.5t-42 -51.5h-95z" />
    <glyph glyph-name="longs" unicode="&#x17f;" horiz-adv-x="300" 
d="M-82 -240q-15 0 -31.5 2.5t-26.5 5.5l9 46q8 -2 21.5 -4.5t24.5 -2.5q33 0 55.5 18.5t39.5 59t31 106.5l127 600q18 86 63 132.5t127 46.5q64 0 96.5 -20.5t32.5 -53.5t-21.5 -49t-61.5 -16q0 26 -4 47t-15 33.5t-32 12.5q-37 0 -56 -30.5t-33 -93.5l-129 -608
q-14 -67 -34.5 -111.5t-47.5 -71t-60.5 -38t-74.5 -11.5z" />
    <glyph glyph-name="uni0180" unicode="&#x180;" horiz-adv-x="562" 
d="M221 -10q-37 0 -68.5 11t-48.5 25l-45 -29h-32l126 596h-87l9 47h88q2 11 3.5 19.5t1.5 11.5q0 20 -9.5 30t-25.5 13.5t-35 3.5h-8l9 42h189l-26 -120h169l-9 -47h-170l-18 -79q-3 -14 -7.5 -32t-10 -37t-10.5 -35.5t-8 -27.5h5q24 45 50.5 77t59 49t73.5 17q59 0 93 -46
t34 -135q0 -49 -12.5 -99t-36.5 -95.5t-59.5 -81.5t-81.5 -57t-102 -21zM217 35q40 0 71.5 21t54.5 55.5t38 76t22.5 82.5t7.5 75q0 64 -18.5 90.5t-44.5 26.5t-50 -16.5t-44.5 -43t-36.5 -56t-26.5 -55.5t-14.5 -43l-37 -177q13 -16 33 -26t45 -10z" />
    <glyph glyph-name="uni0181" unicode="&#x181;" horiz-adv-x="731" 
d="M56 0l8 42h13q23 0 42.5 5t34.5 20.5t21 46.5l104 490q2 6 3 16t1 14q0 23 -17 31.5t-43 8.5q-37 0 -58.5 -24t-21.5 -61q0 -10 3 -19t8 -17q-9 -7 -18 -10.5t-20 -3.5q-22 0 -35 15t-13 32q0 52 37 90t120 38h241q116 0 175 -38t59 -112q0 -55 -21.5 -92.5t-58.5 -60
t-83 -33.5l-1 -4q54 -10 88 -46.5t34 -99.5q0 -73 -32.5 -124t-96.5 -77.5t-159 -26.5h-314zM359 50q103 0 147 47.5t44 137.5q0 57 -34.5 85.5t-105.5 28.5h-84l-64 -299h97zM413 399q63 0 102.5 17.5t57.5 51.5t18 83q0 56 -35 84.5t-103 28.5h-60l-57 -265h77z" />
    <glyph glyph-name="uni0182" unicode="&#x182;" horiz-adv-x="630" 
d="M-22 0l9 42h13q23 0 42.5 5t34 20.5t20.5 46.5l105 490q2 6 3 15t1 13q0 26 -20 33t-52 7h-13l9 42h197l-70 -327l-24 29h99q107 0 169 -45.5t62 -133.5q0 -34 -12.5 -74.5t-45 -77.5t-92 -61t-154.5 -24h-281zM180 25l-24 29h94q75 0 120 25.5t65 67t20 90.5
q0 68 -37.5 96.5t-110.5 28.5h-85l36 29zM526 535l3 31q2 14 2.5 22.5t0.5 13.5q0 29 -14.5 43.5t-54.5 14.5h-201v54h350l-34 -179h-52z" />
    <glyph glyph-name="uni0183" unicode="&#x183;" horiz-adv-x="562" 
d="M221 -10q-37 0 -68.5 11t-48.5 25l-45 -29h-32l132 621q5 20 7 34.5t2 18.5q0 30 -20.5 38.5t-49.5 8.5h-8l9 42h433l-34 -160h-47v21q-1 39 -7 59t-19 27t-35 7h-112l-38 -179q-3 -14 -7.5 -32t-10 -37t-10.5 -35.5t-8 -27.5h5q24 45 50.5 77t59 49t73.5 17q59 0 93 -46
t34 -135q0 -49 -13 -101t-38 -101t-61.5 -88t-83 -62t-102.5 -23zM217 35q40 0 72 23t56 61t40 82.5t24 87.5t8 77q0 64 -18.5 90.5t-44.5 26.5t-50 -16.5t-44.5 -43t-36.5 -56t-26.5 -55.5t-14.5 -43l-43 -198q13 -16 33 -26t45 -10z" />
    <glyph glyph-name="uni0184" unicode="&#x184;" horiz-adv-x="584" 
d="M297 -10q-73 0 -117.5 25.5t-64 64.5t-19.5 81q0 20 1 34t4 27l81 382q2 6 3 15t1 13q0 26 -21.5 33t-50.5 7h-13l9 42h291l-8 -42h-13q-22 0 -42 -5t-34.5 -20t-21.5 -47l-44 -205h57q75 0 123 -14t75 -38.5t37.5 -55.5t10.5 -64q0 -70 -27.5 -122.5t-82 -81.5
t-134.5 -29zM301 37q45 0 74.5 23.5t43.5 64t14 89.5q0 73 -35 103.5t-106 30.5h-64l-26 -123q-4 -20 -5.5 -34.5t-1.5 -35.5q0 -58 26.5 -88t79.5 -30z" />
    <glyph glyph-name="uni0185" unicode="&#x185;" horiz-adv-x="547" 
d="M191 -10q-47 0 -77 20t-43.5 55t-13.5 80q0 26 3.5 57.5t11.5 70.5l72 345q5 20 7 34.5t2 18.5q0 30 -20.5 38.5t-49.5 8.5h-8l9 42h189l-48 -225q-3 -14 -7.5 -32t-10 -37t-10.5 -35.5t-8 -27.5h5q35 67 78.5 105t104.5 38q59 0 93 -46t34 -135q0 -49 -13.5 -101
t-40 -101t-64.5 -88t-87 -62t-108 -23zM214 43q38 0 68 22.5t52.5 59t37.5 79.5t22.5 85.5t7.5 76.5q0 64 -18.5 90.5t-44.5 26.5q-31 0 -59.5 -23t-52.5 -60.5t-41.5 -84t-27.5 -93.5t-10 -88q0 -45 14.5 -68t51.5 -23z" />
    <glyph glyph-name="uni0186" unicode="&#x186;" horiz-adv-x="627" 
d="M184 -10q-67 0 -106.5 18.5t-56.5 44.5t-17 48q0 24 11 41.5t32 27t50 9.5q0 -21 3.5 -44.5t14 -44.5t30 -34t52.5 -13q52 0 96.5 22t80 60t61 88t39 107.5t13.5 116.5q0 84 -19 136.5t-57.5 76.5t-96.5 24q-45 0 -76 -22.5t-48.5 -56t-24.5 -66.5q-21 0 -37.5 8
t-26 23.5t-9.5 37.5q0 19 13.5 41t41 41t70.5 31.5t103 12.5q87 0 149 -31.5t94.5 -92t32.5 -148.5q0 -77 -19 -146.5t-55 -127.5t-86.5 -100t-114 -65t-137.5 -23z" />
    <glyph glyph-name="uni0187" unicode="&#x187;" horiz-adv-x="627" 
d="M328 -10q-87 0 -148.5 31.5t-94.5 91.5t-33 145q0 89 29 172.5t83.5 149.5t130.5 105t169 39q49 0 86 -9.5t60 -27.5l4 19q16 81 49.5 116t89.5 35q25 0 42.5 -14t17.5 -40q0 -10 -5.5 -20.5t-16.5 -19.5q-9 8 -20.5 13t-23.5 5q-20 0 -35 -7t-25.5 -25.5t-18.5 -53.5
l-17 -78q-9 -42 -34.5 -62t-65.5 -20q0 21 -3.5 44.5t-14 44.5t-30 34t-52.5 13q-55 0 -100.5 -26.5t-81 -71t-59.5 -100.5t-36.5 -115.5t-12.5 -115.5q0 -59 20 -101t59.5 -64t98.5 -22q71 0 115.5 28.5t69.5 62.5q6 -4 9.5 -13t3.5 -20q0 -26 -21.5 -55t-67.5 -48.5
t-120 -19.5z" />
    <glyph glyph-name="uni0188" unicode="&#x188;" horiz-adv-x="502" 
d="M238 -10q-53 0 -97.5 23t-71 68.5t-26.5 115.5q0 44 12.5 92.5t36.5 94t60 82.5t83.5 58.5t105.5 21.5q35 0 61.5 -7.5t44.5 -19.5l18 90q11 54 29 87.5t45.5 48.5t64.5 15q17 0 30.5 -6t21.5 -18t8 -30q0 -10 -5.5 -20.5t-16.5 -19.5q-7 8 -19.5 13t-24.5 5
q-22 0 -37 -9t-25 -28t-17 -49l-32 -152q-3 -17 -14 -32.5t-29 -24.5t-46 -9q0 48 -18.5 83t-58.5 35q-32 0 -59 -21.5t-48.5 -56t-36 -76t-22.5 -82.5t-8 -73q0 -64 28 -100t82 -36q53 0 88 23t56 49q5 -3 7.5 -10t2.5 -15q0 -22 -18.5 -47.5t-56.5 -44t-98 -18.5z" />
    <glyph glyph-name="Dtail" unicode="&#x189;" horiz-adv-x="725" 
d="M51 349l11 49h366l-11 -49h-366zM-21 0l8 42h13q23 0 42.5 5t34.5 20.5t21 46.5l104 490q2 7 3 14.5t1 13.5q0 27 -22.5 33.5t-49.5 6.5h-13l9 42h280q135 0 209.5 -69.5t74.5 -202.5q0 -89 -26 -169t-77 -141.5t-125.5 -96.5t-171.5 -35h-315zM272 51q74 0 132 29.5
t98.5 83t61.5 127.5t21 162q0 110 -51.5 160.5t-138.5 50.5h-79l-131 -613h87z" />
    <glyph glyph-name="uni018A" unicode="&#x18a;" horiz-adv-x="802" 
d="M56 0l8 42h13q23 0 42.5 5t34.5 20.5t21 46.5l104 490q2 6 3 16t1 14q0 23 -17 31.5t-43 8.5q-37 0 -58.5 -24t-21.5 -61q0 -10 3 -19t8 -17q-9 -7 -18 -10.5t-20 -3.5q-22 0 -35 16.5t-13 43.5q0 28 16 54.5t51 43.5t90 17h262q135 0 209.5 -69.5t74.5 -202.5
q0 -89 -26 -169t-77 -141.5t-125.5 -96.5t-171.5 -35h-315zM349 51q74 0 132 29.5t98.5 83t61.5 127.5t21 162q0 110 -51.5 160.5t-138.5 50.5h-79l-131 -613h87z" />
    <glyph glyph-name="uni018B" unicode="&#x18b;" horiz-adv-x="610" 
d="M258 0q-70 0 -121 20t-79 58.5t-28 96.5q0 35 12 73t44 71.5t91.5 54.5t154.5 21h70l58 277h-158q-28 0 -47 -10t-31.5 -29.5t-23.5 -50.5l-14 -43h-52l42 175h488l-9 -42h-13q-22 0 -41.5 -5t-33.5 -20t-21 -47l-104 -490q-1 -6 -2.5 -14.5t-1.5 -13.5q0 -25 20.5 -32.5
t51.5 -7.5h13l-9 -42h-256zM282 48h46l64 300h-47q-76 0 -122 -21.5t-66.5 -60t-20.5 -89.5q0 -46 16.5 -74.5t49.5 -41.5t80 -13z" />
    <glyph glyph-name="uni018C" unicode="&#x18c;" horiz-adv-x="579" 
d="M172 -10q-44 0 -73 24t-42.5 65.5t-13.5 93.5q0 47 12.5 98.5t37.5 100t61 88t83 63t104 23.5q29 0 55 -7.5t45 -18.5q1 11 3.5 26.5t5.5 31.5l29 140h-157q-24 0 -40 -7t-28 -24.5t-24 -49.5l-12 -33h-49l39 156h374l-116 -545q-2 -11 -6 -32t-6.5 -43t-2.5 -36
q0 -25 8.5 -38t24.5 -13q17 0 35 7.5t37 18.5l18 -29q-14 -13 -38 -27t-51 -23.5t-52 -9.5q-36 0 -57 22t-21 61q0 20 2.5 36.5t7.5 41.5h-6q-23 -51 -51.5 -87t-62 -55t-73.5 -19zM208 53q26 0 53.5 20t52 54t43.5 76t28 85l37 177q-11 18 -32 27t-44 9q-40 0 -72 -22.5
t-56 -59.5t-40.5 -81t-24.5 -88.5t-8 -80.5q0 -62 18 -89t45 -27z" />
    <glyph glyph-name="uni018D" unicode="&#x18d;" horiz-adv-x="577" 
d="M344 546q63 -1 110 -28.5t69.5 -80t11.5 -129.5q-9 -64 -43 -112.5t-86 -79t-114 -40.5q30 -24 56 -46.5t39.5 -49.5t7.5 -68q-5 -41 -31 -73t-68 -50t-95 -18q-56 0 -93 16t-54 40.5t-14 47.5q5 32 26 47.5t53 15.5q-4 -33 5.5 -60.5t32.5 -44t58 -16.5q44 0 70 20.5
t31 54.5q4 28 -3.5 47.5t-32.5 42.5t-74 59q-34 27 -62.5 54.5t-47.5 59.5t-26.5 71.5t-0.5 90.5q10 72 48.5 123.5t97 79t129.5 26.5zM336 494q-48 2 -84 -24.5t-58 -68t-28 -86.5q-8 -58 6 -98.5t39.5 -68.5t51.5 -48q45 10 81.5 37t61 69.5t32.5 98.5q10 69 -1.5 110
t-38 59.5t-62.5 19.5z" />
    <glyph glyph-name="uni018E" unicode="&#x18e;" horiz-adv-x="623" 
d="M-3 0l32 175h52q0 -4 -1.5 -17.5t-2.5 -25.5t-1 -15q0 -18 7 -33.5t22.5 -24.5t41.5 -9h193l64 299h-241l10 49h241l57 266h-168q-31 0 -53.5 -11.5t-37 -30t-22.5 -40.5l-16 -43h-52l44 175h511l-8 -42h-13q-22 0 -41.5 -4t-34 -18.5t-21.5 -44.5l-104 -491
q-1 -7 -2 -13t-1 -11q0 -31 20.5 -39.5t49.5 -8.5h13l-9 -42h-529z" />
    <glyph glyph-name="uni018F" unicode="&#x18f;" horiz-adv-x="668" 
d="M243 -10q-67 0 -114.5 18.5t-73 55t-25.5 89.5q0 34 12.5 67.5t42.5 64.5t82 54.5t130 37.5t188 14h36q3 23 5 45t2 41q0 46 -11.5 80t-33 56.5t-52 33.5t-69.5 11q-41 0 -77 -11.5t-68 -31t-61 -45.5q-4 4 -6.5 10t-2.5 11q0 41 30 71t82 46.5t116 16.5q72 0 122 -22
t81 -59.5t45 -86t14 -102.5q0 -65 -17 -131.5t-49.5 -126.5t-80.5 -106.5t-110 -73.5t-137 -27zM251 44q49 0 90.5 24t75 65.5t57.5 95t38 112.5h-38q-80 0 -138 -11.5t-97 -31t-61.5 -44t-32.5 -51t-10 -51.5q0 -55 27 -81.5t89 -26.5z" />
    <glyph glyph-name="uni0190" unicode="&#x190;" horiz-adv-x="593" 
d="M277 -11q-65 0 -120.5 17.5t-89 56t-33.5 101.5q0 48 16.5 84.5t46.5 62t70.5 41t87.5 21.5l1 5q-35 10 -63.5 27t-45.5 45.5t-17 70.5q0 54 22.5 93t61 63t86 35.5t97.5 11.5q98 0 151 -34.5t53 -85.5q0 -29 -13 -46.5t-35 -25t-48 -7.5q0 34 -7.5 61.5t-22 47t-37.5 30
t-54 10.5q-43 0 -77.5 -18t-54 -54t-19.5 -89q0 -36 16 -62.5t45 -41t67 -14.5h85l-11 -51h-85q-47 0 -84.5 -10t-64 -31t-40.5 -52.5t-14 -75.5q0 -62 37.5 -91t101.5 -29q41 0 75.5 8t66.5 26.5t63 50.5q7 -4 10.5 -11t3.5 -17q0 -27 -16.5 -49.5t-47 -39t-72 -25.5
t-92.5 -9z" />
    <glyph glyph-name="uni0191" unicode="&#x191;" horiz-adv-x="710" 
d="M67 -241q-50 0 -86.5 13t-56.5 38t-20 60q0 27 11.5 42t26.5 20.5t27 5.5q0 -35 7 -65t27 -48t59 -18q33 0 56 11.5t37.5 37t23.5 67.5l143 681q2 6 3 15t1 13q0 26 -20 33t-52 7h-13l9 42h504l-32 -175h-52q1 11 2 23.5t2 22.5t1 12q0 29 -16.5 48t-58.5 19h-164
l-62 -289h241l-10 -49h-241l-81 -379q-13 -60 -39 -102t-69.5 -64t-107.5 -22z" />
    <glyph glyph-name="fhook" unicode="&#x192;" horiz-adv-x="404" 
d="M17 -241q-58 0 -88.5 22.5t-30.5 57.5q0 31 19.5 45t53.5 14q0 -38 10 -65.5t41 -27.5q25 0 41.5 15t29.5 51t26 97l113 511h-91l6 36l96 21l11 55q17 86 62.5 132.5t127.5 46.5q64 0 96.5 -20.5t32.5 -53.5t-21.5 -49t-61.5 -16q0 26 -4 47t-15 33.5t-32 12.5
q-37 0 -57 -30.5t-32 -93.5l-13 -64h111l-11 -57h-112l-110 -502q-25 -115 -70 -166.5t-128 -51.5z" />
    <glyph glyph-name="uni0193" unicode="&#x193;" horiz-adv-x="714" 
d="M336 -10q-141 0 -212.5 72t-71.5 196q0 97 31 181.5t88 148.5t136 100t175 36q60 0 102.5 -11t68.5 -29l4 22q16 81 49.5 116t89.5 35q25 0 42.5 -14t17.5 -40q0 -10 -5.5 -20.5t-16.5 -19.5q-9 8 -20.5 13t-23.5 5q-20 0 -35 -7t-25.5 -25.5t-18.5 -53.5l-19 -90
q-7 -33 -35.5 -50.5t-69.5 -17.5q0 39 -13 69.5t-41 47.5t-72 17q-64 0 -118.5 -35t-95.5 -95t-63.5 -137t-22.5 -162q0 -57 19.5 -101t62 -69t111.5 -25q29 0 60 4t53 10l33 159q2 6 3 15t1 13q0 26 -21.5 33t-50.5 7h-9l9 42h266l-9 -42h-4q-18 0 -35 -5t-30 -20t-20 -47
l-38 -180q-55 -23 -108 -34.5t-118 -11.5z" />
    <glyph glyph-name="Gammalatin" unicode="&#x194;" horiz-adv-x="643" 
d="M208 -240q-26 0 -45.5 7t-32 20t-19 32.5t-6.5 44.5q0 19 5 41t17 50t31.5 63.5t49 80t69.5 99.5l-21 -89l-123 510q-5 21 -11 32.5t-17 16t-31 4.5h-4l9 42h263l-8 -42h-23q-32 0 -52 -13.5t-20 -37.5q0 -8 0.5 -17.5t1.5 -16.5l92 -398l-36 6l262 385q11 17 15 31.5
t4 24.5q0 19 -13.5 27.5t-42.5 8.5h-23l8 42h237l-9 -42h-9q-19 0 -31.5 -7t-25.5 -23.5t-35 -47.5l-320 -459l16 81q12 -49 19 -88.5t11 -71.5t5.5 -59t1.5 -51q0 -44 -12 -78.5t-33.5 -58.5t-50.5 -36.5t-63 -12.5zM208 -186q26 0 46.5 31t20.5 91q0 23 -3.5 54t-8 62.5
t-9.5 53.5l34 15q-34 -47 -58 -86.5t-38.5 -71.5t-21.5 -56t-7 -41q0 -29 12.5 -40.5t32.5 -11.5z" />
    <glyph glyph-name="uni0195" unicode="&#x195;" horiz-adv-x="880" 
d="M543 -10q-91 0 -132.5 37t-41.5 92q0 15 2 30.5t6 33.5l28 120q6 24 10.5 47.5t7.5 42.5t3 29q0 20 -8.5 39.5t-37.5 19.5q-31 0 -62 -23t-57.5 -59t-45 -74.5t-24.5 -68.5l-54 -256h-93l130 618q5 20 7 34.5t2 18.5q0 20 -9.5 30t-25.5 13.5t-35 3.5h-8l9 42h184
l-39 -184q-11 -53 -23 -100t-17 -66h11q41 66 85 100.5t100 34.5q40 0 63 -15.5t33.5 -40.5t10.5 -55q0 -25 -6.5 -54.5t-11.5 -55.5l-31 -142q-4 -18 -6.5 -33.5t-2.5 -30.5q0 -40 21 -59t60 -19q38 0 63 16t40 45.5t23 69.5l76 365h97l-78 -373q-7 -36 -20.5 -64
t-32.5 -48.5t-44 -34t-56.5 -20t-69.5 -6.5z" />
    <glyph glyph-name="Iotalatin" unicode="&#x196;" horiz-adv-x="362" 
d="M207 -10q-40 0 -66.5 13t-39 39t-12.5 65q0 18 3 41.5t7 42.5l88 413q2 6 3 15t1 13q0 26 -20 33t-52 7h-13l9 42h291l-9 -42h-13q-22 0 -42 -5t-34 -20t-21 -47l-90 -420q-5 -25 -8.5 -47.5t-3.5 -38.5q0 -34 13.5 -44.5t35.5 -10.5q14 0 26.5 2t23.5 5l8 -44
q-22 -6 -43.5 -9t-41.5 -3z" />
    <glyph glyph-name="uni0197" unicode="&#x197;" horiz-adv-x="367" 
d="M51 349l11 49h293l-11 -49h-293zM-21 0l8 42h13q23 0 42.5 5t34.5 20.5t21 46.5l104 490q2 6 3 15t1 13q0 26 -20 33t-52 7h-13l9 42h291l-9 -42h-13q-22 0 -42 -5t-34 -20t-21 -47l-104 -490q-1 -6 -2.5 -14.5t-1.5 -13.5q0 -25 20.5 -32.5t51.5 -7.5h13l-9 -42h-291z
" />
    <glyph glyph-name="uni0198" unicode="&#x198;" horiz-adv-x="700" 
d="M-21 0l8 42h13q23 0 42.5 5t34 20.5t21.5 46.5l104 490q2 6 3 15t1 13q0 26 -20 33t-52 7h-13l9 42h291l-9 -42h-13q-22 0 -42 -5t-34 -20t-21 -47l-55 -255l338 322q22 21 40.5 33.5t37 18t37.5 5.5q29 0 47.5 -13.5t18.5 -44.5q0 -32 -18 -51t-41 -20q-3 20 -12.5 34.5
t-29.5 14.5q-12 0 -25 -4.5t-27 -18.5l-203 -194l131 -305q12 -27 25 -44.5t30 -26.5t39 -9h4l-9 -42h-14q-45 0 -75 5t-49 15.5t-32 28.5t-24 44l-107 260l-94 -66l-37 -177q-1 -6 -2.5 -14.5t-1.5 -13.5q0 -25 20.5 -32.5t51.5 -7.5h13l-9 -42h-291z" />
    <glyph glyph-name="uni0199" unicode="&#x199;" horiz-adv-x="569" 
d="M508 -7q-52 1 -84.5 10.5t-53 31.5t-36.5 61l-65 160l-91 -58l-41 -198h-93l124 591q12 57 34 97t56.5 61t85.5 21q59 0 89 -20.5t30 -53.5t-21.5 -49t-61.5 -16q0 38 -8 65.5t-34 27.5q-31 0 -45.5 -31t-28.5 -93l-46 -206q-4 -21 -10 -47t-12.5 -52t-14.5 -48l158 137
q41 35 57 55.5t16 34.5q0 9 -4 13t-13.5 5.5t-26.5 1.5l9 42h221l-9 -42q-23 0 -48 -11t-52.5 -32t-60.5 -51l-90 -83l91 -198q11 -24 24.5 -43t32.5 -30t45 -11l-9 -42h-14z" />
    <glyph glyph-name="uni019A" unicode="&#x19a;" horiz-adv-x="304" 
d="M34 365l9 47h270l-9 -47h-270zM156 -10q-40 0 -61.5 28t-21.5 67q0 21 4 50t9 58.5t9 48.5l82 384q3 14 4.5 27.5t1.5 17.5q0 30 -20.5 38.5t-49.5 8.5h-12l9 42h189l-116 -545q-2 -11 -6 -32t-7 -43t-3 -36q0 -25 8.5 -38t24.5 -13q17 0 35 7.5t37 18.5l18 -29
q-22 -19 -59 -39.5t-75 -20.5z" />
    <glyph glyph-name="uni019B" unicode="&#x19b;" horiz-adv-x="535" 
d="M175 529l12 56l299 152l-13 -57zM428 -6q-24 0 -39 9t-23 30t-12 57l-41 405q-7 72 -12.5 110.5t-17.5 54.5t-36.5 18.5t-71.5 2.5q3 22 13.5 42.5t30.5 33.5t49 13q32 0 51 -18.5t29.5 -58.5t16.5 -107l45 -448q3 -27 6.5 -45.5t12 -28t24.5 -9.5q12 0 26 4t25 10
l12 -31q-15 -13 -35.5 -28.5t-52.5 -15.5zM-20 0l343 520l6 -143h-7l-231 -377h-111z" />
    <glyph glyph-name="uni019C" unicode="&#x19c;" horiz-adv-x="1057" 
d="M209 -9q-33 0 -56.5 12t-38 31.5t-21.5 44t-7 49.5q0 28 7 62t13 62l75 352q2 6 3 15t1 13q0 26 -20 33t-52 7h-13l9 42h291l-9 -42h-13q-22 0 -42 -5t-34.5 -20t-21.5 -47l-67 -319q-4 -20 -9.5 -47t-9 -55t-3.5 -54q0 -24 14 -43t47 -19q30 0 65 23.5t68 62t58 85
t35 92.5l59 278q4 16 4 28q0 26 -20 33t-52 7h-13l9 42h291l-9 -42h-13q-22 0 -41.5 -4.5t-33.5 -18.5t-21 -44l-69 -324q-4 -20 -9.5 -47t-9 -55t-3.5 -54q0 -24 14 -43t47 -19q24 0 51.5 15.5t55 42t52 60t42 71t25.5 74.5l59 278q2 6 3 15t1 13q0 26 -20 33t-52 7h-13
l9 42h291l-9 -42h-13q-22 0 -41.5 -4.5t-33.5 -18.5t-21 -44l-102 -477q-4 -19 -6 -30t-2 -16q0 -25 20.5 -32.5t51.5 -7.5h13l-9 -42h-188l33 164h-9q-47 -77 -101 -125t-130 -48q-44 0 -71 20.5t-38.5 52t-11.5 64.5q0 8 0.5 17.5t1.5 19.5h-5q-31 -52 -65.5 -91t-75 -61
t-91.5 -22z" />
    <glyph glyph-name="uni019D" unicode="&#x19d;" horiz-adv-x="748" 
d="M-109 -240q-18 0 -37 3t-34 8l12 45q13 -4 27 -6.5t28 -2.5q39 0 72 19.5t58.5 61t39.5 106.5l130 610q2 6 3 15t1 13q0 26 -20 33t-52 7h-13l9 42h182l242 -552l94 442q2 6 3 15t1 13q0 26 -20 33t-52 7h-13l9 42h251l-9 -42h-13q-22 0 -41.5 -5t-34 -20t-21.5 -47
l-127 -600h-65l-257 586l-127 -594q-18 -85 -49 -136t-74.5 -73.5t-102.5 -22.5z" />
    <glyph glyph-name="nlongrightleg" unicode="&#x19e;" horiz-adv-x="562" 
d="M33 0l84 402q3 14 4.5 27.5t1.5 17.5q0 30 -20.5 38.5t-49.5 8.5h-8l9 42h185l-27 -126h10q41 66 83.5 100.5t98.5 34.5q40 0 63 -15.5t33.5 -40.5t10.5 -55q0 -16 -3 -36t-7 -40t-8 -37l-92 -427q-3 -14 -4.5 -27t-1.5 -18q0 -30 20.5 -38.5t48.5 -8.5h8l-9 -42h-182
l113 540q4 20 9 43t8.5 44.5t3.5 34.5q0 20 -8.5 39.5t-37.5 19.5q-31 0 -62 -23t-57.5 -59t-45 -74.5t-24.5 -68.5l-54 -256h-93z" />
    <glyph glyph-name="uni019F" unicode="&#x19f;" horiz-adv-x="742" 
d="M125 342v56h511v-56h-511zM314 -11q-74 0 -133.5 31.5t-94 93.5t-34.5 152q0 58 16 121t48.5 123t80.5 108.5t112 77.5t143 29q69 0 128 -29t95 -89.5t36 -156.5q0 -55 -15.5 -118t-47 -123.5t-79 -110.5t-111.5 -79.5t-144 -29.5zM320 44q58 0 103.5 29t79 76.5
t55.5 105t32.5 115.5t10.5 107q0 68 -20.5 110.5t-55.5 63t-81 20.5q-58 0 -104 -29t-79.5 -76.5t-55.5 -105t-33 -115.5t-11 -107q0 -68 21 -111t57.5 -63t80.5 -20z" />
    <glyph glyph-name="Ohorn" unicode="&#x1a0;" horiz-adv-x="778" 
d="M314 -11q-74 0 -133.5 31.5t-94 93.5t-34.5 152q0 58 16 121t48.5 123t80.5 108.5t112 77.5t143 29q49 0 93.5 -14.5t80 -44.5t57.5 -77q18 6 34.5 14.5t27.5 21.5t11 32q0 11 -7 18.5t-14.5 17t-7.5 25.5q0 25 17 38.5t42 13.5q27 0 42.5 -15.5t15.5 -40.5
q0 -40 -20.5 -69.5t-54 -51t-73.5 -36.5q8 -23 11.5 -50t3.5 -57q0 -55 -15.5 -118t-47 -123.5t-79 -110.5t-111.5 -79.5t-144 -29.5zM320 44q58 0 103.5 29t79 76.5t55.5 105t32.5 115.5t10.5 107q0 68 -20.5 110.5t-55.5 63t-81 20.5q-58 0 -104 -29t-79.5 -76.5
t-55.5 -105t-33 -115.5t-11 -107q0 -68 21 -111t57.5 -63t80.5 -20z" />
    <glyph glyph-name="ohorn" unicode="&#x1a1;" horiz-adv-x="607" 
d="M235 -10q-85 0 -138.5 51.5t-53.5 155.5q0 44 11.5 92.5t35 94t59 82.5t83.5 58.5t109 21.5q56 0 101 -23.5t68 -75.5q18 6 34 15t26.5 22t10.5 31q0 11 -7 18.5t-14.5 17t-7.5 25.5q0 25 17 38.5t42 13.5q27 0 42.5 -15.5t15.5 -40.5q0 -40 -20.5 -69.5t-53.5 -50.5
t-73 -36q5 -17 7 -36t2 -41q0 -43 -11 -90.5t-34 -93.5t-58 -83t-83 -59.5t-110 -22.5zM246 41q39 0 69 20.5t51 55t34.5 76t20 83.5t6.5 78q0 76 -26 108.5t-72 32.5q-39 0 -69 -21t-51.5 -56t-35 -77t-20 -85t-6.5 -79q0 -50 12.5 -80t34.5 -43t52 -13z" />
    <glyph glyph-name="uni01A2" unicode="&#x1a2;" horiz-adv-x="1075" 
d="M647 -240l9 42h13q22 0 42 5t35 20.5t21 46.5l124 587q4 19 7.5 40.5t6 42.5t2.5 38q0 29 -14 49t-47 20q-27 0 -56.5 -19.5t-58 -56t-51 -88t-36.5 -116.5q-11 -55 -31.5 -109.5t-50 -103.5t-70 -87t-92 -60t-116.5 -22t-118 31.5t-83.5 93.5t-30.5 152q0 58 15 121
t44.5 123t74 108.5t104 77.5t132.5 29q67 0 113.5 -26t74 -71t34.5 -101h5q23 47 48 83.5t54 61.5t63.5 38t74.5 13q45 0 70.5 -20.5t36 -51.5t10.5 -65q0 -28 -4 -61.5t-10 -62.5l-126 -592q-1 -6 -2.5 -14.5t-1.5 -13.5q0 -25 20.5 -32.5t51.5 -7.5h13l-9 -42h-291z
M290 44q52 0 92.5 29t70.5 76.5t49.5 105t29 115.5t9.5 107q0 68 -16.5 110.5t-45 63t-65.5 20.5q-52 0 -93 -29t-71 -76.5t-50 -105t-29.5 -115.5t-9.5 -107q0 -102 37.5 -148t91.5 -46z" />
    <glyph glyph-name="uni01A3" unicode="&#x1a3;" horiz-adv-x="875" 
d="M602 -240q-2 8 -3 18t-1 20q0 31 6 68.5t14 75.5l88 413q3 13 4.5 24.5t1.5 21.5q0 41 -18.5 61t-46.5 20q-44 0 -71 -20t-42.5 -52.5t-23 -69.5t-13.5 -70q-8 -49 -28.5 -99t-54 -90.5t-81 -65.5t-110.5 -25q-79 0 -129.5 51.5t-50.5 155.5q0 44 11 92.5t33.5 94
t56.5 82.5t80.5 58.5t104.5 21.5q40 0 72.5 -14.5t57 -42t36.5 -66.5h6q34 59 78 91t99 32q61 0 95 -32t34 -97q0 -15 -2 -31.5t-6 -35.5l-89 -420q-5 -23 -9 -45t-5.5 -41.5t-1.5 -37.5q0 -13 1 -24.5t3 -21.5h-96zM234 39q36 0 64 21t48 55.5t32.5 76t18.5 84t6 78.5
q0 75 -22.5 107t-63.5 32q-36 0 -64 -21t-48 -55.5t-33 -76.5t-19 -84.5t-6 -78.5q0 -50 10.5 -80.5t30.5 -44t46 -13.5z" />
    <glyph glyph-name="uni01A4" unicode="&#x1a4;" horiz-adv-x="697" 
d="M57 0l9 42h13q22 0 41.5 5t34 20.5t20.5 46.5l104 490q2 6 3 16t1 14q0 23 -17 31.5t-43 8.5q-25 0 -43 -11t-27.5 -30t-9.5 -44q0 -10 3 -19t8 -17q-9 -7 -18 -10.5t-20 -3.5q-22 0 -35 15t-13 32q0 52 37 90t120 38h238q105 0 166.5 -49t61.5 -144q0 -38 -12 -80
t-44.5 -79t-93 -60.5t-156.5 -23.5h-74l-36 -168q-1 -6 -2.5 -14.5t-1.5 -13.5q0 -25 20.5 -32.5t51.5 -7.5h33l-9 -42h-310zM374 325q78 0 124 25t66.5 69t20.5 101q0 79 -37.5 112.5t-108.5 33.5h-46l-72 -341h53z" />
    <glyph glyph-name="uni01A5" unicode="&#x1a5;" horiz-adv-x="577" 
d="M168 591q18 86 59 132.5t117 46.5q39 0 65.5 -9.5t40 -26t13.5 -38.5q0 -33 -21.5 -49t-61.5 -16q0 38 -8 65.5t-34 27.5q-31 0 -45.5 -31t-28.5 -93l-15 -74q-4 -20 -9 -40.5l-10 -41t-11 -41.5h5q20 39 45.5 71.5t59.5 52t78 19.5q61 0 94 -46.5t33 -134.5
q0 -43 -12 -93.5t-35.5 -100.5t-59 -91t-83.5 -65.5t-108 -24.5q-29 0 -54 6.5t-44 16.5q-1 -8 -3 -22t-5 -26l-14 -61q-1 -6 -5 -25.5t-4 -30.5q0 -30 21 -38t49 -8h13l-9 -42h-188zM233 35q38 0 69.5 22t55.5 59t40.5 80.5t25 88t8.5 81.5q0 29 -5.5 56t-19 44t-38.5 17
q-23 0 -46 -14.5t-43.5 -38.5t-37.5 -53.5t-29 -59.5t-18 -56l-41 -190q9 -11 30 -23.5t49 -12.5z" />
    <glyph glyph-name="uni01A6" unicode="&#x1a6;" horiz-adv-x="647" 
d="M552 -120q-58 0 -92.5 9.5t-54 35t-31.5 72.5l-54 219h-99l-24 -106q-1 -6 -2.5 -14.5t-1.5 -13.5q0 -25 20.5 -32.5t51.5 -7.5h23l-9 -42h-300l9 42h13q22 0 41 4.5t33.5 18.5t20.5 44l107 495q2 6 3 15t1 13q0 26 -20 33t-52 7h-13l9 42h291l-9 -42h-13q-22 0 -42 -5
t-34 -20t-21 -47l-1 -6h65q77 0 128 -17.5t76 -53.5t25 -93q0 -44 -16 -77t-42.5 -56.5t-58.5 -38.5t-64 -22l68 -235q12 -41 30 -60t52 -19h8l-8 -42h-13zM308 263q59 0 99.5 18t61.5 54t21 89q0 71 -32 96.5t-99 25.5h-68l-60 -283h77z" />
    <glyph glyph-name="uni01A7" unicode="&#x1a7;" horiz-adv-x="550" 
d="M239 -10q-80 0 -127.5 24.5t-67.5 63t-20 78.5q0 56 21.5 99t76.5 81t156 77q22 8 50.5 20t55.5 30t44.5 45t17.5 66q0 50 -30 75t-72 25q-31 0 -54.5 -15.5t-40 -45.5t-26.5 -74q-31 0 -52.5 12.5t-21.5 43.5q0 19 12 41t37 42t64 33t93 13q62 0 104 -21t64 -57.5
t22 -82.5q0 -52 -27.5 -95.5t-79 -77.5t-123.5 -61q-75 -28 -115.5 -55t-56.5 -56.5t-16 -64.5q0 -40 29 -70t85 -30q32 0 60.5 7t53.5 19t46.5 27.5t39.5 33.5q8 -4 13.5 -14t5.5 -24q0 -25 -30 -51t-80 -43.5t-111 -17.5z" />
    <glyph glyph-name="uni01A8" unicode="&#x1a8;" horiz-adv-x="456" 
d="M193 -10q-80 0 -120.5 39.5t-40.5 100.5q0 29 8 54t29 48.5t60.5 46.5t101.5 46q47 17 71 32.5t32.5 32.5t8.5 38q0 34 -22 52.5t-49 18.5q-40 0 -64.5 -29t-34.5 -85q-31 0 -50 12t-19 39q0 26 17.5 51t55 42t96.5 17q51 0 84.5 -17.5t50 -46.5t16.5 -66
q0 -38 -15.5 -67.5t-47.5 -53.5t-83 -44q-71 -27 -106.5 -47.5t-47 -39.5t-11.5 -44q0 -31 22.5 -53.5t72.5 -22.5q49 0 88.5 24.5t61.5 67.5q7 -4 14 -15.5t7 -22.5q0 -25 -18.5 -50t-59 -41.5t-108.5 -16.5z" />
    <glyph glyph-name="uni01A9" unicode="&#x1a9;" horiz-adv-x="605" 
d="M-57 0l13 62l275 299l-142 314l8 39h493l-32 -175h-52l4 43q2 22 -3.5 40.5t-21.5 29.5t-46 11h-232l122 -266l-4 -15l-261 -290h283q47 0 74 27t40 68l10 30h52l-51 -217h-529z" />
    <glyph glyph-name="uni01AA" unicode="&#x1aa;" horiz-adv-x="294" 
d="M134 -240q-24 0 -43 7t-31.5 21.5t-19.5 36.5t-7 52q0 18 3 41.5t7 42.5l123 582q-10 -5 -26 -8t-30 -3q-50 0 -73.5 28.5t-23.5 77.5q0 37 17 65.5t48.5 45t73.5 16.5q45 0 72 -16.5t39 -42.5t12 -57q0 -21 -3.5 -43t-8.5 -47l-126 -595q-5 -25 -8.5 -47.5t-3.5 -38.5
q0 -29 14 -42t39 -13q19 0 38 5.5t37 14.5l17 -37q-30 -21 -61 -33.5t-75 -12.5zM120 582q21 0 36.5 9t24.5 26t9 40q0 25 -14 41t-39 16q-34 0 -52 -21.5t-18 -54.5q0 -25 12.5 -40.5t40.5 -15.5z" />
    <glyph glyph-name="uni01AB" unicode="&#x1ab;" horiz-adv-x="368" 
d="M162 -198q-25 0 -42.5 14t-17.5 40q0 10 5.5 20.5t16.5 19.5q8 -8 20 -13t24 -5q33 0 51.5 20.5t27.5 65.5l8 41q-16 -7 -34 -11t-38 -4q-36 0 -60 13t-36.5 39t-12.5 65q0 18 3 41.5t7 42.5l61 288h-76l9 40q21 0 42 7.5t41 24t37.5 43t32.5 65.5h46l-26 -123h121
l-12 -57h-121l-61 -285q-5 -25 -8.5 -47.5t-3.5 -38.5q0 -29 14 -42t39 -13q18 0 37 3t37 9.5t33 14.5l-25 -127q-16 -81 -49.5 -116t-89.5 -35z" />
    <glyph glyph-name="uni01AC" unicode="&#x1ac;" horiz-adv-x="613" 
d="M92 0l9 42h23q22 0 41.5 4.5t34 18.5t20.5 44l118 555h-115q-37 0 -58.5 -19t-21.5 -56q0 -10 3 -19t8 -17q-9 -7 -18 -10.5t-20 -3.5q-22 0 -35 15t-13 32q0 52 37 90t120 38h456l-32 -175h-52q0 4 1 13t2 19.5t1.5 18.5t0.5 10q0 26 -14 45t-52 19h-97l-118 -554
q-1 -6 -2.5 -14.5t-1.5 -13.5q0 -17 9.5 -25.5t25.5 -11.5t37 -3h23l-9 -42h-311z" />
    <glyph glyph-name="uni01AD" unicode="&#x1ad;" horiz-adv-x="368" 
d="M183 -10q-36 0 -60 13t-36.5 39t-12.5 65q0 18 3 41.5t7 42.5l61 288h-76l9 40q26 0 47.5 6.5t39 20t30 33t20.5 44.5q15 49 32.5 79t41.5 44t60 14q25 0 42.5 -14t17.5 -40q0 -10 -5.5 -20.5t-16.5 -19.5q-7 8 -19.5 13t-24.5 5q-33 0 -51 -20.5t-28 -65.5l-13 -62h121
l-12 -57h-121l-61 -285q-5 -25 -8.5 -47.5t-3.5 -38.5q0 -29 14 -42t39 -13q21 0 43.5 6.5t38.5 15.5l17 -37q-30 -21 -63.5 -34.5t-71.5 -13.5z" />
    <glyph glyph-name="uni01AE" unicode="&#x1ae;" horiz-adv-x="613" 
d="M296 -240q-61 0 -89.5 29t-28.5 88q0 18 3 41.5t7 42.5l150 703h-96q-29 0 -48.5 -11.5t-31.5 -30t-20 -40.5l-14 -43h-52l42 175h563l-32 -175h-52q0 4 1 13t2 19.5t1.5 18.5t0.5 10q0 26 -14 45t-52 19h-97l-153 -714q-5 -25 -8.5 -47.5t-3.5 -38.5q0 -34 13 -44.5
t29 -10.5q20 0 30 2.5t21 5.5l8 -44q-13 -6 -36 -9.5t-43 -3.5z" />
    <glyph glyph-name="Uhorn" unicode="&#x1af;" horiz-adv-x="778" 
d="M323 -10q-109 0 -168 45.5t-59 127.5q0 16 3.5 44t7.5 45l74 352q2 6 3 15t1 13q0 26 -20 33t-52 7h-13l9 42h291l-8 -42h-13q-22 0 -41.5 -5t-34.5 -20t-22 -47l-75 -353q-5 -25 -8.5 -48.5t-3.5 -44.5q0 -51 38 -77.5t106 -26.5q65 0 104 20.5t60 56t30 79.5l85 398
q2 6 3 15t1 13q0 26 -20 33t-52 7h-13l9 42h156l-28 -132q28 4 51 14.5t36.5 26t13.5 34.5q0 11 -7 18.5t-14.5 17t-7.5 25.5q0 25 17 38.5t42 13.5q27 0 42.5 -15.5t15.5 -40.5q0 -42 -24 -77t-68 -59t-105 -34l-72 -340q-14 -66 -47 -114t-88 -74t-135 -26z" />
    <glyph glyph-name="uhorn" unicode="&#x1b0;" horiz-adv-x="653" 
d="M456 -10q-26 0 -45 13t-29 34.5t-10 47.5q0 11 1.5 27t3.5 32h-8q-28 -45 -55 -79.5t-60 -54t-78 -19.5q-39 0 -62.5 15.5t-34 41t-10.5 54.5q0 25 6 55t12 55l39 175q3 14 6 35t3 25q0 30 -20.5 38.5t-49.5 8.5h-8l9 42h186l-66 -299q-6 -27 -13 -63t-7 -58
q0 -25 10 -43t39 -18q27 0 56 20.5t56 54.5t47 75t29 82l52 249h97l-21 -96q28 4 51 14.5t36.5 26t13.5 34.5q0 11 -7 18.5t-14.5 17t-7.5 25.5q0 25 17 38.5t42 13.5q27 0 42.5 -15.5t15.5 -40.5q0 -42 -24 -77t-68 -59t-105 -34l-40 -187q-2 -11 -6 -32t-6.5 -43t-2.5 -36
q0 -25 8.5 -38t24.5 -13q17 0 31 5.5t33 16.5l18 -29q-22 -19 -55.5 -37.5t-71.5 -18.5z" />
    <glyph glyph-name="Upsilonlatin" unicode="&#x1b1;" horiz-adv-x="753" 
d="M314 -11q-74 0 -133.5 31.5t-94 93.5t-34.5 152q0 52 10.5 98.5t27 86.5t36 71t36.5 52q14 17 23.5 30.5t14.5 25t5 20.5q0 11 -11.5 16.5t-33.5 5.5h-25l9 42h225l-9 -42q-44 -41 -80.5 -89.5t-63 -103.5t-41 -115.5t-14.5 -125.5q0 -68 21 -111t57.5 -63t80.5 -20
q49 0 91.5 22.5t77.5 62t60 91.5t38.5 112t13.5 123q0 54 -11 98t-25 74.5t-22 44.5l9 42h217l-9 -42h-42q-25 0 -36 -7t-11 -21q0 -10 4.5 -24.5t11.5 -35.5q12 -34 18 -66.5t6 -88.5q0 -70 -20 -135t-56 -120.5t-85.5 -97t-109 -64.5t-126.5 -23z" />
    <glyph glyph-name="uni01B2" unicode="&#x1b2;" horiz-adv-x="714" 
d="M251 -10q-59 0 -94.5 21t-51 57.5t-15.5 83.5q0 17 3.5 38t7.5 38l80 376q2 6 3 15t1 13q0 26 -20 33t-52 7h-13l9 42h291l-8 -42h-13q-22 0 -41.5 -5t-34.5 -20t-22 -47l-84 -390q-3 -17 -6 -30.5t-4.5 -25.5t-1.5 -27q0 -18 5 -32.5t14.5 -24.5t23 -15t30.5 -5
q54 0 102 24t89.5 66t75 95t57 111.5t36 116.5t12.5 108q0 38 -15 55t-44 17q-17 0 -32.5 -4t-29.5 -12q0 21 9 42.5t30 36t57 14.5q50 0 74.5 -34.5t24.5 -90.5q0 -65 -16 -134.5t-46 -137.5t-71 -128t-91.5 -106t-108 -72.5t-120.5 -26.5z" />
    <glyph glyph-name="uni01B3" unicode="&#x1b3;" horiz-adv-x="635" 
d="M99 0l9 42h23q22 0 41.5 4.5t34 18.5t20.5 44l39 184l-116 326q-7 19 -13.5 30.5t-16.5 17t-30 5.5h-13l9 42h270l-9 -42h-50q-20 0 -30.5 -7t-10.5 -20q0 -8 1.5 -17.5t4.5 -19t7 -21.5l45 -134q11 -31 18.5 -63t8.5 -57q8 16 20.5 39.5t30 54t39.5 67.5q44 73 76.5 118
t58 68.5t49.5 31.5t51 8q19 0 34 -7t23.5 -20t8.5 -31q0 -32 -18 -51t-41 -20q-3 20 -12.5 34.5t-29.5 14.5q-19 0 -35.5 -9t-35 -31.5t-43.5 -62t-61.5 -100t-88.5 -146.5l-39 -181q-1 -6 -2.5 -14.5t-1.5 -13.5q0 -25 20.5 -32.5t51.5 -7.5h23l-9 -42h-311z" />
    <glyph glyph-name="uni01B4" unicode="&#x1b4;" horiz-adv-x="568" 
d="M-22 -240q-23 0 -48 5t-42 13l15 50q11 -4 28.5 -7.5t44.5 -3.5q70 0 119 22.5t83.5 64t59.5 96.5h-50l-105 441q-4 20 -12 31.5t-21 16.5t-33 5h-6l8 42h146l66 -287q6 -26 13 -63t11.5 -71t4.5 -51h4q20 51 34 94.5t30 89.5t41 105q24 54 47 91t47 59.5t49.5 32.5
t53.5 10q29 0 44.5 -14t15.5 -34t-12 -32t-26 -17q-1 16 -9 23.5t-19 7.5q-19 0 -40.5 -11.5t-46.5 -47.5t-58 -110q-10 -23 -21.5 -51t-24 -60t-25.5 -69.5t-28 -80.5q-22 -65 -46 -113.5t-52 -82.5t-63 -54.5t-78.5 -30t-98.5 -9.5z" />
    <glyph glyph-name="uni01B5" unicode="&#x1b5;" horiz-adv-x="605" 
d="M109 350l10 46h159h121h132l-10 -46h-159h-121h-132zM-17 0l8 40l503 624h-233q-30 0 -49.5 -11.5t-31 -30t-19.5 -40.5l-14 -43h-52l42 175h494l-8 -41l-504 -623h267q31 0 50.5 11.5t31.5 30t19 40.5l14 43h52l-42 -175h-528z" />
    <glyph glyph-name="uni01B6" unicode="&#x1b6;" horiz-adv-x="511" 
d="M68 251l10 46h128h104h102l-10 -46h-128h-104h-102zM-1 0l8 40l340 439h-127q-26 0 -42.5 -9t-27.5 -27t-24 -45l-2 -4h-42l40 142h350l-8 -41l-341 -438h178q23 0 38.5 11.5t26.5 30.5t20 40l10 23h42l-39 -162h-400z" />
    <glyph glyph-name="uni01B7" unicode="&#x1b7;" horiz-adv-x="603" 
d="M243 -11q-79 0 -130.5 18t-76.5 46.5t-25 59.5q0 41 27 61.5t67 20.5q0 -46 14 -80t45.5 -52.5t84.5 -18.5q51 0 88.5 24t58.5 67t21 98q0 37 -17 63.5t-52 41t-89 14.5h-65l6 41l270 240h-184q-30 0 -48 -4t-28.5 -17t-19.5 -41l-3 -9h-44l37 152h418l-8 -41l-302 -264
q73 -1 126 -23t81.5 -61.5t28.5 -95.5q0 -49 -16.5 -92t-50.5 -76.5t-87 -52.5t-127 -19z" />
    <glyph glyph-name="uni01B8" unicode="&#x1b8;" horiz-adv-x="567" 
d="M255 -11q-59 0 -104 14t-75 40t-45 61.5t-15 77.5q0 59 31.5 111.5t90.5 85.5t143 35l-149 271l6 29h419l-32 -175h-51q1 8 1.5 16t0.5 12q0 19 -6.5 33.5t-22 23.5t-42.5 9h-185l124 -226l-11 -45h-33q-59 0 -100.5 -20.5t-63.5 -61t-22 -99.5q0 -36 16 -65.5t49 -47
t84 -17.5q43 0 79.5 12t67 32.5t53.5 43.5q8 -4 13.5 -14t5.5 -24q0 -25 -31.5 -51t-83 -43.5t-112.5 -17.5z" />
    <glyph glyph-name="uni01B9" unicode="&#x1b9;" horiz-adv-x="520" 
d="M234 -242q-79 0 -130 25t-75 68.5t-24 98.5q0 62 26 119.5t85.5 98t159.5 50.5l-165 281l8 37h391l-37 -176h-47v19q0 31 -7 48t-21 24t-36 7h-163l148 -254l-8 -30h-19q-75 0 -121.5 -27.5t-68 -76t-21.5 -111.5q0 -49 17.5 -79.5t48.5 -44.5t70 -14q43 0 76 10.5
t56.5 27.5t37.5 34q5 -3 7.5 -10t2.5 -15q0 -22 -21 -47.5t-63.5 -44t-106.5 -18.5z" />
    <glyph glyph-name="uni01BA" unicode="&#x1ba;" horiz-adv-x="457" 
d="M152 -240q-61 0 -103 16t-63.5 43t-21.5 60q0 31 19.5 58.5t64.5 47t123 25.5q42 4 67 22.5t36.5 48.5t11.5 67q0 25 -11.5 49.5t-33.5 40.5t-54 16h-67l9 43l177 159h-129q-18 0 -30 -5t-21.5 -15t-18.5 -26l-8 -16h-42l40 142h336l-8 -41l-220 -199q51 -1 85 -15.5
t54.5 -36.5t29.5 -47t9 -47q0 -57 -23.5 -97.5t-68.5 -63.5t-110 -27q-39 -2 -65.5 -12t-40 -26t-13.5 -38q0 -35 33.5 -54t73.5 -19t68.5 9t49 26t35.5 39q5 -2 8 -9.5t3 -15.5q0 -29 -19.5 -52.5t-59.5 -36.5t-102 -13z" />
    <glyph glyph-name="uni01BB" unicode="&#x1bb;" horiz-adv-x="571" 
d="M5 0l21 81l284 287h-184l10 46h215q35 41 53.5 73.5t26 62.5t7.5 63q0 45 -24 70t-68 25q-43 0 -72 -20.5t-46 -53t-24 -70.5q-31 0 -51 15t-20 49q0 35 25.5 65t74.5 48.5t118 18.5q63 0 105 -16.5t63 -48.5t21 -77q0 -35 -12.5 -66.5t-37 -64.5t-61.5 -73h95l-10 -46
h-129l-287 -288h222q31 0 49.5 11t30 28t19.5 36l7 16h42l-40 -171h-423z" />
    <glyph glyph-name="uni01BC" unicode="&#x1bc;" horiz-adv-x="561" 
d="M197 -10q-62 0 -102.5 18.5t-60 47.5t-19.5 58q0 35 21.5 56.5t55.5 21.5q0 -54 13 -86t39 -46.5t63 -14.5q52 0 92.5 25.5t64 72.5t23.5 112q0 71 -30.5 105.5t-89.5 34.5h-120l45 209q2 6 3 15t1 13q0 24 -18.5 32t-49.5 8h-7l9 42h419l-32 -175h-52q2 17 3.5 35.5
t1.5 22.5q0 19 -7 34t-23.5 24t-44.5 9h-89l-46 -214h19q59 0 108.5 -19.5t79.5 -61t30 -107.5q0 -56 -21 -105.5t-60.5 -87t-95 -58.5t-123.5 -21z" />
    <glyph glyph-name="uni01BD" unicode="&#x1bd;" horiz-adv-x="509" 
d="M207 -10q-61 0 -100 18t-58 45t-19 54q0 19 9 34t27.5 23.5t45.5 8.5q0 -38 14 -69t38 -48.5t55 -17.5q33 0 62 15t47 48.5t18 90.5q0 46 -28.5 71.5t-75.5 25.5h-127l24 115l4 24t2 18q0 28 -17.5 38t-51.5 10h-9l9 42h390l-29 -136h-47v8v7q-1 45 -16 60t-50 15h-74
l-31 -149h39q63 0 104 -21t61 -55t20 -74q0 -59 -27.5 -104.5t-80 -71t-128.5 -25.5z" />
    <glyph glyph-name="uni01BE" unicode="&#x1be;" horiz-adv-x="449" 
d="M190 -10q-75 0 -120 30.5t-45 82.5q0 27 11 41.5t25.5 19.5t26.5 5q0 -35 11 -65t36.5 -48t66.5 -18q33 0 57.5 10.5t37.5 31t13 51.5q0 24 -7.5 42t-23.5 34.5t-43 33.5q-23 16 -44.5 33.5t-34.5 40.5t-13 53q0 6 1 12.5t2 13.5l18 85h-76l9 40q21 0 42 7.5t41 24
t37.5 43t32.5 65.5h46l-26 -123h131l-12 -57h-131l-15 -69q-1 -4 -1.5 -7.5t-0.5 -7.5q0 -17 9.5 -32t26 -29t36.5 -29q26 -18 44.5 -38t28.5 -46.5t10 -65.5q0 -73 -55.5 -119t-151.5 -46z" />
    <glyph glyph-name="uni01BF" unicode="&#x1bf;" horiz-adv-x="577" 
d="M15 -240q-2 8 -3 18t-1 20q0 21 2.5 44t7.5 48.5t10 50.5l95 453q5 20 7 34.5t2 18.5q0 30 -20.5 38.5t-49.5 8.5h-8l9 42h177l-24 -133h5q20 39 45.5 71.5t59.5 52t78 19.5q61 0 94 -46.5t33 -134.5q0 -65 -25 -131t-75 -121.5t-124 -89t-173 -33.5h-2l-14 -62
q-8 -35 -12.5 -65.5t-3.5 -56.5q0 -13 2 -24.5t4 -21.5h-96zM146 35q63 0 115.5 26.5t90.5 72.5t59 106t21 126q0 29 -5.5 56t-19 44t-38.5 17q-23 0 -46 -14.5t-43.5 -38.5t-37.5 -53.5t-29 -59.5t-18 -56z" />
    <glyph glyph-name="uni01C0" unicode="&#x1c0;" horiz-adv-x="423" 
d="M118 0l162 760h73l-162 -760h-73z" />
    <glyph glyph-name="uni01C1" unicode="&#x1c1;" horiz-adv-x="679" 
d="M343 0l161 760h74l-161 -760h-74zM149 0l161 760h73l-161 -760h-73z" />
    <glyph glyph-name="uni01C2" unicode="&#x1c2;" horiz-adv-x="551" 
d="M184 0l56 258h-189l15 73h189l20 96h-189l16 73h189l54 260h73l-54 -260h189l-16 -73h-189l-20 -96h189l-15 -73h-189l-56 -258h-73z" />
    <glyph glyph-name="uni01C3" unicode="&#x1c3;" horiz-adv-x="333" 
d="M122 201l78 513h116l-140 -513h-54zM116 -8q-25 0 -40.5 14.5t-15.5 40.5q0 43 23.5 62.5t48.5 19.5t40.5 -13.5t15.5 -39.5q0 -29 -10.5 -48t-26.5 -27.5t-35 -8.5z" />
    <glyph glyph-name="uni01C4" unicode="&#x1c4;" horiz-adv-x="1330" 
d="M-21 0l8 42h13q23 0 42.5 5t34.5 20.5t21 46.5l104 490q2 7 3 14.5t1 13.5q0 27 -22.5 33.5t-49.5 6.5h-13l9 42h280q135 0 209.5 -69.5t74.5 -202.5q0 -89 -26 -169t-77 -141.5t-125.5 -96.5t-171.5 -35h-315zM272 51q74 0 132 29.5t98.5 83t61.5 127.5t21 162
q0 110 -51.5 160.5t-138.5 50.5h-79l-131 -613h87zM708 0l8 40l503 624h-233q-30 0 -49.5 -11.5t-31 -30t-19.5 -40.5l-14 -43h-52l42 175h494l-8 -41l-504 -623h267q31 0 50.5 11.5t31.5 30t19 40.5l14 43h52l-42 -175h-528zM1116 771q-7 24 -19 51t-24.5 52t-24.5 44l3 13
h36q15 -12 30 -27t29 -31.5t26 -32.5q19 16 41 32.5t46 32t45 26.5h42l-3 -13q-19 -19 -43 -44t-47 -51.5t-42 -51.5h-95z" />
    <glyph glyph-name="uni01C5" unicode="&#x1c5;" horiz-adv-x="1236" 
d="M-21 0l8 42h13q23 0 42.5 5t34.5 20.5t21 46.5l104 490q2 7 3 14.5t1 13.5q0 27 -22.5 33.5t-49.5 6.5h-13l9 42h280q135 0 209.5 -69.5t74.5 -202.5q0 -89 -26 -169t-77 -141.5t-125.5 -96.5t-171.5 -35h-315zM272 51q74 0 132 29.5t98.5 83t61.5 127.5t21 162
q0 110 -51.5 160.5t-138.5 50.5h-79l-131 -613h87zM724 0l8 40l340 439h-127q-26 0 -42.5 -9t-27.5 -27t-24 -45l-2 -4h-42l40 142h350l-8 -41l-341 -438h178q23 0 38.5 11.5t26.5 30.5t20 40l10 23h42l-39 -162h-400zM1036 606q-7 24 -19 51t-24.5 52t-24.5 44l3 13h36
q15 -12 30 -27t29 -31.5t26 -32.5q19 16 41 32.5t46 32t45 26.5h42l-3 -13q-19 -19 -43 -44t-47 -51.5t-42 -51.5h-95z" />
    <glyph glyph-name="uni01C6" unicode="&#x1c6;" horiz-adv-x="1090" 
d="M172 -10q-44 0 -73 24t-42.5 65.5t-13.5 93.5q0 47 12.5 98.5t37.5 100t61 88t83 63t104 23.5q29 0 54.5 -7t44.5 -18q2 13 5 30.5t5 26.5l10 48q3 14 5 26.5t2 18.5q0 30 -20.5 38.5t-49.5 8.5h-8l9 42h184l-116 -545q-2 -11 -6 -32t-6.5 -43t-2.5 -36q0 -25 8.5 -38
t24.5 -13q17 0 35 7.5t37 18.5l18 -29q-14 -13 -38 -27t-51 -23.5t-52 -9.5q-36 0 -57 22t-21 61q0 13 2.5 33t7.5 45h-6q-34 -77 -81 -119t-106 -42zM208 53q26 0 53.5 20t52 54t43.5 76t28 85l37 177q-11 18 -32 27t-44 9q-40 0 -72 -22.5t-56 -59.5t-40.5 -81
t-24.5 -88.5t-8 -80.5q0 -62 18 -89t45 -27zM578 0l8 40l340 439h-127q-26 0 -42.5 -9t-27.5 -27t-24 -45l-2 -4h-42l40 142h350l-8 -41l-341 -438h178q23 0 38.5 11.5t26.5 30.5t20 40l10 23h42l-39 -162h-400zM896 606q-7 24 -19 51t-24.5 52t-24.5 44l3 13h36
q15 -12 30 -27t29 -31.5t26 -32.5q19 16 41 32.5t46 32t45 26.5h42l-3 -13q-19 -19 -43 -44t-47 -51.5t-42 -51.5h-95z" />
    <glyph glyph-name="uni01C7" unicode="&#x1c7;" horiz-adv-x="980" 
d="M-20 0l9 42h13q22 0 41.5 5t33.5 20.5t21 46.5l104 490q2 6 3 15t1 13q0 26 -20 33t-52 7h-13l9 42h291l-9 -42h-13q-22 0 -41.5 -4.5t-33.5 -19t-21 -44.5l-118 -554h197q31 0 52 13.5t34.5 34.5t20.5 42l26 75h52l-52 -215h-535zM550 -240q-27 0 -45.5 3t-36.5 8l14 45
q13 -4 31.5 -6.5t33.5 -2.5q35 0 61.5 16.5t46.5 56.5t35 111l130 613q2 6 3 15t1 13q0 26 -20 33t-52 7h-13l9 42h291l-9 -42h-13q-22 0 -42 -5t-34 -20t-21 -47l-130 -608q-17 -79 -47 -130.5t-77.5 -76.5t-115.5 -25z" />
    <glyph glyph-name="uni01C8" unicode="&#x1c8;" horiz-adv-x="914" 
d="M-20 0l9 42h13q22 0 41.5 5t33.5 20.5t21 46.5l104 490q2 6 3 15t1 13q0 26 -20 33t-52 7h-13l9 42h291l-9 -42h-13q-22 0 -41.5 -4.5t-33.5 -19t-21 -44.5l-118 -554h197q31 0 52 13.5t34.5 34.5t20.5 42l26 75h52l-52 -215h-535zM541 -240q-15 0 -31.5 2.5t-26.5 5.5
l9 46q8 -2 21.5 -4.5t24.5 -2.5q33 0 56 18.5t40 59.5t31 107l92 434q2 8 2.5 14.5t0.5 11.5q0 27 -16.5 34.5t-44.5 7.5h-13l9 42h179l-115 -544q-14 -67 -35 -111.5t-48 -71t-60.5 -38t-74.5 -11.5zM848 636q-25 0 -40.5 13.5t-15.5 41.5q0 21 7.5 36.5t21 24.5t31.5 9
q24 0 40 -13.5t16 -41.5q0 -39 -19 -54.5t-41 -15.5z" />
    <glyph glyph-name="uni01C9" unicode="&#x1c9;" horiz-adv-x="595" 
d="M156 -10q-40 0 -61.5 28t-21.5 67q0 21 4 50t9 58.5t9 48.5l82 384q3 14 4.5 27.5t1.5 17.5q0 30 -20.5 38.5t-49.5 8.5h-12l9 42h189l-116 -545q-2 -11 -6 -32t-7 -43t-3 -36q0 -25 8.5 -38t24.5 -13q17 0 35 7.5t37 18.5l18 -29q-22 -19 -59 -39.5t-75 -20.5zM222 -240
q-15 0 -31.5 2.5t-26.5 5.5l9 46q8 -2 21.5 -4.5t24.5 -2.5q33 0 56 18.5t40 59.5t31 107l92 434q2 8 2.5 14.5t0.5 11.5q0 27 -16.5 34.5t-44.5 7.5h-13l9 42h179l-115 -544q-14 -67 -35 -111.5t-48 -71t-60.5 -38t-74.5 -11.5zM529 636q-25 0 -40.5 13.5t-15.5 41.5
q0 21 7.5 36.5t21 24.5t31.5 9q24 0 40 -13.5t16 -41.5q0 -39 -19 -54.5t-41 -15.5z" />
    <glyph glyph-name="uni01CA" unicode="&#x1ca;" horiz-adv-x="1120" 
d="M-20 0l9 42h13q22 0 41.5 5t33.5 20.5t21 46.5l104 490q2 6 3 15t1 13q0 26 -20 33t-52 7h-13l9 42h182l242 -552l94 442q2 6 3 15t1 13q0 26 -20 33t-52 7h-13l9 42h251l-9 -42h-13q-22 0 -41.5 -5t-34 -20t-21.5 -47l-127 -600h-65l-257 586l-101 -476
q-1 -6 -2.5 -14.5t-1.5 -13.5q0 -25 20.5 -32.5t51.5 -7.5h13l-9 -42h-250zM690 -240q-27 0 -45.5 3t-36.5 8l14 45q13 -4 31.5 -6.5t33.5 -2.5q35 0 61.5 16.5t46.5 56.5t35 111l130 613q2 6 3 15t1 13q0 26 -20 33t-52 7h-13l9 42h291l-9 -42h-13q-22 0 -42 -5t-34 -20
t-21 -47l-130 -608q-17 -79 -47 -130.5t-77.5 -76.5t-115.5 -25z" />
    <glyph glyph-name="uni01CB" unicode="&#x1cb;" horiz-adv-x="1054" 
d="M-20 0l9 42h13q22 0 41.5 5t33.5 20.5t21 46.5l104 490q2 6 3 15t1 13q0 26 -20 33t-52 7h-13l9 42h182l242 -552l94 442q2 6 3 15t1 13q0 26 -20 33t-52 7h-13l9 42h251l-9 -42h-13q-22 0 -41.5 -5t-34 -20t-21.5 -47l-127 -600h-65l-257 586l-101 -476
q-1 -6 -2.5 -14.5t-1.5 -13.5q0 -25 20.5 -32.5t51.5 -7.5h13l-9 -42h-250zM681 -240q-15 0 -31.5 2.5t-26.5 5.5l9 46q8 -2 21.5 -4.5t24.5 -2.5q33 0 56 18.5t40 59.5t31 107l92 434q2 8 2.5 14.5t0.5 11.5q0 27 -16.5 34.5t-44.5 7.5h-13l9 42h179l-115 -544
q-14 -67 -35 -111.5t-48 -71t-60.5 -38t-74.5 -11.5zM988 636q-25 0 -40.5 13.5t-15.5 41.5q0 21 7.5 36.5t21 24.5t31.5 9q24 0 40 -13.5t16 -41.5q0 -39 -19 -54.5t-41 -15.5z" />
    <glyph glyph-name="uni01CC" unicode="&#x1cc;" horiz-adv-x="890" 
d="M460 -10q-44 0 -67.5 28.5t-23.5 71.5q0 24 4.5 56.5t14.5 78.5l17 78q3 14 8 35t9 44t4 40q0 20 -8.5 39.5t-37.5 19.5q-31 0 -62 -23t-57.5 -59t-45 -74.5t-24.5 -68.5l-54 -256h-93l84 402q3 14 4.5 27.5t1.5 17.5q0 30 -20.5 38.5t-49.5 8.5h-8l9 42h185l-27 -126h10
q41 66 83.5 100.5t98.5 34.5q40 0 63 -15.5t33.5 -40.5t10.5 -55q0 -25 -6.5 -54.5t-11.5 -55.5l-26 -118q-6 -28 -9.5 -55t-3.5 -50t9.5 -35.5t25.5 -12.5t31.5 6t32.5 17l18 -29q-24 -20 -53.5 -38.5t-68.5 -18.5zM517 -240q-15 0 -31.5 2.5t-26.5 5.5l9 46
q8 -2 21.5 -4.5t24.5 -2.5q33 0 56 18.5t40 59.5t31 107l92 434q2 8 2.5 14.5t0.5 11.5q0 27 -16.5 34.5t-44.5 7.5h-13l9 42h179l-115 -544q-14 -67 -35 -111.5t-48 -71t-60.5 -38t-74.5 -11.5zM824 636q-25 0 -40.5 13.5t-15.5 41.5q0 21 7.5 36.5t21 24.5t31.5 9
q24 0 40 -13.5t16 -41.5q0 -39 -19 -54.5t-41 -15.5z" />
    </font>
</defs>
</svg>
